  0
SECTION
  2
HEADER
  9
$ACADVER
  1
AC1018
  9
$ACADMAINTVER
 70
   104
  9
$DWGCODEPAGE
  3
ANSI_1252
  9
$LASTSAVEDBY
  1
Stephan
  9
$INSBASE
 10
0.0
 20
0.0
 30
0.0
  9
$EXTMIN
 10
-3.067733742608378
 20
-0.0529658447500161
 30
-0.0015258207003583
  9
$EXTMAX
 10
13.13703198603682
 20
7.056701678266634
 30
0.0000000349246037
  9
$LIMMIN
 10
0.0
 20
0.0
  9
$LIMMAX
 10
11.0
 20
8.5
  9
$ORTHOMODE
 70
     0
  9
$REGENMODE
 70
     1
  9
$FILLMODE
 70
     1
  9
$QTEXTMODE
 70
     0
  9
$MIRRTEXT
 70
     1
  9
$LTSCALE
 40
1.0
  9
$ATTMODE
 70
     1
  9
$TEXTSIZE
 40
0.125
  9
$TRACEWID
 40
0.05
  9
$TEXTSTYLE
  7
Standard
  9
$CLAYER
  8
0
  9
$CELTYPE
  6
ByLayer
  9
$CECOLOR
 62
   256
  9
$CELTSCALE
 40
1.0
  9
$DISPSILH
 70
     0
  9
$DIMSCALE
 40
1.0
  9
$DIMASZ
 40
0.13
  9
$DIMEXO
 40
0.05
  9
$DIMDLI
 40
0.38
  9
$DIMRND
 40
0.0
  9
$DIMDLE
 40
0.0
  9
$DIMEXE
 40
0.125
  9
$DIMTP
 40
0.0
  9
$DIMTM
 40
0.0
  9
$DIMTXT
 40
0.125
  9
$DIMCEN
 40
0.09
  9
$DIMTSZ
 40
0.0
  9
$DIMTOL
 70
     0
  9
$DIMLIM
 70
     0
  9
$DIMTIH
 70
     1
  9
$DIMTOH
 70
     1
  9
$DIMSE1
 70
     0
  9
$DIMSE2
 70
     0
  9
$DIMTAD
 70
     0
  9
$DIMZIN
 70
     0
  9
$DIMBLK
  1

  9
$DIMASO
 70
     1
  9
$DIMSHO
 70
     1
  9
$DIMPOST
  1

  9
$DIMAPOST
  1

  9
$DIMALT
 70
     0
  9
$DIMALTD
 70
     2
  9
$DIMALTF
 40
25.4
  9
$DIMLFAC
 40
1.0
  9
$DIMTOFL
 70
     0
  9
$DIMTVP
 40
0.0
  9
$DIMTIX
 70
     0
  9
$DIMSOXD
 70
     0
  9
$DIMSAH
 70
     0
  9
$DIMBLK1
  1

  9
$DIMBLK2
  1

  9
$DIMSTYLE
  2
Standard
  9
$DIMCLRD
 70
     0
  9
$DIMCLRE
 70
     0
  9
$DIMCLRT
 70
     0
  9
$DIMTFAC
 40
1.0
  9
$DIMGAP
 40
0.06
  9
$DIMJUST
 70
     0
  9
$DIMSD1
 70
     0
  9
$DIMSD2
 70
     0
  9
$DIMTOLJ
 70
     1
  9
$DIMTZIN
 70
     0
  9
$DIMALTZ
 70
     0
  9
$DIMALTTZ
 70
     0
  9
$DIMUPT
 70
     0
  9
$DIMDEC
 70
     2
  9
$DIMTDEC
 70
     2
  9
$DIMALTU
 70
     2
  9
$DIMALTTD
 70
     2
  9
$DIMTXSTY
  7
Standard
  9
$DIMAUNIT
 70
     0
  9
$DIMADEC
 70
     2
  9
$DIMALTRND
 40
0.0
  9
$DIMAZIN
 70
     0
  9
$DIMDSEP
 70
    46
  9
$DIMATFIT
 70
     3
  9
$DIMFRAC
 70
     0
  9
$DIMLDRBLK
  1

  9
$DIMLUNIT
 70
     2
  9
$DIMLWD
 70
    -2
  9
$DIMLWE
 70
    -2
  9
$DIMTMOVE
 70
     0
  9
$LUNITS
 70
     2
  9
$LUPREC
 70
     2
  9
$SKETCHINC
 40
0.1
  9
$FILLETRAD
 40
0.5
  9
$AUNITS
 70
     0
  9
$AUPREC
 70
     2
  9
$MENU
  1
.
  9
$ELEVATION
 40
0.0
  9
$PELEVATION
 40
0.0
  9
$THICKNESS
 40
0.0
  9
$LIMCHECK
 70
     0
  9
$CHAMFERA
 40
0.0
  9
$CHAMFERB
 40
0.0
  9
$CHAMFERC
 40
0.0
  9
$CHAMFERD
 40
0.0
  9
$SKPOLY
 70
     0
  9
$TDCREATE
 40
2457603.522420903
  9
$TDUCREATE
 40
2457603.689087569
  9
$TDUPDATE
 40
2457605.507458171
  9
$TDUUPDATE
 40
2457605.674124838
  9
$TDINDWG
 40
0.0844759606
  9
$TDUSRTIMER
 40
0.0844758449
  9
$USRTIMER
 70
     1
  9
$ANGBASE
 50
0.0
  9
$ANGDIR
 70
     0
  9
$PDMODE
 70
     0
  9
$PDSIZE
 40
-1.0
  9
$PLINEWID
 40
0.0
  9
$SPLFRAME
 70
     0
  9
$SPLINETYPE
 70
     6
  9
$SPLINESEGS
 70
     8
  9
$HANDSEED
  5
1F5
  9
$SURFTAB1
 70
     6
  9
$SURFTAB2
 70
     6
  9
$SURFTYPE
 70
     6
  9
$SURFU
 70
     6
  9
$SURFV
 70
     6
  9
$UCSBASE
  2

  9
$UCSNAME
  2

  9
$UCSORG
 10
0.0
 20
0.0
 30
0.0
  9
$UCSXDIR
 10
1.0
 20
0.0
 30
0.0
  9
$UCSYDIR
 10
0.0
 20
1.0
 30
0.0
  9
$UCSORTHOREF
  2

  9
$UCSORTHOVIEW
 70
     0
  9
$UCSORGTOP
 10
0.0
 20
0.0
 30
0.0
  9
$UCSORGBOTTOM
 10
0.0
 20
0.0
 30
0.0
  9
$UCSORGLEFT
 10
0.0
 20
0.0
 30
0.0
  9
$UCSORGRIGHT
 10
0.0
 20
0.0
 30
0.0
  9
$UCSORGFRONT
 10
0.0
 20
0.0
 30
0.0
  9
$UCSORGBACK
 10
0.0
 20
0.0
 30
0.0
  9
$PUCSBASE
  2

  9
$PUCSNAME
  2

  9
$PUCSORG
 10
0.0
 20
0.0
 30
0.0
  9
$PUCSXDIR
 10
1.0
 20
0.0
 30
0.0
  9
$PUCSYDIR
 10
0.0
 20
1.0
 30
0.0
  9
$PUCSORTHOREF
  2

  9
$PUCSORTHOVIEW
 70
     0
  9
$PUCSORGTOP
 10
0.0
 20
0.0
 30
0.0
  9
$PUCSORGBOTTOM
 10
0.0
 20
0.0
 30
0.0
  9
$PUCSORGLEFT
 10
0.0
 20
0.0
 30
0.0
  9
$PUCSORGRIGHT
 10
0.0
 20
0.0
 30
0.0
  9
$PUCSORGFRONT
 10
0.0
 20
0.0
 30
0.0
  9
$PUCSORGBACK
 10
0.0
 20
0.0
 30
0.0
  9
$USERI1
 70
     0
  9
$USERI2
 70
     0
  9
$USERI3
 70
     0
  9
$USERI4
 70
     0
  9
$USERI5
 70
     0
  9
$USERR1
 40
0.0
  9
$USERR2
 40
0.0
  9
$USERR3
 40
0.0
  9
$USERR4
 40
0.0
  9
$USERR5
 40
0.0
  9
$WORLDVIEW
 70
     1
  9
$SHADEDGE
 70
     3
  9
$SHADEDIF
 70
    70
  9
$TILEMODE
 70
     1
  9
$MAXACTVP
 70
    64
  9
$PINSBASE
 10
0.0
 20
0.0
 30
0.0
  9
$PLIMCHECK
 70
     0
  9
$PEXTMIN
 10
1.000000000000000E+20
 20
1.000000000000000E+20
 30
1.000000000000000E+20
  9
$PEXTMAX
 10
-1.000000000000000E+20
 20
-1.000000000000000E+20
 30
-1.000000000000000E+20
  9
$PLIMMIN
 10
0.0
 20
0.0
  9
$PLIMMAX
 10
12.0
 20
9.0
  9
$UNITMODE
 70
     0
  9
$VISRETAIN
 70
     1
  9
$PLINEGEN
 70
     0
  9
$PSLTSCALE
 70
     1
  9
$TREEDEPTH
 70
  3020
  9
$CMLSTYLE
  2
Standard
  9
$CMLJUST
 70
     0
  9
$CMLSCALE
 40
1.0
  9
$PROXYGRAPHICS
 70
     1
  9
$MEASUREMENT
 70
     0
  9
$CELWEIGHT
370
    -1
  9
$ENDCAPS
280
     0
  9
$JOINSTYLE
280
     0
  9
$LWDISPLAY
290
     1
  9
$INSUNITS
 70
     1
  9
$HYPERLINKBASE
  1

  9
$STYLESHEET
  1

  9
$XEDIT
290
     1
  9
$CEPSNTYPE
380
     0
  9
$PSTYLEMODE
290
     1
  9
$FINGERPRINTGUID
  2
{35B6C773-7FB7-4425-9624-EF6675006FA4}
  9
$VERSIONGUID
  2
{2517C165-98DD-40AA-923D-57AF9F96FB60}
  9
$EXTNAMES
290
     1
  9
$PSVPSCALE
 40
0.0
  9
$OLESTARTUP
290
     0
  9
$SORTENTS
280
   127
  9
$INDEXCTL
280
     0
  9
$HIDETEXT
280
     0
  9
$XCLIPFRAME
290
     0
  9
$HALOGAP
280
     0
  9
$OBSCOLOR
 70
   257
  9
$OBSLTYPE
280
     0
  9
$INTERSECTIONDISPLAY
280
     0
  9
$INTERSECTIONCOLOR
 70
   257
  9
$DIMASSOC
280
     1
  9
$PROJECTNAME
  1

  0
ENDSEC
  0
SECTION
  2
CLASSES
  0
CLASS
  1
ACDBDICTIONARYWDFLT
  2
AcDbDictionaryWithDefault
  3
ObjectDBX Classes
 90
        0
 91
        1
280
     0
281
     0
  0
CLASS
  1
VISUALSTYLE
  2
AcDbVisualStyle
  3
ObjectDBX Classes
 90
     4095
 91
       24
280
     0
281
     0
  0
CLASS
  1
MATERIAL
  2
AcDbMaterial
  3
ObjectDBX Classes
 90
     1153
 91
        3
280
     0
281
     0
  0
CLASS
  1
SCALE
  2
AcDbScale
  3
ObjectDBX Classes
 90
     1153
 91
       33
280
     0
281
     0
  0
CLASS
  1
TABLESTYLE
  2
AcDbTableStyle
  3
ObjectDBX Classes
 90
     4095
 91
        1
280
     0
281
     0
  0
CLASS
  1
MLEADERSTYLE
  2
AcDbMLeaderStyle
  3
ACDB_MLEADERSTYLE_CLASS
 90
     4095
 91
        1
280
     0
281
     0
  0
CLASS
  1
SUN
  2
AcDbSun
  3
SCENEOE
 90
     1153
 91
        0
280
     0
281
     0
  0
CLASS
  1
DICTIONARYVAR
  2
AcDbDictionaryVar
  3
ObjectDBX Classes
 90
        0
 91
       25
280
     0
281
     0
  0
CLASS
  1
CELLSTYLEMAP
  2
AcDbCellStyleMap
  3
ObjectDBX Classes
 90
     1152
 91
        1
280
     0
281
     0
  0
ENDSEC
  0
SECTION
  2
TABLES
  0
TABLE
  2
VPORT
  5
8
330
0
100
AcDbSymbolTable
 70
     1
  0
VPORT
  5
29
330
8
100
AcDbSymbolTableRecord
100
AcDbViewportTableRecord
  2
*Active
 70
     0
 10
0.0
 20
0.0
 11
1.0
 21
1.0
 12
11.4025521406979
 22
0.6133530262050579
 13
0.0
 23
0.0
 14
0.5
 24
0.5
 15
0.5
 25
0.5
 16
0.0
 26
0.0
 36
1.0
 17
0.0
 27
0.0
 37
0.0
 40
3.68456612335013
 41
2.373684210526315
 42
50.0
 43
0.0
 44
0.0
 50
0.0
 51
0.0
 71
     0
 72
  2000
 73
     1
 74
     3
 75
     0
 76
     0
 77
     0
 78
     0
281
     0
 65
     1
110
0.0
120
0.0
130
0.0
111
1.0
121
0.0
131
0.0
112
0.0
122
1.0
132
0.0
 79
     0
146
0.0
  0
ENDTAB
  0
TABLE
  2
LTYPE
  5
5
330
0
100
AcDbSymbolTable
 70
     7
  0
LTYPE
  5
14
330
5
100
AcDbSymbolTableRecord
100
AcDbLinetypeTableRecord
  2
ByBlock
 70
     0
  3

 72
    65
 73
     0
 40
0.0
  0
LTYPE
  5
15
330
5
100
AcDbSymbolTableRecord
100
AcDbLinetypeTableRecord
  2
ByLayer
 70
     0
  3

 72
    65
 73
     0
 40
0.0
  0
LTYPE
  5
16
330
5
100
AcDbSymbolTableRecord
100
AcDbLinetypeTableRecord
  2
Continuous
 70
     0
  3
Solid line
 72
    65
 73
     0
 40
0.0
  0
LTYPE
  5
6E
330
5
100
AcDbSymbolTableRecord
100
AcDbLinetypeTableRecord
  2
HIDDEN
 70
     0
  3
Hidden __ __ __ __ __ __ __ __ __ __ __ __ __ __
 72
    65
 73
     2
 40
0.075
 49
0.05
 74
     0
 49
-0.025
 74
     0
  0
LTYPE
  5
6F
330
5
100
AcDbSymbolTableRecord
100
AcDbLinetypeTableRecord
  2
PHANTOM
 70
     0
  3
Phantom ______  __  __  ______  __  __  ______
 72
    65
 73
     6
 40
0.5
 49
0.25
 74
     0
 49
-0.05
 74
     0
 49
0.05
 74
     0
 49
-0.05
 74
     0
 49
0.05
 74
     0
 49
-0.05
 74
     0
  0
LTYPE
  5
70
330
5
100
AcDbSymbolTableRecord
100
AcDbLinetypeTableRecord
  2
CENTER
 70
     0
  3
Center ____ _ ____ _ ____ _ ____ _ ____ _ ____
 72
    65
 73
     4
 40
0.4
 49
0.25
 74
     0
 49
-0.05
 74
     0
 49
0.05
 74
     0
 49
-0.05
 74
     0
  0
LTYPE
  5
71
330
5
100
AcDbSymbolTableRecord
100
AcDbLinetypeTableRecord
  2
CENTERX2
 70
     0
  3
Center (2x) ________  __  ________  __  _____
 72
    65
 73
     4
 40
0.8
 49
0.5
 74
     0
 49
-0.1
 74
     0
 49
0.1
 74
     0
 49
-0.1
 74
     0
  0
LTYPE
  5
72
330
5
100
AcDbSymbolTableRecord
100
AcDbLinetypeTableRecord
  2
DOT2
 70
     0
  3
Dot (.5x) ........................................
 72
    65
 73
     2
 40
0.025
 49
0.0
 74
     0
 49
-0.025
 74
     0
  0
ENDTAB
  0
TABLE
  2
LAYER
  5
2
330
0
100
AcDbSymbolTable
 70
     2
  0
LAYER
  5
10
102
{ACAD_XDICTIONARY
360
1B4
102
}
330
2
100
AcDbSymbolTableRecord
100
AcDbLayerTableRecord
  2
0
 70
     0
 62
     7
  6
Continuous
370
    -3
390
F
  0
LAYER
  5
73
102
{ACAD_XDICTIONARY
360
1B6
102
}
330
2
100
AcDbSymbolTableRecord
100
AcDbLayerTableRecord
  2
FORMAT
 70
     0
 62
     7
  6
Continuous
370
    -3
390
F
  0
ENDTAB
  0
TABLE
  2
STYLE
  5
3
330
0
100
AcDbSymbolTable
 70
     2
  0
STYLE
  5
11
330
3
100
AcDbSymbolTableRecord
100
AcDbTextStyleTableRecord
  2
Standard
 70
     0
 40
0.0
 41
1.0
 50
0.0
 71
     0
 42
0.125
  3
txt
  4

  0
STYLE
  5
B8
330
3
100
AcDbSymbolTableRecord
100
AcDbTextStyleTableRecord
  2
SLDTEXTSTYLE0
 70
     0
 40
0.0
 41
0.7
 50
0.0
 71
     0
 42
0.125
  3
TXT
  4

  0
ENDTAB
  0
TABLE
  2
VIEW
  5
6
330
0
100
AcDbSymbolTable
 70
     0
  0
ENDTAB
  0
TABLE
  2
UCS
  5
7
330
0
100
AcDbSymbolTable
 70
     0
  0
ENDTAB
  0
TABLE
  2
APPID
  5
9
330
0
100
AcDbSymbolTable
 70
     3
  0
APPID
  5
12
330
9
100
AcDbSymbolTableRecord
100
AcDbRegAppTableRecord
  2
ACAD
 70
     0
  0
APPID
  5
10F
330
9
100
AcDbSymbolTableRecord
100
AcDbRegAppTableRecord
  2
ACAD_EXEMPT_FROM_CAD_STANDARDS
 70
     0
  0
APPID
  5
1F4
330
9
100
AcDbSymbolTableRecord
100
AcDbRegAppTableRecord
  2
ACAD_MLEADERVER
 70
     0
  0
ENDTAB
  0
TABLE
  2
DIMSTYLE
  5
A
330
0
100
AcDbSymbolTable
 70
     2
100
AcDbDimStyleTable
 71
     1
340
27
  0
DIMSTYLE
105
27
330
A
100
AcDbSymbolTableRecord
100
AcDbDimStyleTableRecord
  2
Standard
 70
     0
340
11
  0
ENDTAB
  0
TABLE
  2
BLOCK_RECORD
  5
1
330
0
100
AcDbSymbolTable
 70
     8
  0
BLOCK_RECORD
  5
1F
330
1
100
AcDbSymbolTableRecord
100
AcDbBlockTableRecord
  2
*Model_Space
340
22
  0
BLOCK_RECORD
  5
1B
330
1
100
AcDbSymbolTableRecord
100
AcDbBlockTableRecord
  2
*Paper_Space
340
1E
  0
BLOCK_RECORD
  5
23
330
1
100
AcDbSymbolTableRecord
100
AcDbBlockTableRecord
  2
*Paper_Space0
340
26
  0
BLOCK_RECORD
  5
F6
330
1
100
AcDbSymbolTableRecord
100
AcDbBlockTableRecord
  2
A$C725E16FA
340
0
102
{BLKREFS
331
10E
331
195
102
}
1001
ACAD
1000
DesignCenter Data
1002
{
1070
     1
1070
     1
1002
}
  0
BLOCK_RECORD
  5
11A
330
1
100
AcDbSymbolTableRecord
100
AcDbBlockTableRecord
  2
A$C192E00E4
340
0
102
{BLKREFS
331
149
102
}
1001
ACAD
1000
DesignCenter Data
1002
{
1070
     1
1070
     1
1002
}
  0
BLOCK_RECORD
  5
17F
330
1
100
AcDbSymbolTableRecord
100
AcDbBlockTableRecord
  2
A$C5A450B56
340
0
102
{BLKREFS
331
184
331
196
331
1A7
102
}
1001
ACAD
1000
DesignCenter Data
1002
{
1070
     1
1070
     1
1002
}
  0
BLOCK_RECORD
  5
185
330
1
100
AcDbSymbolTableRecord
100
AcDbBlockTableRecord
  2
A$C6FD826D6
340
0
102
{BLKREFS
331
193
102
}
1001
ACAD
1000
DesignCenter Data
1002
{
1070
     1
1070
     1
1002
}
  0
BLOCK_RECORD
  5
194
330
1
100
AcDbSymbolTableRecord
100
AcDbBlockTableRecord
  2
A$C796F0F0F
340
0
102
{BLKREFS
331
199
331
19A
331
19B
331
19C
331
19D
102
}
1001
ACAD
1000
DesignCenter Data
1002
{
1070
     1
1070
     1
1002
}
  0
BLOCK_RECORD
  5
1A6
330
1
100
AcDbSymbolTableRecord
100
AcDbBlockTableRecord
  2
A$C174A79CA
340
0
102
{BLKREFS
331
1AA
331
1AB
102
}
1001
ACAD
1000
DesignCenter Data
1002
{
1070
     1
1070
     1
1002
}
  0
ENDTAB
  0
ENDSEC
  0
SECTION
  2
BLOCKS
  0
BLOCK
  5
20
330
1F
100
AcDbEntity
  8
0
100
AcDbBlockBegin
  2
*Model_Space
 70
     0
 10
0.0
 20
0.0
 30
0.0
  3
*Model_Space
  1

  0
ENDBLK
  5
21
330
1F
100
AcDbEntity
  8
0
100
AcDbBlockEnd
  0
BLOCK
  5
1C
330
1B
100
AcDbEntity
 67
     1
  8
0
100
AcDbBlockBegin
  2
*Paper_Space
 70
     0
 10
0.0
 20
0.0
 30
0.0
  3
*Paper_Space
  1

  0
ENDBLK
  5
1D
330
1B
100
AcDbEntity
 67
     1
  8
0
100
AcDbBlockEnd
  0
BLOCK
  5
24
330
23
100
AcDbEntity
 67
     1
  8
0
100
AcDbBlockBegin
  2
*Paper_Space0
 70
     0
 10
0.0
 20
0.0
 30
0.0
  3
*Paper_Space0
  1

  0
ENDBLK
  5
25
330
23
100
AcDbEntity
 67
     1
  8
0
100
AcDbBlockEnd
  0
BLOCK
  5
10C
330
F6
100
AcDbEntity
  8
0
100
AcDbBlockBegin
  2
A$C725E16FA
 70
     0
 10
0.0
 20
0.0
 30
0.0
  3
A$C725E16FA
  1

  0
CIRCLE
  5
F7
330
F6
100
AcDbEntity
  8
0
  6
Continuous
 62
     7
370
    15
100
AcDbCircle
 10
0.2892081813908823
 20
1.659970526695321
 30
0.0
 40
0.082677165354331
  0
ARC
  5
F8
330
F6
100
AcDbEntity
  8
0
  6
Continuous
 62
     7
370
    15
100
AcDbCircle
 10
1.234068267390882
 20
1.572718199895321
 30
0.0
 40
0.125
100
AcDbArc
 50
10.0
 51
100.0
  0
LINE
  5
F9
330
F6
100
AcDbEntity
  8
0
  6
Continuous
 62
     7
370
    15
100
AcDbLine
 10
0.5968573995908823
 20
1.587289057995321
 30
0.0
 11
1.212362245190882
 21
1.695819168995321
 31
0.0
  0
LINE
  5
FA
330
F6
100
AcDbEntity
  8
0
  6
Continuous
 62
     7
370
    15
100
AcDbLine
 10
0.6123640856908823
 20
0.7794999606953215
 30
0.0
 11
0.4954624526908824
 21
1.442482066695321
 31
0.0
  0
ARC
  5
FB
330
F6
100
AcDbEntity
  8
0
  6
Continuous
 62
     7
370
    15
100
AcDbCircle
 10
0.7364343537908822
 20
0.8013768963953214
 30
0.0
 40
0.125984251968504
100
AcDbArc
 50
190.0
 51
262.3971867644
  0
ARC
  5
FC
330
F6
100
AcDbEntity
  8
0
  6
Continuous
 62
     7
370
    15
100
AcDbCircle
 10
0.6294677970908824
 20
-0.0000000070046785
 30
0.0
 40
0.6825000000000002
100
AcDbArc
 50
0.0
 51
82.39718676439999
  0
LINE
  5
FD
330
F6
100
AcDbEntity
  8
0
  6
Continuous
 62
     7
370
    15
100
AcDbLine
 10
0.6294677970908824
 20
-0.0000000070046785
 30
0.0
 11
1.311967797090882
 21
-0.0000000070046785
 31
0.0
  0
ARC
  5
FE
330
F6
100
AcDbEntity
  8
0
  6
Continuous
 62
     7
370
    15
100
AcDbCircle
 10
0.6294677970908824
 20
0.2294999929953216
 30
0.0
 40
0.2295000000000001
100
AcDbArc
 50
210.0
 51
270.0
  0
LINE
  5
FF
330
F6
100
AcDbEntity
  8
0
  6
Continuous
 62
     7
370
    15
100
AcDbLine
 10
0.0000000159908823
 20
0.3634233857953215
 30
0.0
 11
0.4307149669908823
 21
0.1147499929953215
 31
0.0
  0
ARC
  5
100
330
F6
100
AcDbEntity
  8
0
  6
Continuous
 62
     7
370
    15
100
AcDbCircle
 10
0.6294677970908824
 20
-0.0000000070046785
 30
0.0
 40
0.7268467857808816
100
AcDbArc
 50
117.3042773744
 51
150.0
  0
ARC
  5
101
330
F6
100
AcDbEntity
  8
0
  6
Continuous
 62
     7
370
    15
100
AcDbCircle
 10
0.2382606466908823
 20
0.7578111464953216
 30
0.0
 40
0.125984251968504
100
AcDbArc
 50
297.3042773744
 51
10.0
  0
LINE
  5
102
330
F6
100
AcDbEntity
  8
0
  6
Continuous
 62
     7
370
    15
100
AcDbLine
 10
0.2452179295908823
 20
1.443868825995321
 30
0.0
 11
0.3623309147908823
 21
0.7796880821953215
 31
0.0
  0
ARC
  5
103
330
F6
100
AcDbEntity
  8
0
  6
Continuous
 62
     7
370
    15
100
AcDbCircle
 10
0.1211476614908823
 20
1.421991890295321
 30
0.0
 40
0.1259842519685042
100
AcDbArc
 50
10.0
 51
54.7702605175
  0
ARC
  5
104
330
F6
100
AcDbEntity
  8
0
  6
Continuous
 62
     7
370
    15
100
AcDbCircle
 10
0.2892081813908823
 20
1.659970526695321
 30
0.0
 40
0.1653543307086617
100
AcDbArc
 50
59.1086564362
 51
234.7702605175
  0
LINE
  5
105
330
F6
100
AcDbEntity
  8
0
  6
Continuous
 62
     7
370
    15
100
AcDbLine
 10
0.3741030139908823
 20
1.801868102695321
 30
0.0
 11
1.538253108190882
 21
2.007139173895321
 31
0.0
  0
LINE
  5
106
330
F6
100
AcDbEntity
  8
0
  6
Continuous
 62
     7
370
    15
100
AcDbLine
 10
1.538253108190882
 20
2.007139173895321
 30
0.0
 11
1.787846697490882
 21
0.5916235885953216
 31
0.0
  0
LINE
  5
107
330
F6
100
AcDbEntity
  8
0
  6
Continuous
 62
     7
370
    15
100
AcDbLine
 10
1.664745728390882
 20
0.5699175663953216
 30
0.0
 11
1.787846697490882
 21
0.5916235885953216
 31
0.0
  0
ARC
  5
108
330
F6
100
AcDbEntity
  8
0
  6
Continuous
 62
     7
370
    15
100
AcDbCircle
 10
1.643039706190882
 20
0.6930185354953215
 30
0.0
 40
0.1249999999999999
100
AcDbArc
 50
190.0
 51
280.0
  0
LINE
  5
109
330
F6
100
AcDbEntity
  8
0
  6
Continuous
 62
     7
370
    15
100
AcDbLine
 10
1.357169236590882
 20
1.594424222095321
 30
0.0
 11
1.519938736990882
 21
0.6713125132953215
 31
0.0
  0
CIRCLE
  5
10A
330
F6
100
AcDbEntity
  8
0
  6
Continuous
 62
     7
370
    15
100
AcDbCircle
 10
0.6294677970908824
 20
0.2294999929953216
 30
0.0
 40
0.0826771653543308
  0
ARC
  5
10B
330
F6
100
AcDbEntity
  8
0
  6
Continuous
 62
     7
370
    15
100
AcDbCircle
 10
0.6185634217908823
 20
1.464188088895321
 30
0.0
 40
0.1250000000000001
100
AcDbArc
 50
100.0
 51
190.0
  0
ENDBLK
  5
10D
330
F6
100
AcDbEntity
  8
0
100
AcDbBlockEnd
  0
BLOCK
  5
147
330
11A
100
AcDbEntity
  8
0
100
AcDbBlockBegin
  2
A$C192E00E4
 70
     0
 10
0.0
 20
0.0
 30
0.0
  3
A$C192E00E4
  1

  0
CIRCLE
  5
11B
330
11A
100
AcDbEntity
  8
0
  6
Continuous
 62
     7
370
    15
100
AcDbCircle
 10
0.6374931248253409
 20
0.6364647473898222
 30
0.0
 40
0.0826771653543314
  0
CIRCLE
  5
11C
330
11A
100
AcDbEntity
  8
0
  6
Continuous
 62
     7
370
    15
100
AcDbCircle
 10
0.2972335091253409
 20
2.066935281089822
 30
0.0
 40
0.0826771653543306
  0
SPLINE
  5
11D
330
11A
100
AcDbEntity
  8
0
  6
Continuous
 62
     7
370
    15
100
AcDbSpline
210
0.0
220
0.0
230
1.0
 70
     8
 71
     3
 72
    11
 73
     7
 74
     0
 42
0.0000000001
 43
0.0000000001
 40
0.0
 40
0.0
 40
0.0
 40
0.0
 40
0.2719528451203591
 40
0.4317611863568283
 40
0.6501835796008186
 40
1.0
 40
1.0
 40
1.0
 40
1.0
 10
1.002067518530642
 20
0.2081053638232486
 30
0.0
 10
0.992345943412082
 20
0.2022504686357509
 30
0.0
 10
0.995116264054997
 20
0.1867886030151071
 30
0.0
 10
1.00349744181404
 20
0.1675867106287763
 30
0.0
 10
1.012373089767672
 20
0.1457384716651191
 30
0.0
 10
1.016569668026519
 20
0.1261698297727722
 30
0.0
 10
1.006793302368844
 20
0.1168267686903208
 30
0.0
  0
SPLINE
  5
11E
330
11A
100
AcDbEntity
  8
0
  6
Continuous
 62
     7
370
    15
100
AcDbSpline
210
0.0
220
0.0
230
1.0
 70
     8
 71
     3
 72
    11
 73
     7
 74
     0
 42
0.0000000001
 43
0.0000000001
 40
0.0136147321878394
 40
0.0136147321878394
 40
0.0136147321878394
 40
0.0136147321878394
 40
0.271952845120359
 40
0.4317611863568283
 40
0.6501835796008186
 40
1.0
 40
1.0
 40
1.0
 40
1.0
 10
0.923454615275396
 20
0.1523055467789049
 30
0.0
 10
0.9317310569558889
 20
0.1580736660491402
 30
0.0
 10
0.9448840957214098
 20
0.1505624223373365
 30
0.0
 10
0.9599400686605418
 20
0.1366310332176202
 30
0.0
 10
0.97765462977161
 20
0.1210644986947393
 30
0.0
 10
0.9947550155383598
 20
0.1106664305461917
 30
0.0
 10
1.006793302368844
 20
0.1168267686903208
 30
0.0
  0
SPLINE
  5
11F
330
11A
100
AcDbEntity
  8
0
  6
Continuous
 62
     7
370
    15
100
AcDbSpline
210
0.0
220
0.0
230
1.0
 70
     8
 71
     3
 72
    11
 73
     7
 74
     0
 42
0.0000000001
 43
0.0000000001
 40
0.0136147310275742
 40
0.0136147310275742
 40
0.0136147310275742
 40
0.0136147310275742
 40
0.2719528451203541
 40
0.4317611863568235
 40
0.6501835796008148
 40
1.0
 40
1.0
 40
1.0
 40
1.0
 10
0.923454615279925
 20
0.1523055467697256
 30
0.0
 10
0.9144077128606591
 20
0.1478418884676573
 30
0.0
 10
0.9146362107560687
 20
0.1326969552878694
 30
0.0
 10
0.9195685918210141
 20
0.1127862159115214
 30
0.0
 10
0.924649550802332
 20
0.0897578306394271
 30
0.0
 10
0.9255006572525477
 20
0.0697623653434167
 30
0.0
 10
0.9142942545932911
 20
0.0621935705052934
 30
0.0
  0
SPLINE
  5
120
330
11A
100
AcDbEntity
  8
0
  6
Continuous
 62
     7
370
    15
100
AcDbSpline
210
0.0
220
0.0
230
1.0
 70
     8
 71
     3
 72
    11
 73
     7
 74
     0
 42
0.0000000001
 43
0.0000000001
 40
0.0136147321878129
 40
0.0136147321878129
 40
0.0136147321878129
 40
0.0136147321878129
 40
0.2719528451203584
 40
0.4317611863568283
 40
0.6501835796008179
 40
1.0
 40
1.0
 40
1.0
 40
1.0
 10
0.8380963170695498
 20
0.1111624869548837
 30
0.0
 10
0.847223803140646
 20
0.1154589604888692
 30
0.0
 10
0.8589288290007001
 20
0.1058457622447406
 30
0.0
 10
0.8714317254480167
 20
0.089584043258836
 30
0.0
 10
0.8862808947399658
 20
0.0712639765627534
 30
0.0
 10
0.9013924768052268
 20
0.0581421206696886
 30
0.0
 10
0.9142942545932911
 20
0.0621935705052934
 30
0.0
  0
SPLINE
  5
121
330
11A
100
AcDbEntity
  8
0
  6
Continuous
 62
     7
370
    15
100
AcDbSpline
210
0.0
220
0.0
230
1.0
 70
     8
 71
     3
 72
    11
 73
     7
 74
     0
 42
0.0000000001
 43
0.0000000001
 40
0.013614731027599
 40
0.013614731027599
 40
0.013614731027599
 40
0.013614731027599
 40
0.2719528451203539
 40
0.431761186356823
 40
0.6501835796008143
 40
1.0
 40
1.0
 40
1.0
 40
1.0
 10
0.8380963170724729
 20
0.1111624869450738
 30
0.0
 10
0.8284283495110297
 20
0.1082813253647048
 30
0.0
 10
0.8261105280742469
 20
0.0933130617347589
 30
0.0
 10
0.8276295463017691
 20
0.0728568033010397
 30
0.0
 10
0.8287715305444949
 20
0.0493022168177397
 30
0.0
 10
0.8262529960190409
 20
0.0294477463277554
 30
0.0
 10
0.8139347884873799
 20
0.0238681514437236
 30
0.0
  0
SPLINE
  5
122
330
11A
100
AcDbEntity
  8
0
  6
Continuous
 62
     7
370
    15
100
AcDbSpline
210
0.0
220
0.0
230
1.0
 70
     8
 71
     3
 72
    11
 73
     7
 74
     0
 42
0.0000000001
 43
0.0000000001
 40
0.0136147321878377
 40
0.0136147321878377
 40
0.0136147321878377
 40
0.0136147321878377
 40
0.2719528451203588
 40
0.431761186356828
 40
0.6501835796008189
 40
1.0
 40
1.0
 40
1.0
 40
1.0
 10
0.747041419970719
 20
0.0849366188357639
 30
0.0
 10
0.756760754023474
 20
0.0876394381743815
 30
0.0
 10
0.766685375271748
 20
0.0761972747450424
 30
0.0
 10
0.7762801461112852
 20
0.0580670156049852
 30
0.0
 10
0.787842246538949
 20
0.0375136580663629
 30
0.0
 10
0.800535896030407
 20
0.0220406403522411
 30
0.0
 10
0.8139347884873799
 20
0.0238681514437236
 30
0.0
  0
SPLINE
  5
123
330
11A
100
AcDbEntity
  8
0
  6
Continuous
 62
     7
370
    15
100
AcDbSpline
210
0.0
220
0.0
230
1.0
 70
     8
 71
     3
 72
    11
 73
     7
 74
     0
 42
0.0000000001
 43
0.0000000001
 40
0.0136147310275754
 40
0.0136147310275754
 40
0.0136147310275754
 40
0.0136147310275754
 40
0.2719528451203537
 40
0.4317611863568231
 40
0.6501835796008142
 40
1.0
 40
1.0
 40
1.0
 40
1.0
 10
0.7470414199719528
 20
0.0849366188256022
 30
0.0
 10
0.7370269319188667
 20
0.0837197713183295
 30
0.0
 10
0.7322286111345298
 20
0.0693532362468874
 30
0.0
 10
0.7302911304336357
 20
0.0489323622691069
 30
0.0
 10
0.7274617106124916
 20
0.0255204623913628
 30
0.0
 10
0.7216450548156659
 20
0.006370801038357
 30
0.0
 10
0.7085648468519401
 20
0.0029388518125248
 30
0.0
  0
SPLINE
  5
124
330
11A
100
AcDbEntity
  8
0
  6
Continuous
 62
     7
370
    15
100
AcDbSpline
210
0.0
220
0.0
230
1.0
 70
     8
 71
     3
 72
    11
 73
     7
 74
     0
 42
0.0000000001
 43
0.0000000001
 40
0.0136147321878231
 40
0.0136147321878231
 40
0.0136147321878231
 40
0.0136147321878231
 40
0.2719528451203595
 40
0.4317611863568282
 40
0.6501835796008189
 40
1.0
 40
1.0
 40
1.0
 40
1.0
 10
0.652875641684817
 20
0.074372687555627
 30
0.0
 10
0.662910820396506
 20
0.0754050997943976
 30
0.0
 10
0.6707732040981018
 20
0.062458898289929
 30
0.0
 10
0.6771873832721902
 20
0.042974950294937
 30
0.0
 10
0.6851340818326659
 20
0.0207719627842717
 30
0.0
 10
0.6950493327535592
 20
0.0033871759357282
 30
0.0
 10
0.7085648468519401
 20
0.0029388518125248
 30
0.0
  0
SPLINE
  5
125
330
11A
100
AcDbEntity
  8
0
  6
Continuous
 62
     7
370
    15
100
AcDbSpline
210
0.0
220
0.0
230
1.0
 70
     8
 71
     3
 72
    11
 73
     7
 74
     0
 42
0.0000000001
 43
0.0000000001
 40
0.013614731027591
 40
0.013614731027591
 40
0.013614731027591
 40
0.013614731027591
 40
0.2719528451203541
 40
0.4317611863568235
 40
0.6501835796008147
 40
1.0
 40
1.0
 40
1.0
 40
1.0
 10
0.6528756416843278
 20
0.0743726875454032
 30
0.0
 10
0.6427990180535359
 20
0.0748547093547654
 30
0.0
 10
0.6356564575123541
 20
0.0614978743545152
 30
0.0
 10
0.630317497199004
 20
0.0416922835212397
 30
0.0
 10
0.6235970213365809
 20
0.0190879061444465
 30
0.0
 10
0.6146474218740059
 20
0.0011868535482167
 30
0.0
 10
0.6011766567108879
 20
0.0000000082410603
 30
0.0
  0
SPLINE
  5
126
330
11A
100
AcDbEntity
  8
0
  6
Continuous
 62
     7
370
    15
100
AcDbSpline
210
0.0
220
0.0
230
1.0
 70
     8
 71
     3
 72
    11
 73
     7
 74
     0
 42
0.0000000001
 43
0.0000000001
 40
0.0136147321878328
 40
0.0136147321878328
 40
0.0136147321878328
 40
0.0136147321878328
 40
0.2719528451203589
 40
0.431761186356828
 40
0.6501835796008181
 40
1.0
 40
1.0
 40
1.0
 40
1.0
 10
0.5582730406970498
 20
0.0797706807595722
 30
0.0
 10
0.5683390915938802
 20
0.079103368127667
 30
0.0
 10
0.5739159668935699
 20
0.0650207663525295
 30
0.0
 10
0.5769674087166069
 20
0.0447364219768911
 30
0.0
 10
0.5810730402361802
 20
0.0215143104829858
 30
0.0
 10
0.5879283257440669
 20
0.0027114363622873
 30
0.0
 10
0.6011766567108879
 20
0.0000000082410603
 30
0.0
  0
SPLINE
  5
127
330
11A
100
AcDbEntity
  8
0
  6
Continuous
 62
     7
370
    15
100
AcDbSpline
210
0.0
220
0.0
230
1.0
 70
     8
 71
     3
 72
    11
 73
     7
 74
     0
 42
0.0000000001
 43
0.0000000001
 40
0.0136147310275801
 40
0.0136147310275801
 40
0.0136147310275801
 40
0.0136147310275801
 40
0.2719528451203541
 40
0.4317611863568244
 40
0.6501835796008155
 40
1.0
 40
1.0
 40
1.0
 40
1.0
 10
0.5582730406948511
 20
0.0797706807495766
 30
0.0
 10
0.5484204308859802
 20
0.0819378837339526
 30
0.0
 10
0.5391364603735579
 20
0.0699700475121086
 30
0.0
 10
0.5305476327679399
 20
0.0513421661016089
 30
0.0
 10
0.5201269445638428
 20
0.0301872156227505
 30
0.0
 10
0.508298546336329
 20
0.0140431142242568
 30
0.0
 10
0.494819757995648
 20
0.0151350760963665
 30
0.0
  0
SPLINE
  5
128
330
11A
100
AcDbEntity
  8
0
  6
Continuous
 62
     7
370
    15
100
AcDbSpline
210
0.0
220
0.0
230
1.0
 70
     8
 71
     3
 72
    11
 73
     7
 74
     0
 42
0.0000000001
 43
0.0000000001
 40
0.0136147321878363
 40
0.0136147321878363
 40
0.0136147321878363
 40
0.0136147321878363
 40
0.271952845120358
 40
0.4317611863568275
 40
0.6501835796008181
 40
1.0
 40
1.0
 40
1.0
 40
1.0
 10
0.4659200800993988
 20
0.1009773097498057
 30
0.0
 10
0.475731154019361
 20
0.0986292221570349
 30
0.0
 10
0.4788641524420198
 20
0.0838101286709607
 30
0.0
 10
0.4784662040551067
 20
0.0633014095244571
 30
0.0
 10
0.47861417948198
 20
0.0397196204557089
 30
0.0
 10
0.4822148276406811
 20
0.0200326108445275
 30
0.0
 10
0.494819757995648
 20
0.0151350760963665
 30
0.0
  0
SPLINE
  5
129
330
11A
100
AcDbEntity
  8
0
  6
Continuous
 62
     7
370
    15
100
AcDbSpline
210
0.0
220
0.0
230
1.0
 70
     8
 71
     3
 72
    11
 73
     7
 74
     0
 42
0.0000000001
 43
0.0000000001
 40
0.0136147310275759
 40
0.0136147310275759
 40
0.0136147310275759
 40
0.0136147310275759
 40
0.2719528451203539
 40
0.4317611863568239
 40
0.6501835796008146
 40
1.0
 40
1.0
 40
1.0
 40
1.0
 10
0.4659200800955528
 20
0.1009773097403208
 30
0.0
 10
0.456571272109513
 20
0.1047681510798544
 30
0.0
 10
0.445409531778113
 20
0.094529168460336
 30
0.0
 10
0.433814736816643
 20
0.0776079789251947
 30
0.0
 10
0.4199897561923251
 20
0.0585031998595511
 30
0.0
 10
0.4056184543543779
 20
0.0445744993431294
 30
0.0
 10
0.3925144046949411
 20
0.047914259571952
 30
0.0
  0
SPLINE
  5
12A
330
11A
100
AcDbEntity
  8
0
  6
Continuous
 62
     7
370
    15
100
AcDbSpline
210
0.0
220
0.0
230
1.0
 70
     8
 71
     3
 72
    11
 73
     7
 74
     0
 42
0.0000000001
 43
0.0000000001
 40
0.0136147321878355
 40
0.0136147321878355
 40
0.0136147321878355
 40
0.0136147321878355
 40
0.2719528451203592
 40
0.4317611863568284
 40
0.6501835796008183
 40
1.0
 40
1.0
 40
1.0
 40
1.0
 10
0.3784393391602001
 20
0.1373903624783219
 30
0.0
 10
0.3877168276115237
 20
0.1334281793879217
 30
0.0
 10
0.388316980307017
 20
0.1182934171629153
 30
0.0
 10
0.384480942389446
 20
0.098142716504035
 30
0.0
 10
0.3806670596137549
 20
0.0748709101585208
 30
0.0
 10
0.3809108215602939
 20
0.0548588239427632
 30
0.0
 10
0.3925144046949411
 20
0.047914259571952
 30
0.0
  0
SPLINE
  5
12B
330
11A
100
AcDbEntity
  8
0
  6
Continuous
 62
     7
370
    15
100
AcDbSpline
210
0.0
220
0.0
230
1.0
 70
     8
 71
     3
 72
    11
 73
     7
 74
     0
 42
0.0000000001
 43
0.0000000001
 40
0.0136147310275793
 40
0.0136147310275793
 40
0.0136147310275793
 40
0.0136147310275793
 40
0.2719528451203543
 40
0.431761186356824
 40
0.6501835796008152
 40
1.0
 40
1.0
 40
1.0
 40
1.0
 10
0.378439339154816
 20
0.1373903624696178
 30
0.0
 10
0.3698598143562461
 20
0.1426971923191669
 30
0.0
 10
0.3571372680433267
 20
0.1344778232664936
 30
0.0
 10
0.3428657671670019
 20
0.1197438425341986
 30
0.0
 10
0.3260290869244231
 20
0.1032317599635748
 30
0.0
 10
0.309522988352263
 20
0.0919139985011803
 30
0.0
 10
0.2971657976477
 20
0.0974067167493749
 30
0.0
  0
SPLINE
  5
12C
330
11A
100
AcDbEntity
  8
0
  6
Continuous
 62
     7
370
    15
100
AcDbSpline
210
0.0
220
0.0
230
1.0
 70
     8
 71
     3
 72
    11
 73
     7
 74
     0
 42
0.0000000001
 43
0.0000000001
 40
0.0136147321878265
 40
0.0136147321878265
 40
0.0136147321878265
 40
0.0136147321878265
 40
0.2719528451203587
 40
0.4317611863568276
 40
0.650183579600818
 40
1.0
 40
1.0
 40
1.0
 40
1.0
 10
0.2983150390249489
 20
0.1879758047726927
 30
0.0
 10
0.306795485928727
 20
0.1825120416813313
 30
0.0
 10
0.3048457501514088
 20
0.1674913978447954
 30
0.0
 10
0.297680556011328
 20
0.1482709421560315
 30
0.0
 10
0.290013119193921
 20
0.125969976144197
 30
0.0
 10
0.2868930727351899
 20
0.1062011035236141
 30
0.0
 10
0.2971657976477
 20
0.0974067167493749
 30
0.0
  0
SPLINE
  5
12D
330
11A
100
AcDbEntity
  8
0
  6
Continuous
 62
     7
370
    15
100
AcDbSpline
210
0.0
220
0.0
230
1.0
 70
     8
 71
     3
 72
    11
 73
     7
 74
     0
 42
0.0000000001
 43
0.0000000001
 40
0.0136147310275858
 40
0.0136147310275858
 40
0.0136147310275858
 40
0.0136147310275858
 40
0.2719528451203539
 40
0.431761186356824
 40
0.6501835796008145
 40
1.0
 40
1.0
 40
1.0
 40
1.0
 10
0.2983150390181801
 20
0.1879758047650153
 30
0.0
 10
0.2907484331684389
 20
0.1946479232243945
 30
0.0
 10
0.2768263674638909
 20
0.1886815760314588
 30
0.0
 10
0.2602834334661759
 20
0.1765532100974214
 30
0.0
 10
0.2409131706929339
 20
0.1631027233959887
 30
0.0
 10
0.222741004831035
 20
0.1547172954116132
 30
0.0
 10
0.211481584540457
 20
0.1622069930412326
 30
0.0
  0
SPLINE
  5
12E
330
11A
100
AcDbEntity
  8
0
  6
Continuous
 62
     7
370
    15
100
AcDbSpline
210
0.0
220
0.0
230
1.0
 70
     8
 71
     3
 72
    11
 73
     7
 74
     0
 42
0.0000000001
 43
0.0000000001
 40
0.0136147321878309
 40
0.0136147321878309
 40
0.0136147321878309
 40
0.0136147321878309
 40
0.2719528451203588
 40
0.4317611863568278
 40
0.6501835796008183
 40
1.0
 40
1.0
 40
1.0
 40
1.0
 10
0.2278224974210359
 20
0.2512971441655152
 30
0.0
 10
0.2352650805654801
 20
0.2444869574614445
 30
0.0
 10
0.230820823642996
 20
0.2300069784810601
 30
0.0
 10
0.2205299458002217
 20
0.2122625777536786
 30
0.0
 10
0.2092266898215891
 20
0.1915657403940383
 30
0.0
 10
0.2028314360062808
 20
0.1726014649469958
 30
0.0
 10
0.211481584540457
 20
0.1622069930412326
 30
0.0
  0
SPLINE
  5
12F
330
11A
100
AcDbEntity
  8
0
  6
Continuous
 62
     7
370
    15
100
AcDbSpline
210
0.0
220
0.0
230
1.0
 70
     8
 71
     3
 72
    11
 73
     7
 74
     0
 42
0.0000000001
 43
0.0000000001
 40
0.0136147310275817
 40
0.0136147310275817
 40
0.0136147310275817
 40
0.0136147310275817
 40
0.2719528451203538
 40
0.4317611863568239
 40
0.6501835796008143
 40
1.0
 40
1.0
 40
1.0
 40
1.0
 10
0.2278224974130738
 20
0.2512971441590857
 30
0.0
 10
0.2214836820604549
 20
0.2591450807507467
 30
0.0
 10
0.2067574467251629
 20
0.2556011838620131
 30
0.0
 10
0.188412855078973
 20
0.2464228461684419
 30
0.0
 10
0.1670590738904181
 20
0.2364159135034738
 30
0.0
 10
0.14773688207781
 20
0.2312009429234703
 30
0.0
 10
0.1378949698905831
 20
0.2404749323757986
 30
0.0
  0
SPLINE
  5
130
330
11A
100
AcDbEntity
  8
0
  6
Continuous
 62
     7
370
    15
100
AcDbSpline
210
0.0
220
0.0
230
1.0
 70
     8
 71
     3
 72
    11
 73
     7
 74
     0
 42
0.0000000001
 43
0.0000000001
 40
0.0136147321878193
 40
0.0136147321878193
 40
0.0136147321878193
 40
0.0136147321878193
 40
0.2719528451203588
 40
0.4317611863568277
 40
0.6501835796008182
 40
1.0
 40
1.0
 40
1.0
 40
1.0
 10
0.168963515665778
 20
0.3255562224725841
 30
0.0
 10
0.1751568854186629
 20
0.3175930034054994
 30
0.0
 10
0.16834431246661
 20
0.3040648823002474
 30
0.0
 10
0.155219984572438
 20
0.2883004304773937
 30
0.0
 10
0.140601891939284
 20
0.2697954570870209
 30
0.0
 10
0.1311130390229789
 20
0.2521743139650132
 30
0.0
 10
0.1378949698905831
 20
0.2404749323757986
 30
0.0
  0
SPLINE
  5
131
330
11A
100
AcDbEntity
  8
0
  6
Continuous
 62
     7
370
    15
100
AcDbSpline
210
0.0
220
0.0
230
1.0
 70
     8
 71
     3
 72
    11
 73
     7
 74
     0
 42
0.0000000001
 43
0.0000000001
 40
0.0136147310275951
 40
0.0136147310275951
 40
0.0136147310275951
 40
0.0136147310275951
 40
0.2719528451203539
 40
0.4317611863568228
 40
0.6501835796008141
 40
1.0
 40
1.0
 40
1.0
 40
1.0
 10
0.168963515656849
 20
0.325556222467581
 30
0.0
 10
0.1640324963542008
 20
0.3343571165959185
 30
0.0
 10
0.1489202774348379
 20
0.333336307288735
 30
0.0
 10
0.1292949659144051
 20
0.3273686382958507
 30
0.0
 10
0.1065640570909019
 20
0.3210894300282847
 30
0.0
 10
0.086640538355083
 20
0.3191930081930909
 30
0.0
 10
0.0784956184880201
 20
0.329987932751516
 30
0.0
  0
SPLINE
  5
132
330
11A
100
AcDbEntity
  8
0
  6
Continuous
 62
     7
370
    15
100
AcDbSpline
210
0.0
220
0.0
230
1.0
 70
     8
 71
     3
 72
    11
 73
     7
 74
     0
 42
0.0000000001
 43
0.0000000001
 40
0.0136147321878273
 40
0.0136147321878273
 40
0.0136147321878273
 40
0.0136147321878273
 40
0.2719528451203588
 40
0.431761186356828
 40
0.6501835796008183
 40
1.0
 40
1.0
 40
1.0
 40
1.0
 10
0.1234095328154638
 20
0.4086442787186755
 30
0.0
 10
0.128177813893418
 20
0.3997541616008924
 30
0.0
 10
0.1191903839246149
 20
0.3875620611493184
 30
0.0
 10
0.103605302100789
 20
0.3742252268737678
 30
0.0
 10
0.086087487893715
 20
0.3584376096432846
 30
0.0
 10
0.0737744941458349
 20
0.3426599926001996
 30
0.0
 10
0.0784956184880201
 20
0.329987932751516
 30
0.0
  0
SPLINE
  5
133
330
11A
100
AcDbEntity
  8
0
  6
Continuous
 62
     7
370
    15
100
AcDbSpline
210
0.0
220
0.0
230
1.0
 70
     8
 71
     3
 72
    11
 73
     7
 74
     0
 42
0.0000000001
 43
0.0000000001
 40
0.0136147310275855
 40
0.0136147310275855
 40
0.0136147310275855
 40
0.0136147310275855
 40
0.2719528451203539
 40
0.431761186356823
 40
0.6501835796008148
 40
1.0
 40
1.0
 40
1.0
 40
1.0
 10
0.1234095328058209
 20
0.4086442787152445
 30
0.0
 10
0.1200263374300119
 20
0.4181482083167536
 30
0.0
 10
0.10495728188386
 20
0.4196794748694411
 30
0.0
 10
0.084608557312863
 20
0.4170919405573264
 30
0.0
 10
0.0611460184090665
 20
0.4147187695568056
 30
0.0
 10
0.0411869478681357
 20
0.4161947498194305
 30
0.0
 10
0.0349703144546058
 20
0.4282040622420809
 30
0.0
  0
SPLINE
  5
134
330
11A
100
AcDbEntity
  8
0
  6
Continuous
 62
     7
370
    15
100
AcDbSpline
210
0.0
220
0.0
230
1.0
 70
     8
 71
     3
 72
    11
 73
     7
 74
     0
 42
0.0000000001
 43
0.0000000001
 40
0.0136147321878367
 40
0.0136147321878367
 40
0.0136147321878367
 40
0.0136147321878367
 40
0.2719528451203593
 40
0.4317611863568289
 40
0.6501835796008188
 40
1.0
 40
1.0
 40
1.0
 40
1.0
 10
0.0924541612268628
 20
0.4982018323592943
 30
0.0
 10
0.095661947087208
 20
0.4886372729507054
 30
0.0
 10
0.084754879288558
 20
0.4781274164863634
 30
0.0
 10
0.0671516185453629
 20
0.4675969304977734
 30
0.0
 10
0.0472315422509822
 20
0.4549749959061212
 30
0.0
 10
0.0324440640542275
 20
0.4414889474420969
 30
0.0
 10
0.0349703144546058
 20
0.4282040622420809
 30
0.0
  0
SPLINE
  5
135
330
11A
100
AcDbEntity
  8
0
  6
Continuous
 62
     7
370
    15
100
AcDbSpline
210
0.0
220
0.0
230
1.0
 70
     8
 71
     3
 72
    11
 73
     7
 74
     0
 42
0.0000000001
 43
0.0000000001
 40
0.0136147310275765
 40
0.0136147310275765
 40
0.0136147310275765
 40
0.0136147310275765
 40
0.2719528451203543
 40
0.4317611863568231
 40
0.650183579600815
 40
1.0
 40
1.0
 40
1.0
 40
1.0
 10
0.09245416121678
 20
0.4982018323575295
 30
0.0
 10
0.0907148635481841
 20
0.5081389110248927
 30
0.0
 10
0.0761168926071452
 20
0.5121787695264964
 30
0.0
 10
0.0556226048222494
 20
0.5130448490104822
 30
0.0
 10
0.0320947097476629
 20
0.5146451070425311
 30
0.0
 10
0.0126668720967413
 20
0.5194515754761051
 30
0.0
 10
0.0085550610464086
 20
0.532334243124903
 30
0.0
  0
SPLINE
  5
136
330
11A
100
AcDbEntity
  8
0
  6
Continuous
 62
     7
370
    15
100
AcDbSpline
210
0.0
220
0.0
230
1.0
 70
     8
 71
     3
 72
    11
 73
     7
 74
     0
 42
0.0000000001
 43
0.0000000001
 40
0.0136147321878217
 40
0.0136147321878217
 40
0.0136147321878217
 40
0.0136147321878217
 40
0.2719528451203589
 40
0.4317611863568283
 40
0.6501835796008181
 40
1.0
 40
1.0
 40
1.0
 40
1.0
 10
0.0769764513954481
 20
0.5916856862735154
 30
0.0
 10
0.0785326494230709
 20
0.5817182927072358
 30
0.0
 10
0.0660156756071961
 20
0.5731891322937992
 30
0.0
 10
0.0468941218863643
 20
0.5657640324796427
 30
0.0
 10
0.0251374608665633
 20
0.5566662100105369
 30
0.0
 10
0.0082954234025293
 20
0.5458546981526338
 30
0.0
 10
0.0085550610464086
 20
0.532334243124903
 30
0.0
  0
SPLINE
  5
137
330
11A
100
AcDbEntity
  8
0
  6
Continuous
 62
     7
370
    15
100
AcDbSpline
210
0.0
220
0.0
230
1.0
 70
     8
 71
     3
 72
    11
 73
     7
 74
     0
 42
0.0000000001
 43
0.0000000001
 40
0.013614731027591
 40
0.013614731027591
 40
0.013614731027591
 40
0.013614731027591
 40
0.2719528451203536
 40
0.4317611863568237
 40
0.6501835796008139
 40
1.0
 40
1.0
 40
1.0
 40
1.0
 10
0.0769764513852132
 20
0.5916856862734692
 30
0.0
 10
0.0769304428670199
 20
0.6017737273141064
 30
0.0
 10
0.0632181002089803
 20
0.6082074564921856
 30
0.0
 10
0.0431602326562639
 20
0.6125025554107629
 30
0.0
 10
0.0202351112623933
 20
0.6180307993892944
 30
0.0
 10
0.0018902055907375
 20
0.6260312650314655
 30
0.0
 10
-0.0000000185623095
 20
0.6394214542950368
 30
0.0
  0
SPLINE
  5
138
330
11A
100
AcDbEntity
  8
0
  6
Continuous
 62
     7
370
    15
100
AcDbSpline
210
0.0
220
0.0
230
1.0
 70
     8
 71
     3
 72
    11
 73
     7
 74
     0
 42
0.0000000001
 43
0.0000000001
 40
0.0500032709818681
 40
0.0500032709818681
 40
0.0500032709818681
 40
0.0500032709818681
 40
0.2719528451203592
 40
0.431761186356828
 40
0.6501835796008186
 40
1.0
 40
1.0
 40
1.0
 40
1.0
 10
0.076882828228152
 20
0.6825336667481237
 30
0.0
 10
0.074883792199852
 20
0.6752837000807883
 30
0.0
 10
0.0623561094561526
 20
0.6698128307602636
 30
0.0
 10
0.0434080713295886
 20
0.6659388473480688
 30
0.0
 10
0.0204326570839694
 20
0.6606234910427898
 30
0.0
 10
0.0020143295711401
 20
0.6527935340682154
 30
0.0
 10
-0.0000000185623095
 20
0.6394214542950368
 30
0.0
  0
ARC
  5
139
330
11A
100
AcDbEntity
  8
0
  6
Continuous
 62
     7
370
    15
100
AcDbCircle
 10
0.6374931248253409
 20
0.6364647473898222
 30
0.0
 40
0.5625000000000001
100
AcDbArc
 50
175.0675961788999
 51
175.3021965108999
  0
SPLINE
  5
13A
330
11A
100
AcDbEntity
  8
0
  6
Continuous
 62
     7
370
    15
100
AcDbSpline
210
0.0
220
0.0
230
1.0
 70
     8
 71
     3
 72
     8
 73
     4
 74
     0
 42
0.0000000001
 43
0.0000000001
 40
0.0
 40
0.0
 40
0.0
 40
0.0
 40
0.0500032709818534
 40
0.0500032709818534
 40
0.0500032709818534
 40
0.0500032709818534
 10
0.0770761585132891
 20
0.6848287200461476
 30
0.0
 10
0.077590653995564
 20
0.6868509188378864
 30
0.0
 10
0.0777371409928531
 20
0.6886939943273856
 30
0.0
 10
0.077583080829881
 20
0.6903812811637558
 30
0.0
  0
ARC
  5
13B
330
11A
100
AcDbEntity
  8
0
  6
Continuous
 62
     7
370
    15
100
AcDbCircle
 10
0.6374931248253409
 20
0.6364647473898222
 30
0.0
 40
0.5625000000000005
100
AcDbArc
 50
170.6916409139
 51
174.4996625136
  0
LINE
  5
13C
330
11A
100
AcDbEntity
  8
0
  6
Continuous
 62
     7
370
    15
100
AcDbLine
 10
0.008025343725341
 20
0.7703881402898221
 30
0.0
 11
0.082400052325341
 21
0.7274478821898223
 31
0.0
  0
ARC
  5
13D
330
11A
100
AcDbEntity
  8
0
  6
Continuous
 62
     7
370
    15
100
AcDbCircle
 10
0.6374931248253409
 20
0.4069647473898224
 30
0.0
 40
0.7268467857808813
100
AcDbArc
 50
117.3042773744
 51
150.0
  0
ARC
  5
13E
330
11A
100
AcDbEntity
  8
0
  6
Continuous
 62
     7
370
    15
100
AcDbCircle
 10
0.2462859744253409
 20
1.164775900889822
 30
0.0
 40
0.1259842519685044
100
AcDbArc
 50
297.3042773744
 51
9.999999999999985
  0
LINE
  5
13F
330
11A
100
AcDbEntity
  8
0
  6
Continuous
 62
     7
370
    15
100
AcDbLine
 10
0.2532432573253409
 20
1.850833580489821
 30
0.0
 11
0.370356242525341
 21
1.186652836689821
 31
0.0
  0
LINE
  5
140
330
11A
100
AcDbEntity
  8
0
  6
Continuous
 62
     7
370
    15
100
AcDbLine
 10
0.620389413425341
 20
1.186464715089821
 30
0.0
 11
0.4600757359253409
 21
2.095648759289821
 31
0.0
  0
ARC
  5
141
330
11A
100
AcDbEntity
  8
0
  6
Continuous
 62
     7
370
    15
100
AcDbCircle
 10
0.7444596815253411
 20
1.208341650889822
 30
0.0
 40
0.1259842519685044
100
AcDbArc
 50
190.0
 51
262.3971867644
  0
ARC
  5
142
330
11A
100
AcDbEntity
  8
0
  6
Continuous
 62
     7
370
    15
100
AcDbCircle
 10
0.6374931248253409
 20
0.4069647473898224
 30
0.0
 40
0.6825
100
AcDbArc
 50
0.0
 51
82.39718676439999
  0
LINE
  5
143
330
11A
100
AcDbEntity
  8
0
  6
Continuous
 62
     7
370
    15
100
AcDbLine
 10
1.15104545912534
 20
0.4069647473898224
 30
0.0
 11
1.31999312482534
 21
0.4069647473898224
 31
0.0
  0
ARC
  5
144
330
11A
100
AcDbEntity
  8
0
  6
Continuous
 62
     7
370
    15
100
AcDbCircle
 10
0.6374931248253409
 20
0.6364647473898222
 30
0.0
 40
0.5625000000000001
100
AcDbArc
 50
310.4009295122
 51
335.9207402979
  0
ARC
  5
145
330
11A
100
AcDbEntity
  8
0
  6
Continuous
 62
     7
370
    15
100
AcDbCircle
 10
0.2972335091253409
 20
2.066935281089822
 30
0.0
 40
0.1653543307086618
100
AcDbArc
 50
9.999999999999985
 51
234.7702605175
  0
ARC
  5
146
330
11A
100
AcDbEntity
  8
0
  6
Continuous
 62
     7
370
    15
100
AcDbCircle
 10
0.129172989225341
 20
1.828956644689822
 30
0.0
 40
0.125984251968504
100
AcDbArc
 50
9.999999999999985
 51
54.77026051749998
  0
ENDBLK
  5
148
330
11A
100
AcDbEntity
  8
0
100
AcDbBlockEnd
  0
BLOCK
  5
182
330
17F
100
AcDbEntity
  8
0
100
AcDbBlockBegin
  2
A$C5A450B56
 70
     0
 10
0.0
 20
0.0
 30
0.0
  3
A$C5A450B56
  1

  0
CIRCLE
  5
180
330
17F
100
AcDbEntity
  8
0
100
AcDbCircle
 10
0.2375000168967603
 20
0.2375000018975726
 30
0.0
 40
0.2375
  0
CIRCLE
  5
181
330
17F
100
AcDbEntity
  8
0
100
AcDbCircle
 10
0.2375000168967603
 20
0.2375000018975726
 30
0.0
 40
0.0825
  0
ENDBLK
  5
183
330
17F
100
AcDbEntity
  8
0
100
AcDbBlockEnd
  0
BLOCK
  5
191
330
185
100
AcDbEntity
  8
0
100
AcDbBlockBegin
  2
A$C6FD826D6
 70
     0
 10
0.0
 20
0.0
 30
0.0
  3
A$C6FD826D6
  1

  0
CIRCLE
  5
186
330
185
100
AcDbEntity
  8
0
  6
Continuous
 62
     7
370
    15
100
AcDbCircle
 10
0.6294677749213298
 20
0.2294999924766277
 30
0.0
 40
0.0826771653543314
  0
ARC
  5
187
330
185
100
AcDbEntity
  8
0
  6
Continuous
 62
     7
370
    15
100
AcDbCircle
 10
0.6294677749213298
 20
-0.0000000075233721
 30
0.0
 40
0.7268467857808819
100
AcDbArc
 50
117.3042773744
 51
150.0
  0
ARC
  5
188
330
185
100
AcDbEntity
  8
0
  6
Continuous
 62
     7
370
    15
100
AcDbCircle
 10
0.2382606244213301
 20
0.7578111459766275
 30
0.0
 40
0.1259842519685041
100
AcDbArc
 50
297.3042773744
 51
9.999999999999985
  0
LINE
  5
189
330
185
100
AcDbEntity
  8
0
  6
Continuous
 62
     7
370
    15
100
AcDbLine
 10
0.2452179073213303
 20
1.443868825576627
 30
0.0
 11
0.3623308925213298
 21
0.7796880817766283
 31
0.0
  0
ARC
  5
18A
330
185
100
AcDbEntity
  8
0
  6
Continuous
 62
     7
370
    15
100
AcDbCircle
 10
0.1211476392213298
 20
1.421991889776627
 30
0.0
 40
0.125984251968504
100
AcDbArc
 50
9.999999999999985
 51
54.77026051749998
  0
ARC
  5
18B
330
185
100
AcDbEntity
  8
0
  6
Continuous
 62
     7
370
    15
100
AcDbCircle
 10
0.2892081591213298
 20
1.659970526176627
 30
0.0
 40
0.1653543307086618
100
AcDbArc
 50
9.999999999999985
 51
234.7702605175
  0
LINE
  5
18C
330
185
100
AcDbEntity
  8
0
  6
Continuous
 62
     7
370
    15
100
AcDbLine
 10
0.4520503860213303
 20
1.688684004376628
 30
0.0
 11
0.6294677749213298
 21
0.6824999924766271
 31
0.0
  0
LINE
  5
18D
330
185
100
AcDbEntity
  8
0
  6
Continuous
 62
     7
370
    15
100
AcDbLine
 10
0.6294677749213298
 20
0.4589999924766275
 30
0.0
 11
0.6294677749213298
 21
0.6824999924766271
 31
0.0
  0
ARC
  5
18E
330
185
100
AcDbEntity
  8
0
  6
Continuous
 62
     7
370
    15
100
AcDbCircle
 10
0.6294677749213298
 20
0.2294999924766277
 30
0.0
 40
0.2295000000000007
100
AcDbArc
 50
210.0
 51
90.0
  0
LINE
  5
18F
330
185
100
AcDbEntity
  8
0
  6
Continuous
 62
     7
370
    15
100
AcDbLine
 10
0.4307149447213306
 20
0.1147499924766278
 30
0.0
 11
-0.00000000627867
 21
0.3634233853766275
 31
0.0
  0
CIRCLE
  5
190
330
185
100
AcDbEntity
  8
0
  6
Continuous
 62
     7
370
    15
100
AcDbCircle
 10
0.2892081591213298
 20
1.659970526176627
 30
0.0
 40
0.0826771653543297
  0
ENDBLK
  5
192
330
185
100
AcDbEntity
  8
0
100
AcDbBlockEnd
  0
BLOCK
  5
197
330
194
100
AcDbEntity
  8
0
100
AcDbBlockBegin
  2
A$C796F0F0F
 70
     0
 10
0.0
 20
0.0
 30
0.0
  3
A$C796F0F0F
  1

  0
INSERT
  5
195
330
194
100
AcDbEntity
  8
0
100
AcDbBlockReference
  2
A$C725E16FA
 10
-0.0000000159908824
 20
-0.0000000011964683
 30
0.0
  0
INSERT
  5
196
330
194
100
AcDbEntity
  8
0
100
AcDbBlockReference
  2
A$C5A450B56
 10
0.7472339842664813
 20
0.9503761652630126
 30
0.0
  0
ENDBLK
  5
198
330
194
100
AcDbEntity
  8
0
100
AcDbBlockEnd
  0
BLOCK
  5
1A8
330
1A6
100
AcDbEntity
  8
0
100
AcDbBlockBegin
  2
A$C174A79CA
 70
     0
 10
0.0
 20
0.0
 30
0.0
  3
A$C174A79CA
  1

  0
INSERT
  5
1A7
330
1A6
100
AcDbEntity
  8
0
100
AcDbBlockReference
  2
A$C5A450B56
 10
-0.0000000347283855
 20
-0.0000000023513562
 30
0.0
  0
ENDBLK
  5
1A9
330
1A6
100
AcDbEntity
  8
0
100
AcDbBlockEnd
  0
ENDSEC
  0
SECTION
  2
ENTITIES
  0
CIRCLE
  5
75
330
1F
100
AcDbEntity
  8
0
  6
Continuous
 62
     7
370
    15
100
AcDbCircle
 10
1.230477857199999
 20
6.8912150811
 30
0.0
 40
0.0826771653543306
  0
SPLINE
  5
76
330
1F
100
AcDbEntity
  8
0
  6
Continuous
 62
     7
370
    15
100
AcDbSpline
210
0.0
220
0.0
230
1.0
 70
     8
 71
     3
 72
    11
 73
     7
 74
     0
 42
0.0000000001
 43
0.0000000001
 40
0.0
 40
0.0
 40
0.0
 40
0.0
 40
0.2719528451203591
 40
0.4317611863568283
 40
0.6501835796008186
 40
1.0
 40
1.0
 40
1.0
 40
1.0
 10
1.935311866605301
 20
5.032385163833426
 30
0.0
 10
1.925590291486741
 20
5.026530268645928
 30
0.0
 10
1.928360612129656
 20
5.011068403025285
 30
0.0
 10
1.9367417898887
 20
4.991866510638954
 30
0.0
 10
1.945617437842331
 20
4.970018271675296
 30
0.0
 10
1.949814016101178
 20
4.95044962978295
 30
0.0
 10
1.940037650443503
 20
4.941106568700498
 30
0.0
  0
SPLINE
  5
77
330
1F
100
AcDbEntity
  8
0
  6
Continuous
 62
     7
370
    15
100
AcDbSpline
210
0.0
220
0.0
230
1.0
 70
     8
 71
     3
 72
    11
 73
     7
 74
     0
 42
0.0000000001
 43
0.0000000001
 40
0.0136147321878394
 40
0.0136147321878394
 40
0.0136147321878394
 40
0.0136147321878394
 40
0.271952845120359
 40
0.4317611863568283
 40
0.6501835796008186
 40
1.0
 40
1.0
 40
1.0
 40
1.0
 10
1.856698963350055
 20
4.976585346789082
 30
0.0
 10
1.864975405030548
 20
4.982353466059318
 30
0.0
 10
1.878128443796068
 20
4.974842222347514
 30
0.0
 10
1.8931844167352
 20
4.960910833227798
 30
0.0
 10
1.910898977846269
 20
4.945344298704917
 30
0.0
 10
1.927999363613018
 20
4.934946230556369
 30
0.0
 10
1.940037650443503
 20
4.941106568700498
 30
0.0
  0
SPLINE
  5
78
330
1F
100
AcDbEntity
  8
0
  6
Continuous
 62
     7
370
    15
100
AcDbSpline
210
0.0
220
0.0
230
1.0
 70
     8
 71
     3
 72
    11
 73
     7
 74
     0
 42
0.0000000001
 43
0.0000000001
 40
0.0136147310275742
 40
0.0136147310275742
 40
0.0136147310275742
 40
0.0136147310275742
 40
0.2719528451203541
 40
0.4317611863568235
 40
0.6501835796008148
 40
1.0
 40
1.0
 40
1.0
 40
1.0
 10
1.856698963354584
 20
4.976585346779903
 30
0.0
 10
1.847652060935318
 20
4.972121688477835
 30
0.0
 10
1.847880558830727
 20
4.956976755298047
 30
0.0
 10
1.852812939895673
 20
4.937066015921699
 30
0.0
 10
1.857893898876991
 20
4.914037630649604
 30
0.0
 10
1.858745005327206
 20
4.894042165353594
 30
0.0
 10
1.84753860266795
 20
4.886473370515471
 30
0.0
  0
SPLINE
  5
79
330
1F
100
AcDbEntity
  8
0
  6
Continuous
 62
     7
370
    15
100
AcDbSpline
210
0.0
220
0.0
230
1.0
 70
     8
 71
     3
 72
    11
 73
     7
 74
     0
 42
0.0000000001
 43
0.0000000001
 40
0.0136147321878129
 40
0.0136147321878129
 40
0.0136147321878129
 40
0.0136147321878129
 40
0.2719528451203584
 40
0.4317611863568283
 40
0.6501835796008179
 40
1.0
 40
1.0
 40
1.0
 40
1.0
 10
1.771340665144208
 20
4.935442286965061
 30
0.0
 10
1.780468151215305
 20
4.939738760499047
 30
0.0
 10
1.792173177075359
 20
4.930125562254918
 30
0.0
 10
1.804676073522675
 20
4.913863843269013
 30
0.0
 10
1.819525242814624
 20
4.895543776572931
 30
0.0
 10
1.834636824879885
 20
4.882421920679866
 30
0.0
 10
1.84753860266795
 20
4.886473370515471
 30
0.0
  0
SPLINE
  5
7A
330
1F
100
AcDbEntity
  8
0
  6
Continuous
 62
     7
370
    15
100
AcDbSpline
210
0.0
220
0.0
230
1.0
 70
     8
 71
     3
 72
    11
 73
     7
 74
     0
 42
0.0000000001
 43
0.0000000001
 40
0.013614731027599
 40
0.013614731027599
 40
0.013614731027599
 40
0.013614731027599
 40
0.2719528451203539
 40
0.431761186356823
 40
0.6501835796008143
 40
1.0
 40
1.0
 40
1.0
 40
1.0
 10
1.771340665147131
 20
4.935442286955251
 30
0.0
 10
1.761672697585688
 20
4.932561125374882
 30
0.0
 10
1.759354876148905
 20
4.917592861744936
 30
0.0
 10
1.760873894376428
 20
4.897136603311217
 30
0.0
 10
1.762015878619154
 20
4.873582016827917
 30
0.0
 10
1.7594973440937
 20
4.853727546337933
 30
0.0
 10
1.747179136562039
 20
4.848147951453901
 30
0.0
  0
SPLINE
  5
7B
330
1F
100
AcDbEntity
  8
0
  6
Continuous
 62
     7
370
    15
100
AcDbSpline
210
0.0
220
0.0
230
1.0
 70
     8
 71
     3
 72
    11
 73
     7
 74
     0
 42
0.0000000001
 43
0.0000000001
 40
0.0136147321878377
 40
0.0136147321878377
 40
0.0136147321878377
 40
0.0136147321878377
 40
0.2719528451203588
 40
0.431761186356828
 40
0.6501835796008189
 40
1.0
 40
1.0
 40
1.0
 40
1.0
 10
1.680285768045377
 20
4.909216418845941
 30
0.0
 10
1.690005102098132
 20
4.911919238184559
 30
0.0
 10
1.699929723346406
 20
4.90047707475522
 30
0.0
 10
1.709524494185944
 20
4.882346815615163
 30
0.0
 10
1.721086594613607
 20
4.86179345807654
 30
0.0
 10
1.733780244105066
 20
4.846320440362418
 30
0.0
 10
1.747179136562039
 20
4.848147951453901
 30
0.0
  0
SPLINE
  5
7C
330
1F
100
AcDbEntity
  8
0
  6
Continuous
 62
     7
370
    15
100
AcDbSpline
210
0.0
220
0.0
230
1.0
 70
     8
 71
     3
 72
    11
 73
     7
 74
     0
 42
0.0000000001
 43
0.0000000001
 40
0.0136147310275754
 40
0.0136147310275754
 40
0.0136147310275754
 40
0.0136147310275754
 40
0.2719528451203537
 40
0.4317611863568231
 40
0.6501835796008142
 40
1.0
 40
1.0
 40
1.0
 40
1.0
 10
1.680285768046611
 20
4.90921641883578
 30
0.0
 10
1.670271279993525
 20
4.907999571328507
 30
0.0
 10
1.665472959209188
 20
4.893633036257065
 30
0.0
 10
1.663535478508294
 20
4.873212162279284
 30
0.0
 10
1.66070605868715
 20
4.84980026240154
 30
0.0
 10
1.654889402890324
 20
4.830650601048534
 30
0.0
 10
1.641809194926599
 20
4.827218651822702
 30
0.0
  0
SPLINE
  5
7D
330
1F
100
AcDbEntity
  8
0
  6
Continuous
 62
     7
370
    15
100
AcDbSpline
210
0.0
220
0.0
230
1.0
 70
     8
 71
     3
 72
    11
 73
     7
 74
     0
 42
0.0000000001
 43
0.0000000001
 40
0.0136147321878231
 40
0.0136147321878231
 40
0.0136147321878231
 40
0.0136147321878231
 40
0.2719528451203595
 40
0.4317611863568282
 40
0.6501835796008189
 40
1.0
 40
1.0
 40
1.0
 40
1.0
 10
1.586119989759476
 20
4.898652487565804
 30
0.0
 10
1.596155168471165
 20
4.899684899804575
 30
0.0
 10
1.60401755217276
 20
4.886738698300106
 30
0.0
 10
1.610431731346849
 20
4.867254750305114
 30
0.0
 10
1.618378429907324
 20
4.845051762794449
 30
0.0
 10
1.628293680828218
 20
4.827666975945906
 30
0.0
 10
1.641809194926599
 20
4.827218651822702
 30
0.0
  0
SPLINE
  5
7E
330
1F
100
AcDbEntity
  8
0
  6
Continuous
 62
     7
370
    15
100
AcDbSpline
210
0.0
220
0.0
230
1.0
 70
     8
 71
     3
 72
    11
 73
     7
 74
     0
 42
0.0000000001
 43
0.0000000001
 40
0.013614731027591
 40
0.013614731027591
 40
0.013614731027591
 40
0.013614731027591
 40
0.2719528451203541
 40
0.4317611863568235
 40
0.6501835796008147
 40
1.0
 40
1.0
 40
1.0
 40
1.0
 10
1.586119989758986
 20
4.898652487555581
 30
0.0
 10
1.576043366128194
 20
4.899134509364943
 30
0.0
 10
1.568900805587013
 20
4.885777674364693
 30
0.0
 10
1.563561845273663
 20
4.865972083531417
 30
0.0
 10
1.556841369411239
 20
4.843367706154624
 30
0.0
 10
1.547891769948664
 20
4.825466653558394
 30
0.0
 10
1.534421004785546
 20
4.824279808251238
 30
0.0
  0
SPLINE
  5
7F
330
1F
100
AcDbEntity
  8
0
  6
Continuous
 62
     7
370
    15
100
AcDbSpline
210
0.0
220
0.0
230
1.0
 70
     8
 71
     3
 72
    11
 73
     7
 74
     0
 42
0.0000000001
 43
0.0000000001
 40
0.0136147321878328
 40
0.0136147321878328
 40
0.0136147321878328
 40
0.0136147321878328
 40
0.2719528451203589
 40
0.431761186356828
 40
0.6501835796008181
 40
1.0
 40
1.0
 40
1.0
 40
1.0
 10
1.491517388771708
 20
4.90405048076975
 30
0.0
 10
1.501583439668539
 20
4.903383168137844
 30
0.0
 10
1.507160314968228
 20
4.889300566362707
 30
0.0
 10
1.510211756791265
 20
4.869016221987068
 30
0.0
 10
1.514317388310839
 20
4.845794110493163
 30
0.0
 10
1.521172673818725
 20
4.826991236372465
 30
0.0
 10
1.534421004785546
 20
4.824279808251238
 30
0.0
  0
SPLINE
  5
80
330
1F
100
AcDbEntity
  8
0
  6
Continuous
 62
     7
370
    15
100
AcDbSpline
210
0.0
220
0.0
230
1.0
 70
     8
 71
     3
 72
    11
 73
     7
 74
     0
 42
0.0000000001
 43
0.0000000001
 40
0.0136147310275801
 40
0.0136147310275801
 40
0.0136147310275801
 40
0.0136147310275801
 40
0.2719528451203541
 40
0.4317611863568244
 40
0.6501835796008155
 40
1.0
 40
1.0
 40
1.0
 40
1.0
 10
1.49151738876951
 20
4.904050480759754
 30
0.0
 10
1.481664778960639
 20
4.90621768374413
 30
0.0
 10
1.472380808448216
 20
4.894249847522286
 30
0.0
 10
1.463791980842598
 20
4.875621966111786
 30
0.0
 10
1.453371292638501
 20
4.854467015632928
 30
0.0
 10
1.441542894410988
 20
4.838322914234434
 30
0.0
 10
1.428064106070307
 20
4.839414876106544
 30
0.0
  0
SPLINE
  5
81
330
1F
100
AcDbEntity
  8
0
  6
Continuous
 62
     7
370
    15
100
AcDbSpline
210
0.0
220
0.0
230
1.0
 70
     8
 71
     3
 72
    11
 73
     7
 74
     0
 42
0.0000000001
 43
0.0000000001
 40
0.0136147321878363
 40
0.0136147321878363
 40
0.0136147321878363
 40
0.0136147321878363
 40
0.271952845120358
 40
0.4317611863568275
 40
0.6501835796008181
 40
1.0
 40
1.0
 40
1.0
 40
1.0
 10
1.399164428174057
 20
4.925257109759983
 30
0.0
 10
1.40897550209402
 20
4.922909022167212
 30
0.0
 10
1.412108500516678
 20
4.908089928681138
 30
0.0
 10
1.411710552129765
 20
4.887581209534634
 30
0.0
 10
1.411858527556639
 20
4.863999420465886
 30
0.0
 10
1.41545917571534
 20
4.844312410854705
 30
0.0
 10
1.428064106070307
 20
4.839414876106544
 30
0.0
  0
SPLINE
  5
82
330
1F
100
AcDbEntity
  8
0
  6
Continuous
 62
     7
370
    15
100
AcDbSpline
210
0.0
220
0.0
230
1.0
 70
     8
 71
     3
 72
    11
 73
     7
 74
     0
 42
0.0000000001
 43
0.0000000001
 40
0.0136147310275759
 40
0.0136147310275759
 40
0.0136147310275759
 40
0.0136147310275759
 40
0.2719528451203539
 40
0.4317611863568239
 40
0.6501835796008146
 40
1.0
 40
1.0
 40
1.0
 40
1.0
 10
1.399164428170211
 20
4.925257109750498
 30
0.0
 10
1.389815620184172
 20
4.929047951090032
 30
0.0
 10
1.378653879852772
 20
4.918808968470513
 30
0.0
 10
1.367059084891302
 20
4.901887778935372
 30
0.0
 10
1.353234104266984
 20
4.882782999869728
 30
0.0
 10
1.338862802429036
 20
4.868854299353307
 30
0.0
 10
1.3257587527696
 20
4.872194059582129
 30
0.0
  0
SPLINE
  5
83
330
1F
100
AcDbEntity
  8
0
  6
Continuous
 62
     7
370
    15
100
AcDbSpline
210
0.0
220
0.0
230
1.0
 70
     8
 71
     3
 72
    11
 73
     7
 74
     0
 42
0.0000000001
 43
0.0000000001
 40
0.0136147321878355
 40
0.0136147321878355
 40
0.0136147321878355
 40
0.0136147321878355
 40
0.2719528451203592
 40
0.4317611863568284
 40
0.6501835796008183
 40
1.0
 40
1.0
 40
1.0
 40
1.0
 10
1.311683687234859
 20
4.961670162488499
 30
0.0
 10
1.320961175686182
 20
4.957707979398099
 30
0.0
 10
1.321561328381676
 20
4.942573217173093
 30
0.0
 10
1.317725290464105
 20
4.922422516514212
 30
0.0
 10
1.313911407688413
 20
4.899150710168698
 30
0.0
 10
1.314155169634952
 20
4.879138623952941
 30
0.0
 10
1.3257587527696
 20
4.872194059582129
 30
0.0
  0
SPLINE
  5
84
330
1F
100
AcDbEntity
  8
0
  6
Continuous
 62
     7
370
    15
100
AcDbSpline
210
0.0
220
0.0
230
1.0
 70
     8
 71
     3
 72
    11
 73
     7
 74
     0
 42
0.0000000001
 43
0.0000000001
 40
0.0136147310275793
 40
0.0136147310275793
 40
0.0136147310275793
 40
0.0136147310275793
 40
0.2719528451203543
 40
0.431761186356824
 40
0.6501835796008152
 40
1.0
 40
1.0
 40
1.0
 40
1.0
 10
1.311683687229475
 20
4.961670162479795
 30
0.0
 10
1.303104162430905
 20
4.966976992329344
 30
0.0
 10
1.290381616117985
 20
4.958757623276671
 30
0.0
 10
1.27611011524166
 20
4.944023642544376
 30
0.0
 10
1.259273434999082
 20
4.927511559973752
 30
0.0
 10
1.242767336426922
 20
4.916193798511358
 30
0.0
 10
1.230410145722359
 20
4.921686516759552
 30
0.0
  0
SPLINE
  5
85
330
1F
100
AcDbEntity
  8
0
  6
Continuous
 62
     7
370
    15
100
AcDbSpline
210
0.0
220
0.0
230
1.0
 70
     8
 71
     3
 72
    11
 73
     7
 74
     0
 42
0.0000000001
 43
0.0000000001
 40
0.0136147321878265
 40
0.0136147321878265
 40
0.0136147321878265
 40
0.0136147321878265
 40
0.2719528451203587
 40
0.4317611863568276
 40
0.650183579600818
 40
1.0
 40
1.0
 40
1.0
 40
1.0
 10
1.231559387099607
 20
5.01225560478287
 30
0.0
 10
1.240039834003386
 20
5.006791841691509
 30
0.0
 10
1.238090098226067
 20
4.991771197854973
 30
0.0
 10
1.230924904085987
 20
4.972550742166209
 30
0.0
 10
1.22325746726858
 20
4.950249776154374
 30
0.0
 10
1.220137420809848
 20
4.930480903533791
 30
0.0
 10
1.230410145722359
 20
4.921686516759552
 30
0.0
  0
SPLINE
  5
86
330
1F
100
AcDbEntity
  8
0
  6
Continuous
 62
     7
370
    15
100
AcDbSpline
210
0.0
220
0.0
230
1.0
 70
     8
 71
     3
 72
    11
 73
     7
 74
     0
 42
0.0000000001
 43
0.0000000001
 40
0.0136147310275858
 40
0.0136147310275858
 40
0.0136147310275858
 40
0.0136147310275858
 40
0.2719528451203539
 40
0.431761186356824
 40
0.6501835796008145
 40
1.0
 40
1.0
 40
1.0
 40
1.0
 10
1.231559387092839
 20
5.012255604775193
 30
0.0
 10
1.223992781243097
 20
5.018927723234572
 30
0.0
 10
1.210070715538549
 20
5.012961376041636
 30
0.0
 10
1.193527781540834
 20
5.000833010107599
 30
0.0
 10
1.174157518767593
 20
4.987382523406166
 30
0.0
 10
1.155985352905694
 20
4.978997095421791
 30
0.0
 10
1.144725932615116
 20
4.98648679305141
 30
0.0
  0
SPLINE
  5
87
330
1F
100
AcDbEntity
  8
0
  6
Continuous
 62
     7
370
    15
100
AcDbSpline
210
0.0
220
0.0
230
1.0
 70
     8
 71
     3
 72
    11
 73
     7
 74
     0
 42
0.0000000001
 43
0.0000000001
 40
0.0136147321878309
 40
0.0136147321878309
 40
0.0136147321878309
 40
0.0136147321878309
 40
0.2719528451203588
 40
0.4317611863568278
 40
0.6501835796008183
 40
1.0
 40
1.0
 40
1.0
 40
1.0
 10
1.161066845495694
 20
5.075576944175693
 30
0.0
 10
1.168509428640139
 20
5.068766757471622
 30
0.0
 10
1.164065171717655
 20
5.054286778491237
 30
0.0
 10
1.15377429387488
 20
5.036542377763856
 30
0.0
 10
1.142471037896248
 20
5.015845540404216
 30
0.0
 10
1.136075784080939
 20
4.996881264957173
 30
0.0
 10
1.144725932615116
 20
4.98648679305141
 30
0.0
  0
SPLINE
  5
88
330
1F
100
AcDbEntity
  8
0
  6
Continuous
 62
     7
370
    15
100
AcDbSpline
210
0.0
220
0.0
230
1.0
 70
     8
 71
     3
 72
    11
 73
     7
 74
     0
 42
0.0000000001
 43
0.0000000001
 40
0.0136147310275817
 40
0.0136147310275817
 40
0.0136147310275817
 40
0.0136147310275817
 40
0.2719528451203538
 40
0.4317611863568239
 40
0.6501835796008143
 40
1.0
 40
1.0
 40
1.0
 40
1.0
 10
1.161066845487732
 20
5.075576944169263
 30
0.0
 10
1.154728030135113
 20
5.083424880760924
 30
0.0
 10
1.140001794799821
 20
5.079880983872191
 30
0.0
 10
1.121657203153632
 20
5.070702646178619
 30
0.0
 10
1.100303421965077
 20
5.060695713513651
 30
0.0
 10
1.080981230152469
 20
5.055480742933648
 30
0.0
 10
1.071139317965242
 20
5.064754732385976
 30
0.0
  0
SPLINE
  5
89
330
1F
100
AcDbEntity
  8
0
  6
Continuous
 62
     7
370
    15
100
AcDbSpline
210
0.0
220
0.0
230
1.0
 70
     8
 71
     3
 72
    11
 73
     7
 74
     0
 42
0.0000000001
 43
0.0000000001
 40
0.0136147321878193
 40
0.0136147321878193
 40
0.0136147321878193
 40
0.0136147321878193
 40
0.2719528451203588
 40
0.4317611863568277
 40
0.6501835796008182
 40
1.0
 40
1.0
 40
1.0
 40
1.0
 10
1.102207863740437
 20
5.149836022482761
 30
0.0
 10
1.108401233493321
 20
5.141872803415677
 30
0.0
 10
1.101588660541269
 20
5.128344682310425
 30
0.0
 10
1.088464332647097
 20
5.112580230487571
 30
0.0
 10
1.073846240013943
 20
5.094075257097198
 30
0.0
 10
1.064357387097637
 20
5.076454113975191
 30
0.0
 10
1.071139317965242
 20
5.064754732385976
 30
0.0
  0
SPLINE
  5
8A
330
1F
100
AcDbEntity
  8
0
  6
Continuous
 62
     7
370
    15
100
AcDbSpline
210
0.0
220
0.0
230
1.0
 70
     8
 71
     3
 72
    11
 73
     7
 74
     0
 42
0.0000000001
 43
0.0000000001
 40
0.0136147310275951
 40
0.0136147310275951
 40
0.0136147310275951
 40
0.0136147310275951
 40
0.2719528451203539
 40
0.4317611863568228
 40
0.6501835796008141
 40
1.0
 40
1.0
 40
1.0
 40
1.0
 10
1.102207863731508
 20
5.149836022477758
 30
0.0
 10
1.097276844428859
 20
5.158636916606096
 30
0.0
 10
1.082164625509497
 20
5.157616107298912
 30
0.0
 10
1.062539313989064
 20
5.151648438306028
 30
0.0
 10
1.03980840516556
 20
5.145369230038462
 30
0.0
 10
1.019884886429742
 20
5.143472808203268
 30
0.0
 10
1.011739966562679
 20
5.154267732761693
 30
0.0
  0
SPLINE
  5
8B
330
1F
100
AcDbEntity
  8
0
  6
Continuous
 62
     7
370
    15
100
AcDbSpline
210
0.0
220
0.0
230
1.0
 70
     8
 71
     3
 72
    11
 73
     7
 74
     0
 42
0.0000000001
 43
0.0000000001
 40
0.0136147321878273
 40
0.0136147321878273
 40
0.0136147321878273
 40
0.0136147321878273
 40
0.2719528451203588
 40
0.431761186356828
 40
0.6501835796008183
 40
1.0
 40
1.0
 40
1.0
 40
1.0
 10
1.056653880890122
 20
5.232924078728853
 30
0.0
 10
1.061422161968077
 20
5.22403396161107
 30
0.0
 10
1.052434731999273
 20
5.211841861159496
 30
0.0
 10
1.036849650175448
 20
5.198505026883945
 30
0.0
 10
1.019331835968374
 20
5.182717409653462
 30
0.0
 10
1.007018842220493
 20
5.166939792610377
 30
0.0
 10
1.011739966562679
 20
5.154267732761693
 30
0.0
  0
SPLINE
  5
8C
330
1F
100
AcDbEntity
  8
0
  6
Continuous
 62
     7
370
    15
100
AcDbSpline
210
0.0
220
0.0
230
1.0
 70
     8
 71
     3
 72
    11
 73
     7
 74
     0
 42
0.0000000001
 43
0.0000000001
 40
0.0136147310275855
 40
0.0136147310275855
 40
0.0136147310275855
 40
0.0136147310275855
 40
0.2719528451203539
 40
0.431761186356823
 40
0.6501835796008148
 40
1.0
 40
1.0
 40
1.0
 40
1.0
 10
1.056653880880479
 20
5.232924078725422
 30
0.0
 10
1.05327068550467
 20
5.242428008326931
 30
0.0
 10
1.038201629958519
 20
5.243959274879618
 30
0.0
 10
1.017852905387522
 20
5.241371740567504
 30
0.0
 10
0.9943903664837256
 20
5.238998569566983
 30
0.0
 10
0.9744312959427947
 20
5.240474549829608
 30
0.0
 10
0.9682146625292647
 20
5.252483862252258
 30
0.0
  0
SPLINE
  5
8D
330
1F
100
AcDbEntity
  8
0
  6
Continuous
 62
     7
370
    15
100
AcDbSpline
210
0.0
220
0.0
230
1.0
 70
     8
 71
     3
 72
    11
 73
     7
 74
     0
 42
0.0000000001
 43
0.0000000001
 40
0.0136147321878367
 40
0.0136147321878367
 40
0.0136147321878367
 40
0.0136147321878367
 40
0.2719528451203593
 40
0.4317611863568289
 40
0.6501835796008188
 40
1.0
 40
1.0
 40
1.0
 40
1.0
 10
1.025698509301521
 20
5.322481632369472
 30
0.0
 10
1.028906295161867
 20
5.312917072960883
 30
0.0
 10
1.017999227363217
 20
5.302407216496541
 30
0.0
 10
1.000395966620021
 20
5.291876730507951
 30
0.0
 10
0.9804758903256411
 20
5.279254795916298
 30
0.0
 10
0.9656884121288864
 20
5.265768747452274
 30
0.0
 10
0.9682146625292647
 20
5.252483862252258
 30
0.0
  0
SPLINE
  5
8E
330
1F
100
AcDbEntity
  8
0
  6
Continuous
 62
     7
370
    15
100
AcDbSpline
210
0.0
220
0.0
230
1.0
 70
     8
 71
     3
 72
    11
 73
     7
 74
     0
 42
0.0000000001
 43
0.0000000001
 40
0.0136147310275765
 40
0.0136147310275765
 40
0.0136147310275765
 40
0.0136147310275765
 40
0.2719528451203543
 40
0.4317611863568231
 40
0.650183579600815
 40
1.0
 40
1.0
 40
1.0
 40
1.0
 10
1.025698509291439
 20
5.322481632367707
 30
0.0
 10
1.023959211622843
 20
5.33241871103507
 30
0.0
 10
1.009361240681804
 20
5.336458569536674
 30
0.0
 10
0.9888669528969083
 20
5.33732464902066
 30
0.0
 10
0.965339057822322
 20
5.338924907052708
 30
0.0
 10
0.9459112201714003
 20
5.343731375486282
 30
0.0
 10
0.9417994091210676
 20
5.35661404313508
 30
0.0
  0
SPLINE
  5
8F
330
1F
100
AcDbEntity
  8
0
  6
Continuous
 62
     7
370
    15
100
AcDbSpline
210
0.0
220
0.0
230
1.0
 70
     8
 71
     3
 72
    11
 73
     7
 74
     0
 42
0.0000000001
 43
0.0000000001
 40
0.0136147321878217
 40
0.0136147321878217
 40
0.0136147321878217
 40
0.0136147321878217
 40
0.2719528451203589
 40
0.4317611863568283
 40
0.6501835796008181
 40
1.0
 40
1.0
 40
1.0
 40
1.0
 10
1.010220799470107
 20
5.415965486283693
 30
0.0
 10
1.011776997497729
 20
5.405998092717413
 30
0.0
 10
0.9992600236818551
 20
5.397468932303977
 30
0.0
 10
0.9801384699610233
 20
5.39004383248982
 30
0.0
 10
0.9583818089412224
 20
5.380946010020714
 30
0.0
 10
0.9415397714771883
 20
5.370134498162811
 30
0.0
 10
0.9417994091210676
 20
5.35661404313508
 30
0.0
  0
SPLINE
  5
90
330
1F
100
AcDbEntity
  8
0
  6
Continuous
 62
     7
370
    15
100
AcDbSpline
210
0.0
220
0.0
230
1.0
 70
     8
 71
     3
 72
    11
 73
     7
 74
     0
 42
0.0000000001
 43
0.0000000001
 40
0.013614731027591
 40
0.013614731027591
 40
0.013614731027591
 40
0.013614731027591
 40
0.2719528451203536
 40
0.4317611863568237
 40
0.6501835796008139
 40
1.0
 40
1.0
 40
1.0
 40
1.0
 10
1.010220799459872
 20
5.415965486283647
 30
0.0
 10
1.010174790941678
 20
5.426053527324284
 30
0.0
 10
0.9964624482836393
 20
5.432487256502363
 30
0.0
 10
0.976404580730923
 20
5.43678235542094
 30
0.0
 10
0.9534794593370524
 20
5.442310599399472
 30
0.0
 10
0.9351345536653965
 20
5.450311065041643
 30
0.0
 10
0.9332443295123496
 20
5.463701254305214
 30
0.0
  0
SPLINE
  5
91
330
1F
100
AcDbEntity
  8
0
  6
Continuous
 62
     7
370
    15
100
AcDbSpline
210
0.0
220
0.0
230
1.0
 70
     8
 71
     3
 72
    11
 73
     7
 74
     0
 42
0.0000000001
 43
0.0000000001
 40
0.0500032709818681
 40
0.0500032709818681
 40
0.0500032709818681
 40
0.0500032709818681
 40
0.2719528451203592
 40
0.431761186356828
 40
0.6501835796008186
 40
1.0
 40
1.0
 40
1.0
 40
1.0
 10
1.010127176302811
 20
5.506813466758301
 30
0.0
 10
1.008128140274511
 20
5.499563500090966
 30
0.0
 10
0.9956004575308115
 20
5.494092630770441
 30
0.0
 10
0.9766524194042476
 20
5.490218647358246
 30
0.0
 10
0.9536770051586284
 20
5.484903291052967
 30
0.0
 10
0.9352586776457991
 20
5.477073334078393
 30
0.0
 10
0.9332443295123496
 20
5.463701254305214
 30
0.0
  0
ARC
  5
92
330
1F
100
AcDbEntity
  8
0
  6
Continuous
 62
     7
370
    15
100
AcDbCircle
 10
1.570737472899999
 20
5.4607445474
 30
0.0
 40
0.5625000000000001
100
AcDbArc
 50
175.0675961789
 51
175.3021965109
  0
SPLINE
  5
93
330
1F
100
AcDbEntity
  8
0
  6
Continuous
 62
     7
370
    15
100
AcDbSpline
210
0.0
220
0.0
230
1.0
 70
     8
 71
     3
 72
     8
 73
     4
 74
     0
 42
0.0000000001
 43
0.0000000001
 40
0.0
 40
0.0
 40
0.0
 40
0.0
 40
0.0500032709818534
 40
0.0500032709818534
 40
0.0500032709818534
 40
0.0500032709818534
 10
1.010320506587948
 20
5.509108520056325
 30
0.0
 10
1.010835002070223
 20
5.511130718848064
 30
0.0
 10
1.010981489067512
 20
5.512973794337563
 30
0.0
 10
1.01082742890454
 20
5.514661081173933
 30
0.0
  0
ARC
  5
94
330
1F
100
AcDbEntity
  8
0
  6
Continuous
 62
     7
370
    15
100
AcDbCircle
 10
1.570737472899999
 20
5.4607445474
 30
0.0
 40
0.5625000000000005
100
AcDbArc
 50
170.6916409139
 51
174.4996625136
  0
LINE
  5
95
330
1F
100
AcDbEntity
  8
0
  6
Continuous
 62
     7
370
    15
100
AcDbLine
 10
0.9412696918000001
 20
5.594667940299999
 30
0.0
 11
1.0156444004
 21
5.5517276822
 31
0.0
  0
ARC
  5
96
330
1F
100
AcDbEntity
  8
0
  6
Continuous
 62
     7
370
    15
100
AcDbCircle
 10
1.570737472899999
 20
5.2312445474
 30
0.0
 40
0.7268467857808813
100
AcDbArc
 50
117.3042773744
 51
150.0
  0
ARC
  5
97
330
1F
100
AcDbEntity
  8
0
  6
Continuous
 62
     7
370
    15
100
AcDbCircle
 10
1.1795303225
 20
5.9890557009
 30
0.0
 40
0.1259842519685044
100
AcDbArc
 50
297.3042773744
 51
10.0
  0
LINE
  5
98
330
1F
100
AcDbEntity
  8
0
  6
Continuous
 62
     7
370
    15
100
AcDbLine
 10
1.186487605399999
 20
6.675113380499999
 30
0.0
 11
1.3036005906
 21
6.010932636699999
 31
0.0
  0
LINE
  5
99
330
1F
100
AcDbEntity
  8
0
  6
Continuous
 62
     7
370
    15
100
AcDbLine
 10
1.553633761499999
 20
6.010744515099999
 30
0.0
 11
1.393320083999999
 21
6.919928559299999
 31
0.0
  0
ARC
  5
9A
330
1F
100
AcDbEntity
  8
0
  6
Continuous
 62
     7
370
    15
100
AcDbCircle
 10
1.6777040296
 20
6.0326214509
 30
0.0
 40
0.1259842519685044
100
AcDbArc
 50
190.0
 51
262.3971867644
  0
ARC
  5
9B
330
1F
100
AcDbEntity
  8
0
  6
Continuous
 62
     7
370
    15
100
AcDbCircle
 10
1.570737472899999
 20
5.2312445474
 30
0.0
 40
0.6825
100
AcDbArc
 50
0.0
 51
82.39718676439999
  0
LINE
  5
9C
330
1F
100
AcDbEntity
  8
0
  6
Continuous
 62
     7
370
    15
100
AcDbLine
 10
2.084289807199999
 20
5.2312445474
 30
0.0
 11
2.253237472899999
 21
5.2312445474
 31
0.0
  0
ARC
  5
9D
330
1F
100
AcDbEntity
  8
0
  6
Continuous
 62
     7
370
    15
100
AcDbCircle
 10
1.570737472899999
 20
5.4607445474
 30
0.0
 40
0.5625000000000001
100
AcDbArc
 50
310.4009295122001
 51
335.9207402979
  0
ARC
  5
9E
330
1F
100
AcDbEntity
  8
0
  6
Continuous
 62
     7
370
    15
100
AcDbCircle
 10
1.230477857199999
 20
6.8912150811
 30
0.0
 40
0.1653543307086618
100
AcDbArc
 50
10.0
 51
234.7702605175
  0
ARC
  5
9F
330
1F
100
AcDbEntity
  8
0
  6
Continuous
 62
     7
370
    15
100
AcDbCircle
 10
1.0624173373
 20
6.6532364447
 30
0.0
 40
0.125984251968504
100
AcDbArc
 50
10.0
 51
54.7702605175
  0
CIRCLE
  5
AD
330
1F
100
AcDbEntity
  8
0
  6
Continuous
 62
     7
370
    15
100
AcDbCircle
 10
5.339359973799999
 20
5.197158191699999
 30
0.0
 40
0.0826771653543314
  0
ARC
  5
AE
330
1F
100
AcDbEntity
  8
0
  6
Continuous
 62
     7
370
    15
100
AcDbCircle
 10
5.339359973799999
 20
4.9676581917
 30
0.0
 40
0.7268467857808819
100
AcDbArc
 50
117.3042773744
 51
150.0
  0
ARC
  5
AF
330
1F
100
AcDbEntity
  8
0
  6
Continuous
 62
     7
370
    15
100
AcDbCircle
 10
4.9481528233
 20
5.725469345199999
 30
0.0
 40
0.1259842519685041
100
AcDbArc
 50
297.3042773744
 51
10.0
  0
LINE
  5
B0
330
1F
100
AcDbEntity
  8
0
  6
Continuous
 62
     7
370
    15
100
AcDbLine
 10
4.9551101062
 20
6.411527024799999
 30
0.0
 11
5.072223091399999
 21
5.747346281
 31
0.0
  0
ARC
  5
B1
330
1F
100
AcDbEntity
  8
0
  6
Continuous
 62
     7
370
    15
100
AcDbCircle
 10
4.831039838099999
 20
6.389650088999999
 30
0.0
 40
0.125984251968504
100
AcDbArc
 50
10.0
 51
54.7702605175
  0
ARC
  5
B2
330
1F
100
AcDbEntity
  8
0
  6
Continuous
 62
     7
370
    15
100
AcDbCircle
 10
4.999100357999999
 20
6.627628725399999
 30
0.0
 40
0.1653543307086618
100
AcDbArc
 50
10.0
 51
234.7702605175
  0
LINE
  5
B3
330
1F
100
AcDbEntity
  8
0
  6
Continuous
 62
     7
370
    15
100
AcDbLine
 10
5.1619425849
 20
6.6563422036
 30
0.0
 11
5.339359973799999
 21
5.650158191699999
 31
0.0
  0
LINE
  5
B4
330
1F
100
AcDbEntity
  8
0
  6
Continuous
 62
     7
370
    15
100
AcDbLine
 10
5.339359973799999
 20
5.426658191699999
 30
0.0
 11
5.339359973799999
 21
5.650158191699999
 31
0.0
  0
ARC
  5
B5
330
1F
100
AcDbEntity
  8
0
  6
Continuous
 62
     7
370
    15
100
AcDbCircle
 10
5.339359973799999
 20
5.197158191699999
 30
0.0
 40
0.2295000000000007
100
AcDbArc
 50
210.0
 51
90.0
  0
LINE
  5
B6
330
1F
100
AcDbEntity
  8
0
  6
Continuous
 62
     7
370
    15
100
AcDbLine
 10
5.1406071436
 20
5.082408191699999
 30
0.0
 11
4.709892192599999
 21
5.331081584599999
 31
0.0
  0
CIRCLE
  5
B7
330
1F
100
AcDbEntity
  8
0
  6
Continuous
 62
     7
370
    15
100
AcDbCircle
 10
4.999100357999999
 20
6.627628725399999
 30
0.0
 40
0.0826771653543297
  0
INSERT
  5
10E
330
1F
100
AcDbEntity
  8
0
100
AcDbBlockReference
  2
A$C725E16FA
 10
0.1178116384770318
 20
0.0297525032610051
 30
0.0
  0
CIRCLE
  5
118
330
1F
100
AcDbEntity
  8
0
100
AcDbCircle
 10
-2.829707985994989
 20
2.651981903265209
 30
0.0
 40
0.2375
  0
CIRCLE
  5
119
330
1F
100
AcDbEntity
  8
0
100
AcDbCircle
 10
-2.829707985994989
 20
2.651981903265209
 30
0.0
 40
0.0825
  0
INSERT
  5
149
330
1F
100
AcDbEntity
  8
0
100
AcDbBlockReference
  2
A$C192E00E4
 10
11.81703886121148
 20
-0.0529658529910764
 30
0.0
  0
CIRCLE
  5
17E
330
1F
100
AcDbEntity
  8
0
100
AcDbCircle
 10
1.570737472899999
 20
5.4607445474
 30
0.0
 40
0.08
  0
INSERT
  5
184
330
1F
100
AcDbEntity
  8
0
100
AcDbBlockReference
  2
A$C5A450B56
 10
0.8650456387343954
 20
0.980128669720486
 30
0.0
  0
INSERT
  5
193
330
1F
100
AcDbEntity
  8
0
100
AcDbBlockReference
  2
A$C6FD826D6
 10
10.8522827721925
 20
0.0920149533840551
 30
0.0
  0
INSERT
  5
199
330
1F
100
AcDbEntity
  8
0
100
AcDbBlockReference
  2
A$C796F0F0F
 10
1.901432692515363
 20
0.0387833729980223
 30
0.0
  0
INSERT
  5
19A
330
1F
100
AcDbEntity
  8
0
100
AcDbBlockReference
  2
A$C796F0F0F
 10
3.714216738422734
 20
0.0316007292425127
 30
0.0
  0
INSERT
  5
19B
330
1F
100
AcDbEntity
  8
0
100
AcDbBlockReference
  2
A$C796F0F0F
 10
5.498388906480613
 20
0.0273787203732532
 30
0.0
  0
INSERT
  5
19C
330
1F
100
AcDbEntity
  8
0
100
AcDbBlockReference
  2
A$C796F0F0F
 10
7.280510215105721
 20
0.0273787203732532
 30
0.0
  0
INSERT
  5
19D
330
1F
100
AcDbEntity
  8
0
100
AcDbBlockReference
  2
A$C796F0F0F
 10
9.062631523730829
 20
0.0273787203732532
 30
0.0
  0
INSERT
  5
1AA
330
1F
100
AcDbEntity
  8
0
100
AcDbBlockReference
  2
A$C174A79CA
 10
11.48815384750944
 20
1.206080774751608
 30
0.0
  0
INSERT
  5
1AB
330
1F
100
AcDbEntity
  8
0
100
AcDbBlockReference
  2
A$C174A79CA
 10
12.58418176513076
 20
1.25162432168295
 30
0.0
  0
ENDSEC
  0
SECTION
  2
OBJECTS
  0
DICTIONARY
  5
C
330
0
100
AcDbDictionary
281
     1
  3
ACAD_COLOR
350
EF
  3
ACAD_GROUP
350
D
  3
ACAD_LAYOUT
350
1A
  3
ACAD_MATERIAL
350
BD
  3
ACAD_MLEADERSTYLE
350
F2
  3
ACAD_MLINESTYLE
350
17
  3
ACAD_PLOTSETTINGS
350
19
  3
ACAD_PLOTSTYLENAME
350
E
  3
ACAD_SCALELIST
350
47
  3
ACAD_TABLESTYLE
350
F0
  3
ACAD_VISUALSTYLE
350
D6
  3
ACDB_RECOMPOSE_DATA
350
1BF
  3
AcDbVariableDictionary
350
1B8
  0
DICTIONARY
  5
1B4
330
10
100
AcDbDictionary
280
     1
281
     1
  3
ADSK_XREC_LAYER_RECONCILED
360
1B5
  0
DICTIONARY
  5
1B6
330
73
100
AcDbDictionary
280
     1
281
     1
  3
ADSK_XREC_LAYER_RECONCILED
360
1B7
  0
DICTIONARY
  5
EF
102
{ACAD_REACTORS
330
C
102
}
330
C
100
AcDbDictionary
281
     1
  0
DICTIONARY
  5
D
102
{ACAD_REACTORS
330
C
102
}
330
C
100
AcDbDictionary
281
     1
  0
DICTIONARY
  5
1A
102
{ACAD_REACTORS
330
C
102
}
330
C
100
AcDbDictionary
281
     1
  3
Layout1
350
1E
  3
Layout2
350
26
  3
Model
350
22
  0
DICTIONARY
  5
BD
102
{ACAD_REACTORS
330
C
102
}
330
C
100
AcDbDictionary
281
     1
  3
ByBlock
350
C6
  3
ByLayer
350
BE
  3
Global
350
CE
  0
DICTIONARY
  5
F2
102
{ACAD_REACTORS
330
C
102
}
330
C
100
AcDbDictionary
281
     1
  3
Standard
350
F3
  0
DICTIONARY
  5
17
102
{ACAD_REACTORS
330
C
102
}
330
C
100
AcDbDictionary
281
     1
  3
Standard
350
18
  0
DICTIONARY
  5
19
102
{ACAD_REACTORS
330
C
102
}
330
C
100
AcDbDictionary
281
     1
  0
ACDBDICTIONARYWDFLT
  5
E
102
{ACAD_REACTORS
330
C
102
}
330
C
100
AcDbDictionary
281
     1
  3
Normal
350
F
100
AcDbDictionaryWithDefault
340
F
  0
DICTIONARY
  5
47
102
{ACAD_REACTORS
330
C
102
}
330
C
100
AcDbDictionary
281
     1
  3
A0
350
48
  3
A1
350
49
  3
A2
350
4A
  3
A3
350
4B
  3
A4
350
4C
  3
A5
350
4D
  3
A6
350
4E
  3
A7
350
4F
  3
A8
350
50
  3
A9
350
51
  3
B0
350
52
  3
B1
350
53
  3
B2
350
54
  3
B3
350
55
  3
B4
350
56
  3
B5
350
57
  3
B6
350
58
  3
B7
350
59
  3
B8
350
5A
  3
B9
350
5B
  3
C0
350
5C
  3
C1
350
5D
  3
C2
350
5E
  3
C3
350
5F
  3
C4
350
60
  3
C5
350
61
  3
C6
350
62
  3
C7
350
63
  3
C8
350
64
  3
C9
350
65
  3
D0
350
66
  3
D1
350
67
  3
D2
350
68
  0
DICTIONARY
  5
F0
102
{ACAD_REACTORS
330
C
102
}
330
C
100
AcDbDictionary
281
     1
  3
Standard
350
F1
  0
DICTIONARY
  5
D6
102
{ACAD_REACTORS
330
C
102
}
330
C
100
AcDbDictionary
281
     1
  3
2dWireframe
350
DC
  3
Basic
350
DB
  3
Brighten
350
E2
  3
ColorChange
350
E6
  3
Conceptual
350
DF
  3
Dim
350
E1
  3
EdgeColorOff
350
EE
  3
Facepattern
350
E5
  3
Flat
350
D7
  3
FlatWithEdges
350
D8
  3
Gouraud
350
D9
  3
GouraudWithEdges
350
DA
  3
Hidden
350
DE
  3
JitterOff
350
EC
  3
Linepattern
350
E4
  3
OverhangOff
350
ED
  3
Realistic
350
E0
  3
Shaded
350
EB
  3
Shaded with edges
350
EA
  3
Shades of Gray
350
E7
  3
Sketchy
350
E8
  3
Thicken
350
E3
  3
Wireframe
350
DD
  3
X-Ray
350
E9
  0
XRECORD
  5
1BF
102
{ACAD_REACTORS
330
C
102
}
330
C
100
AcDbXrecord
280
     1
 90
        1
330
F1
  0
DICTIONARY
  5
1B8
102
{ACAD_REACTORS
330
C
102
}
330
C
100
AcDbDictionary
281
     1
  3
CANNOSCALE
350
1BB
  3
CMLEADERSTYLE
350
1BA
  3
CTABLESTYLE
350
1B9
  3
XCLIPFRAME
350
1BC
  0
XRECORD
  5
1B5
102
{ACAD_REACTORS
330
1B4
102
}
330
1B4
100
AcDbXrecord
280
     1
290
     1
  0
XRECORD
  5
1B7
102
{ACAD_REACTORS
330
1B6
102
}
330
1B6
100
AcDbXrecord
280
     1
290
     1
  0
LAYOUT
  5
1E
102
{ACAD_REACTORS
330
1A
102
}
330
1A
100
AcDbPlotSettings
  1

  2
none_device
  4

  6

 40
0.0
 41
0.0
 42
0.0
 43
0.0
 44
0.0
 45
0.0
 46
0.0
 47
0.0
 48
0.0
 49
0.0
140
0.0
141
0.0
142
1.0
143
1.0
 70
   688
 72
     0
 73
     0
 74
     5
  7

 75
    16
147
1.0
 76
     0
 77
     2
 78
   300
148
0.0
149
0.0
100
AcDbLayout
  1
Layout1
 70
     1
 71
     1
 10
0.0
 20
0.0
 11
12.0
 21
9.0
 12
0.0
 22
0.0
 32
0.0
 14
1.000000000000000E+20
 24
1.000000000000000E+20
 34
1.000000000000000E+20
 15
-1.000000000000000E+20
 25
-1.000000000000000E+20
 35
-1.000000000000000E+20
146
0.0
 13
0.0
 23
0.0
 33
0.0
 16
1.0
 26
0.0
 36
0.0
 17
0.0
 27
1.0
 37
0.0
 76
     0
330
1B
  0
LAYOUT
  5
26
102
{ACAD_REACTORS
330
1A
102
}
330
1A
100
AcDbPlotSettings
  1

  2
none_device
  4

  6

 40
0.0
 41
0.0
 42
0.0
 43
0.0
 44
0.0
 45
0.0
 46
0.0
 47
0.0
 48
0.0
 49
0.0
140
0.0
141
0.0
142
1.0
143
1.0
 70
   688
 72
     0
 73
     0
 74
     5
  7

 75
    16
147
1.0
 76
     0
 77
     2
 78
   300
148
0.0
149
0.0
100
AcDbLayout
  1
Layout2
 70
     1
 71
     2
 10
0.0
 20
0.0
 11
0.0
 21
0.0
 12
0.0
 22
0.0
 32
0.0
 14
0.0
 24
0.0
 34
0.0
 15
0.0
 25
0.0
 35
0.0
146
0.0
 13
0.0
 23
0.0
 33
0.0
 16
1.0
 26
0.0
 36
0.0
 17
0.0
 27
1.0
 37
0.0
 76
     0
330
23
  0
LAYOUT
  5
22
102
{ACAD_REACTORS
330
1A
102
}
330
1A
100
AcDbPlotSettings
  1

  2
none_device
  4
Letter_(8.50_x_11.00_Inches)
  6

 40
6.349999999999999
 41
6.349999999999999
 42
6.350005079999999
 43
6.350005079999999
 44
215.9
 45
279.4
 46
0.0
 47
0.0
 48
0.0
 49
0.0
140
0.0
141
0.0
142
1.0
143
1.0
 70
  1712
 72
     0
 73
     0
 74
     0
  7

 75
     0
147
1.0
 76
     0
 77
     2
 78
   300
148
0.0
149
0.0
100
AcDbLayout
  1
Model
 70
     1
 71
     0
 10
0.0
 20
0.0
 11
11.0
 21
8.5
 12
0.0
 22
0.0
 32
0.0
 14
0.0
 24
0.0
 34
0.0
 15
11.0
 25
8.5
 35
0.0
146
0.0
 13
0.0
 23
0.0
 33
0.0
 16
1.0
 26
0.0
 36
0.0
 17
0.0
 27
1.0
 37
0.0
 76
     0
330
1F
331
29
  0
MATERIAL
  5
C6
102
{ACAD_XDICTIONARY
360
C7
102
}
102
{ACAD_REACTORS
330
BD
102
}
330
BD
100
AcDbMaterial
  1
ByBlock
 72
     0
 43
0.0208333333333333
 43
0.0
 43
0.0
 43
0.0
 43
0.0
 43
0.0208333333333333
 43
0.0
 43
0.0
 43
0.0
 43
0.0
 43
1.0
 43
0.0
 43
0.0
 43
0.0
 43
0.0
 43
1.0
 77
     0
 47
0.0208333333333333
 47
0.0
 47
0.0
 47
0.0
 47
0.0
 47
0.0208333333333333
 47
0.0
 47
0.0
 47
0.0
 47
0.0
 47
1.0
 47
0.0
 47
0.0
 47
0.0
 47
0.0
 47
1.0
171
     0
 49
0.0208333333333333
 49
0.0
 49
0.0
 49
0.0
 49
0.0
 49
0.0208333333333333
 49
0.0
 49
0.0
 49
0.0
 49
0.0
 49
1.0
 49
0.0
 49
0.0
 49
0.0
 49
0.0
 49
1.0
175
     0
142
0.0208333333333333
142
0.0
142
0.0
142
0.0
142
0.0
142
0.0208333333333333
142
0.0
142
0.0
142
0.0
142
0.0
142
1.0
142
0.0
142
0.0
142
0.0
142
0.0
142
1.0
179
     0
144
0.0208333333333333
144
0.0
144
0.0
144
0.0
144
0.0
144
0.0208333333333333
144
0.0
144
0.0
144
0.0
144
0.0
144
1.0
144
0.0
144
0.0
144
0.0
144
0.0
144
1.0
147
0.0208333333333333
147
0.0
147
0.0
147
0.0
147
0.0
147
0.0208333333333333
147
0.0
147
0.0
147
0.0
147
0.0
147
1.0
147
0.0
147
0.0
147
0.0
147
0.0
147
1.0
  0
MATERIAL
  5
BE
102
{ACAD_XDICTIONARY
360
BF
102
}
102
{ACAD_REACTORS
330
BD
102
}
330
BD
100
AcDbMaterial
  1
ByLayer
 72
     0
 43
0.0208333333333333
 43
0.0
 43
0.0
 43
0.0
 43
0.0
 43
0.0208333333333333
 43
0.0
 43
0.0
 43
0.0
 43
0.0
 43
1.0
 43
0.0
 43
0.0
 43
0.0
 43
0.0
 43
1.0
 77
     0
 47
0.0208333333333333
 47
0.0
 47
0.0
 47
0.0
 47
0.0
 47
0.0208333333333333
 47
0.0
 47
0.0
 47
0.0
 47
0.0
 47
1.0
 47
0.0
 47
0.0
 47
0.0
 47
0.0
 47
1.0
171
     0
 49
0.0208333333333333
 49
0.0
 49
0.0
 49
0.0
 49
0.0
 49
0.0208333333333333
 49
0.0
 49
0.0
 49
0.0
 49
0.0
 49
1.0
 49
0.0
 49
0.0
 49
0.0
 49
0.0
 49
1.0
175
     0
142
0.0208333333333333
142
0.0
142
0.0
142
0.0
142
0.0
142
0.0208333333333333
142
0.0
142
0.0
142
0.0
142
0.0
142
1.0
142
0.0
142
0.0
142
0.0
142
0.0
142
1.0
179
     0
144
0.0208333333333333
144
0.0
144
0.0
144
0.0
144
0.0
144
0.0208333333333333
144
0.0
144
0.0
144
0.0
144
0.0
144
1.0
144
0.0
144
0.0
144
0.0
144
0.0
144
1.0
147
0.0208333333333333
147
0.0
147
0.0
147
0.0
147
0.0
147
0.0208333333333333
147
0.0
147
0.0
147
0.0
147
0.0
147
1.0
147
0.0
147
0.0
147
0.0
147
0.0
147
1.0
  0
MATERIAL
  5
CE
102
{ACAD_XDICTIONARY
360
CF
102
}
102
{ACAD_REACTORS
330
BD
102
}
330
BD
100
AcDbMaterial
  1
Global
 72
     0
 43
0.0208333333333333
 43
0.0
 43
0.0
 43
0.0
 43
0.0
 43
0.0208333333333333
 43
0.0
 43
0.0
 43
0.0
 43
0.0
 43
1.0
 43
0.0
 43
0.0
 43
0.0
 43
0.0
 43
1.0
 77
     0
 47
0.0208333333333333
 47
0.0
 47
0.0
 47
0.0
 47
0.0
 47
0.0208333333333333
 47
0.0
 47
0.0
 47
0.0
 47
0.0
 47
1.0
 47
0.0
 47
0.0
 47
0.0
 47
0.0
 47
1.0
171
     0
 49
0.0208333333333333
 49
0.0
 49
0.0
 49
0.0
 49
0.0
 49
0.0208333333333333
 49
0.0
 49
0.0
 49
0.0
 49
0.0
 49
1.0
 49
0.0
 49
0.0
 49
0.0
 49
0.0
 49
1.0
175
     0
142
0.0208333333333333
142
0.0
142
0.0
142
0.0
142
0.0
142
0.0208333333333333
142
0.0
142
0.0
142
0.0
142
0.0
142
1.0
142
0.0
142
0.0
142
0.0
142
0.0
142
1.0
179
     0
144
0.0208333333333333
144
0.0
144
0.0
144
0.0
144
0.0
144
0.0208333333333333
144
0.0
144
0.0
144
0.0
144
0.0
144
1.0
144
0.0
144
0.0
144
0.0
144
0.0
144
1.0
147
0.0208333333333333
147
0.0
147
0.0
147
0.0
147
0.0
147
0.0208333333333333
147
0.0
147
0.0
147
0.0
147
0.0
147
1.0
147
0.0
147
0.0
147
0.0
147
0.0
147
1.0
  0
MLEADERSTYLE
  5
F3
102
{ACAD_REACTORS
330
F2
102
}
330
F2
100
AcDbMLeaderStyle
170
     2
171
     1
172
     0
 90
        2
 40
0.0
 41
0.0
173
     1
 91
-1056964608
340
14
 92
       -2
290
     1
 42
0.09
291
     1
 43
0.36
  3
Standard
 44
0.18
300

342
11
174
     1
178
     6
175
     1
176
     0
 93
-1056964608
 45
0.18
292
     0
297
     0
 46
0.18
 94
-1056964608
 47
1.0
 49
1.0
140
1.0
293
     1
141
0.0
294
     1
177
     0
142
1.0
295
     0
296
     0
143
0.125
1001
ACAD_MLEADERVER
1070
     2
  0
MLINESTYLE
  5
18
102
{ACAD_REACTORS
330
17
102
}
330
17
100
AcDbMlineStyle
  2
STANDARD
 70
     0
  3

 62
   256
 51
90.0
 52
90.0
 71
     2
 49
0.5
 62
   256
  6
BYLAYER
 49
-0.5
 62
   256
  6
BYLAYER
  0
ACDBPLACEHOLDER
  5
F
102
{ACAD_REACTORS
330
E
102
}
330
E
  0
SCALE
  5
48
102
{ACAD_REACTORS
330
47
102
}
330
47
100
AcDbScale
 70
     0
300
1:1
140
1.0
141
1.0
290
     1
  0
SCALE
  5
49
102
{ACAD_REACTORS
330
47
102
}
330
47
100
AcDbScale
 70
     0
300
1:2
140
1.0
141
2.0
290
     0
  0
SCALE
  5
4A
102
{ACAD_REACTORS
330
47
102
}
330
47
100
AcDbScale
 70
     0
300
1:4
140
1.0
141
4.0
290
     0
  0
SCALE
  5
4B
102
{ACAD_REACTORS
330
47
102
}
330
47
100
AcDbScale
 70
     0
300
1:5
140
1.0
141
5.0
290
     0
  0
SCALE
  5
4C
102
{ACAD_REACTORS
330
47
102
}
330
47
100
AcDbScale
 70
     0
300
1:8
140
1.0
141
8.0
290
     0
  0
SCALE
  5
4D
102
{ACAD_REACTORS
330
47
102
}
330
47
100
AcDbScale
 70
     0
300
1:10
140
1.0
141
10.0
290
     0
  0
SCALE
  5
4E
102
{ACAD_REACTORS
330
47
102
}
330
47
100
AcDbScale
 70
     0
300
1:16
140
1.0
141
16.0
290
     0
  0
SCALE
  5
4F
102
{ACAD_REACTORS
330
47
102
}
330
47
100
AcDbScale
 70
     0
300
1:20
140
1.0
141
20.0
290
     0
  0
SCALE
  5
50
102
{ACAD_REACTORS
330
47
102
}
330
47
100
AcDbScale
 70
     0
300
1:30
140
1.0
141
30.0
290
     0
  0
SCALE
  5
51
102
{ACAD_REACTORS
330
47
102
}
330
47
100
AcDbScale
 70
     0
300
1:40
140
1.0
141
40.0
290
     0
  0
SCALE
  5
52
102
{ACAD_REACTORS
330
47
102
}
330
47
100
AcDbScale
 70
     0
300
1:50
140
1.0
141
50.0
290
     0
  0
SCALE
  5
53
102
{ACAD_REACTORS
330
47
102
}
330
47
100
AcDbScale
 70
     0
300
1:100
140
1.0
141
100.0
290
     0
  0
SCALE
  5
54
102
{ACAD_REACTORS
330
47
102
}
330
47
100
AcDbScale
 70
     0
300
2:1
140
2.0
141
1.0
290
     0
  0
SCALE
  5
55
102
{ACAD_REACTORS
330
47
102
}
330
47
100
AcDbScale
 70
     0
300
4:1
140
4.0
141
1.0
290
     0
  0
SCALE
  5
56
102
{ACAD_REACTORS
330
47
102
}
330
47
100
AcDbScale
 70
     0
300
8:1
140
8.0
141
1.0
290
     0
  0
SCALE
  5
57
102
{ACAD_REACTORS
330
47
102
}
330
47
100
AcDbScale
 70
     0
300
10:1
140
10.0
141
1.0
290
     0
  0
SCALE
  5
58
102
{ACAD_REACTORS
330
47
102
}
330
47
100
AcDbScale
 70
     0
300
100:1
140
100.0
141
1.0
290
     0
  0
SCALE
  5
59
102
{ACAD_REACTORS
330
47
102
}
330
47
100
AcDbScale
 70
     0
300
1/128" = 1'-0"
140
0.0078125
141
12.0
290
     0
  0
SCALE
  5
5A
102
{ACAD_REACTORS
330
47
102
}
330
47
100
AcDbScale
 70
     0
300
1/64" = 1'-0"
140
0.015625
141
12.0
290
     0
  0
SCALE
  5
5B
102
{ACAD_REACTORS
330
47
102
}
330
47
100
AcDbScale
 70
     0
300
1/32" = 1'-0"
140
0.03125
141
12.0
290
     0
  0
SCALE
  5
5C
102
{ACAD_REACTORS
330
47
102
}
330
47
100
AcDbScale
 70
     0
300
1/16" = 1'-0"
140
0.0625
141
12.0
290
     0
  0
SCALE
  5
5D
102
{ACAD_REACTORS
330
47
102
}
330
47
100
AcDbScale
 70
     0
300
3/32" = 1'-0"
140
0.09375
141
12.0
290
     0
  0
SCALE
  5
5E
102
{ACAD_REACTORS
330
47
102
}
330
47
100
AcDbScale
 70
     0
300
1/8" = 1'-0"
140
0.125
141
12.0
290
     0
  0
SCALE
  5
5F
102
{ACAD_REACTORS
330
47
102
}
330
47
100
AcDbScale
 70
     0
300
3/16" = 1'-0"
140
0.1875
141
12.0
290
     0
  0
SCALE
  5
60
102
{ACAD_REACTORS
330
47
102
}
330
47
100
AcDbScale
 70
     0
300
1/4" = 1'-0"
140
0.25
141
12.0
290
     0
  0
SCALE
  5
61
102
{ACAD_REACTORS
330
47
102
}
330
47
100
AcDbScale
 70
     0
300
3/8" = 1'-0"
140
0.375
141
12.0
290
     0
  0
SCALE
  5
62
102
{ACAD_REACTORS
330
47
102
}
330
47
100
AcDbScale
 70
     0
300
1/2" = 1'-0"
140
0.5
141
12.0
290
     0
  0
SCALE
  5
63
102
{ACAD_REACTORS
330
47
102
}
330
47
100
AcDbScale
 70
     0
300
3/4" = 1'-0"
140
0.75
141
12.0
290
     0
  0
SCALE
  5
64
102
{ACAD_REACTORS
330
47
102
}
330
47
100
AcDbScale
 70
     0
300
1" = 1'-0"
140
1.0
141
12.0
290
     0
  0
SCALE
  5
65
102
{ACAD_REACTORS
330
47
102
}
330
47
100
AcDbScale
 70
     0
300
1-1/2" = 1'-0"
140
1.5
141
12.0
290
     0
  0
SCALE
  5
66
102
{ACAD_REACTORS
330
47
102
}
330
47
100
AcDbScale
 70
     0
300
3" = 1'-0"
140
3.0
141
12.0
290
     0
  0
SCALE
  5
67
102
{ACAD_REACTORS
330
47
102
}
330
47
100
AcDbScale
 70
     0
300
6" = 1'-0"
140
6.0
141
12.0
290
     0
  0
SCALE
  5
68
102
{ACAD_REACTORS
330
47
102
}
330
47
100
AcDbScale
 70
     0
300
1'-0" = 1'-0"
140
12.0
141
12.0
290
     0
  0
TABLESTYLE
  5
F1
102
{ACAD_XDICTIONARY
360
1BD
102
}
102
{ACAD_REACTORS
330
F0
102
}
330
F0
100
AcDbTableStyle
  3
Standard
 70
     0
 71
     0
 40
0.06
 41
0.06
280
     0
281
     0
  7
Standard
140
0.18
170
     2
 62
     0
 63
     7
283
     0
274
    -2
284
     1
 64
     0
275
    -2
285
     1
 65
     0
276
    -2
286
     1
 66
     0
277
    -2
287
     1
 67
     0
278
    -2
288
     1
 68
     0
279
    -2
289
     1
 69
     0
  7
Standard
140
0.25
170
     5
 62
     0
 63
     7
283
     0
274
    -2
284
     1
 64
     0
275
    -2
285
     1
 65
     0
276
    -2
286
     1
 66
     0
277
    -2
287
     1
 67
     0
278
    -2
288
     1
 68
     0
279
    -2
289
     1
 69
     0
  7
Standard
140
0.18
170
     5
 62
     0
 63
     7
283
     0
274
    -2
284
     1
 64
     0
275
    -2
285
     1
 65
     0
276
    -2
286
     1
 66
     0
277
    -2
287
     1
 67
     0
278
    -2
288
     1
 68
     0
279
    -2
289
     1
 69
     0
  0
VISUALSTYLE
  5
DC
102
{ACAD_XDICTIONARY
360
1CD
102
}
102
{ACAD_REACTORS
330
D6
102
}
330
D6
100
AcDbVisualStyle
  2
2dWireframe
 70
     4
 71
     0
 72
     2
 73
     0
 90
        0
 40
-0.6
 41
-30.0
 62
     5
 63
     7
421
 16777215
 74
     1
 91
        4
 64
     7
 65
   257
 75
     1
175
     1
 42
1.0
 92
        0
 66
   257
 43
1.0
 76
     1
 77
     6
 78
     2
 67
     7
 79
     5
170
     0
171
     0
290
     0
174
     0
 93
        1
 44
0.0
173
     0
291
     0
 45
0.0
1001
ACAD
1000
AcDbSavedByObjectVersion
1070
     0
  0
VISUALSTYLE
  5
DB
102
{ACAD_XDICTIONARY
360
1CB
102
}
102
{ACAD_REACTORS
330
D6
102
}
330
D6
100
AcDbVisualStyle
  2
Basic
 70
     7
 71
     1
 72
     0
 73
     1
 90
        0
 40
-0.6
 41
-30.0
 62
     5
 63
     7
421
 16777215
 74
     0
 91
        4
 64
     7
 65
   257
 75
     1
175
     1
 42
1.0
 92
        8
 66
     7
 43
1.0
 76
     1
 77
     6
 78
     2
 67
     7
 79
     5
170
     0
171
     0
290
     0
174
     0
 93
        1
 44
0.0
173
     0
291
     1
 45
0.0
1001
ACAD
1000
AcDbSavedByObjectVersion
1070
     0
  0
VISUALSTYLE
  5
E2
102
{ACAD_XDICTIONARY
360
1D9
102
}
102
{ACAD_REACTORS
330
D6
102
}
330
D6
100
AcDbVisualStyle
  2
Brighten
 70
    12
 71
     2
 72
     2
 73
     0
 90
        0
 40
-0.6
 41
-30.0
 62
     5
 63
     7
421
 16777215
 74
     1
 91
        4
 64
     7
 65
   257
 75
     1
175
     1
 42
1.0
 92
        8
 66
     7
 43
1.0
 76
     1
 77
     6
 78
     2
 67
     7
 79
     5
170
     0
171
     0
290
     0
174
     0
 93
        1
 44
50.0
173
     0
291
     1
 45
0.0
1001
ACAD
1000
AcDbSavedByObjectVersion
1070
     0
  0
VISUALSTYLE
  5
E6
102
{ACAD_XDICTIONARY
360
1E1
102
}
102
{ACAD_REACTORS
330
D6
102
}
330
D6
100
AcDbVisualStyle
  2
ColorChange
 70
    16
 71
     2
 72
     2
 73
     3
 90
        0
 40
-0.6
 41
-30.0
 62
     5
 63
     8
421
  8421504
 74
     1
 91
        4
 64
     7
 65
   257
 75
     1
175
     1
 42
1.0
 92
        8
 66
     8
424
  8421504
 43
1.0
 76
     1
 77
     6
 78
     2
 67
     7
 79
     5
170
     0
171
     0
290
     0
174
     0
 93
        1
 44
0.0
173
     0
291
     1
 45
0.0
1001
ACAD
1000
AcDbSavedByObjectVersion
1070
     0
  0
VISUALSTYLE
  5
DF
102
{ACAD_XDICTIONARY
360
1D3
102
}
102
{ACAD_REACTORS
330
D6
102
}
330
D6
100
AcDbVisualStyle
  2
Conceptual
 70
     9
 71
     3
 72
     2
 73
     0
 90
        0
 40
-0.6
 41
-30.0
 62
     5
 63
     7
421
 16777215
 74
     2
 91
        2
 64
     7
 65
   257
 75
     1
175
     1
 42
179.0
 92
        8
 66
     7
 43
1.0
 76
     1
 77
     6
 78
     2
 67
     7
 79
     3
170
     0
171
     0
290
     0
174
     0
 93
        1
 44
0.0
173
     0
291
     0
 45
0.0
1001
ACAD
1000
AcDbSavedByObjectVersion
1070
     0
  0
VISUALSTYLE
  5
E1
102
{ACAD_XDICTIONARY
360
1D7
102
}
102
{ACAD_REACTORS
330
D6
102
}
330
D6
100
AcDbVisualStyle
  2
Dim
 70
    11
 71
     2
 72
     2
 73
     0
 90
        0
 40
-0.6
 41
-30.0
 62
     5
 63
     7
421
 16777215
 74
     1
 91
        4
 64
     7
 65
   257
 75
     1
175
     1
 42
1.0
 92
        8
 66
     7
 43
1.0
 76
     1
 77
     6
 78
     2
 67
     7
 79
     5
170
     0
171
     0
290
     0
174
     0
 93
        1
 44
-50.0
173
     0
291
     1
 45
0.0
1001
ACAD
1000
AcDbSavedByObjectVersion
1070
     0
  0
VISUALSTYLE
  5
EE
102
{ACAD_XDICTIONARY
360
1F1
102
}
102
{ACAD_REACTORS
330
D6
102
}
330
D6
100
AcDbVisualStyle
  2
EdgeColorOff
 70
    22
 71
     2
 72
     2
 73
     0
 90
        0
 40
-0.6
 41
-30.0
 62
     5
 63
     7
421
 16777215
 74
     1
 91
        4
 64
     7
 65
   257
 75
     1
175
     1
 42
1.0
 92
        8
 66
     7
 43
1.0
 76
     1
 77
     6
 78
     2
 67
     7
 79
     5
170
     0
171
     0
290
     0
174
     0
 93
        1
 44
0.0
173
     0
291
     1
 45
0.0
1001
ACAD
1000
AcDbSavedByObjectVersion
1070
     0
  0
VISUALSTYLE
  5
E5
102
{ACAD_XDICTIONARY
360
1DF
102
}
102
{ACAD_REACTORS
330
D6
102
}
330
D6
100
AcDbVisualStyle
  2
Facepattern
 70
    15
 71
     2
 72
     2
 73
     0
 90
        0
 40
-0.6
 41
-30.0
 62
     5
 63
     7
421
 16777215
 74
     1
 91
        4
 64
     7
 65
   257
 75
     1
175
     1
 42
1.0
 92
        8
 66
     7
 43
1.0
 76
     1
 77
     6
 78
     2
 67
     7
 79
     5
170
     0
171
     0
290
     0
174
     0
 93
        1
 44
0.0
173
     0
291
     1
 45
0.0
1001
ACAD
1000
AcDbSavedByObjectVersion
1070
     0
  0
VISUALSTYLE
  5
D7
102
{ACAD_XDICTIONARY
360
1C3
102
}
102
{ACAD_REACTORS
330
D6
102
}
330
D6
100
AcDbVisualStyle
  2
Flat
 70
     0
 71
     2
 72
     1
 73
     1
 90
        2
 40
-0.6
 41
30.0
 62
     5
 63
     7
421
 16777215
 74
     0
 91
        0
 64
     7
 65
   257
 75
     1
175
     1
 42
1.0
 92
        8
 66
     7
 43
1.0
 76
     1
 77
     6
 78
     2
 67
     7
 79
     5
170
     0
171
     0
290
     0
174
     0
 93
       13
 44
0.0
173
     0
291
     1
 45
0.0
1001
ACAD
1000
AcDbSavedByObjectVersion
1070
     0
  0
VISUALSTYLE
  5
D8
102
{ACAD_XDICTIONARY
360
1C5
102
}
102
{ACAD_REACTORS
330
D6
102
}
330
D6
100
AcDbVisualStyle
  2
FlatWithEdges
 70
     1
 71
     2
 72
     1
 73
     1
 90
        2
 40
-0.6
 41
30.0
 62
     5
 63
     7
421
 16777215
 74
     1
 91
        0
 64
     7
 65
   257
 75
     1
175
     1
 42
1.0
 92
        0
 66
   257
 43
1.0
 76
     1
 77
     6
 78
     2
 67
     7
 79
     5
170
     0
171
     0
290
     0
174
     0
 93
       13
 44
0.0
173
     0
291
     1
 45
0.0
1001
ACAD
1000
AcDbSavedByObjectVersion
1070
     0
  0
VISUALSTYLE
  5
D9
102
{ACAD_XDICTIONARY
360
1C7
102
}
102
{ACAD_REACTORS
330
D6
102
}
330
D6
100
AcDbVisualStyle
  2
Gouraud
 70
     2
 71
     2
 72
     2
 73
     1
 90
        2
 40
-0.6
 41
30.0
 62
     5
 63
     7
421
 16777215
 74
     0
 91
        0
 64
     7
 65
   257
 75
     1
175
     1
 42
1.0
 92
        0
 66
     7
 43
1.0
 76
     1
 77
     6
 78
     2
 67
     7
 79
     5
170
     0
171
     0
290
     0
174
     0
 93
       13
 44
0.0
173
     0
291
     1
 45
0.0
1001
ACAD
1000
AcDbSavedByObjectVersion
1070
     0
  0
VISUALSTYLE
  5
DA
102
{ACAD_XDICTIONARY
360
1C9
102
}
102
{ACAD_REACTORS
330
D6
102
}
330
D6
100
AcDbVisualStyle
  2
GouraudWithEdges
 70
     3
 71
     2
 72
     2
 73
     1
 90
        2
 40
-0.6
 41
30.0
 62
     5
 63
     7
421
 16777215
 74
     1
 91
        0
 64
     7
 65
   257
 75
     1
175
     1
 42
1.0
 92
        0
 66
   257
 43
1.0
 76
     1
 77
     6
 78
     2
 67
     7
 79
     5
170
     0
171
     0
290
     0
174
     0
 93
       13
 44
0.0
173
     0
291
     1
 45
0.0
1001
ACAD
1000
AcDbSavedByObjectVersion
1070
     0
  0
VISUALSTYLE
  5
DE
102
{ACAD_XDICTIONARY
360
1D1
102
}
102
{ACAD_REACTORS
330
D6
102
}
330
D6
100
AcDbVisualStyle
  2
Hidden
 70
     6
 71
     1
 72
     2
 73
     2
 90
        0
 40
-0.6
 41
-30.0
 62
     5
 63
     7
421
 16777215
 74
     2
 91
        2
 64
     7
 65
   257
 75
     2
175
     1
 42
40.0
 92
        0
 66
   257
 43
1.0
 76
     1
 77
     6
 78
     2
 67
     7
 79
     3
170
     0
171
     0
290
     0
174
     0
 93
        1
 44
0.0
173
     0
291
     0
 45
0.0
1001
ACAD
1000
AcDbSavedByObjectVersion
1070
     0
  0
VISUALSTYLE
  5
EC
102
{ACAD_XDICTIONARY
360
1ED
102
}
102
{ACAD_REACTORS
330
D6
102
}
330
D6
100
AcDbVisualStyle
  2
JitterOff
 70
    20
 71
     2
 72
     2
 73
     0
 90
        0
 40
-0.6
 41
-30.0
 62
     5
 63
     7
421
 16777215
 74
     1
 91
        4
 64
     7
 65
   257
 75
     1
175
     1
 42
1.0
 92
       10
 66
     7
 43
1.0
 76
     1
 77
     6
 78
     2
 67
     7
 79
     5
170
     0
171
     0
290
     0
174
     0
 93
        1
 44
0.0
173
     0
291
     1
 45
0.0
1001
ACAD
1000
AcDbSavedByObjectVersion
1070
     0
  0
VISUALSTYLE
  5
E4
102
{ACAD_XDICTIONARY
360
1DD
102
}
102
{ACAD_REACTORS
330
D6
102
}
330
D6
100
AcDbVisualStyle
  2
Linepattern
 70
    14
 71
     2
 72
     2
 73
     0
 90
        0
 40
-0.6
 41
-30.0
 62
     5
 63
     7
421
 16777215
 74
     1
 91
        4
 64
     7
 65
   257
 75
     7
175
     7
 42
1.0
 92
        8
 66
     7
 43
1.0
 76
     1
 77
     6
 78
     2
 67
     7
 79
     5
170
     0
171
     0
290
     0
174
     0
 93
        1
 44
0.0
173
     0
291
     1
 45
0.0
1001
ACAD
1000
AcDbSavedByObjectVersion
1070
     0
  0
VISUALSTYLE
  5
ED
102
{ACAD_XDICTIONARY
360
1EF
102
}
102
{ACAD_REACTORS
330
D6
102
}
330
D6
100
AcDbVisualStyle
  2
OverhangOff
 70
    21
 71
     2
 72
     2
 73
     0
 90
        0
 40
-0.6
 41
-30.0
 62
     5
 63
     7
421
 16777215
 74
     1
 91
        4
 64
     7
 65
   257
 75
     1
175
     1
 42
1.0
 92
        9
 66
     7
 43
1.0
 76
     1
 77
     6
 78
     2
 67
     7
 79
     5
170
     0
171
     0
290
     0
174
     0
 93
        1
 44
0.0
173
     0
291
     1
 45
0.0
1001
ACAD
1000
AcDbSavedByObjectVersion
1070
     0
  0
VISUALSTYLE
  5
E0
102
{ACAD_XDICTIONARY
360
1D5
102
}
102
{ACAD_REACTORS
330
D6
102
}
330
D6
100
AcDbVisualStyle
  2
Realistic
 70
     8
 71
     2
 72
     3
 73
     0
 90
        2
 40
-0.6
 41
30.0
 62
     5
 63
     7
421
 16777215
 74
     0
 91
        0
 64
     7
 65
   257
 75
     1
175
     1
 42
1.0
 92
        8
 66
   257
 43
1.0
 76
     1
 77
     6
 78
     2
 67
     7
 79
     3
170
     0
171
     0
290
     0
174
     0
 93
       13
 44
0.0
173
     0
291
     0
 45
0.0
1001
ACAD
1000
AcDbSavedByObjectVersion
1070
     0
  0
VISUALSTYLE
  5
EB
102
{ACAD_XDICTIONARY
360
1EB
102
}
102
{ACAD_REACTORS
330
D6
102
}
330
D6
100
AcDbVisualStyle
  2
Shaded
 70
    27
 71
     2
 72
     2
 73
     1
 90
        2
 40
-0.6
 41
30.0
 62
     5
 63
     7
421
 16777215
 74
     0
 91
        4
 64
     7
 65
   257
 75
     1
175
     1
 42
1.0
 92
        8
 66
   257
 43
1.0
 76
     1
 77
     6
 78
     2
 67
     8
425
  7895160
 79
     3
170
     0
171
     0
290
     0
174
     0
 93
        5
 44
0.0
173
     0
291
     0
 45
0.0
1001
ACAD
1000
AcDbSavedByObjectVersion
1070
     0
  0
VISUALSTYLE
  5
EA
102
{ACAD_XDICTIONARY
360
1E9
102
}
102
{ACAD_REACTORS
330
D6
102
}
330
D6
100
AcDbVisualStyle
  2
Shaded with edges
 70
    26
 71
     2
 72
     2
 73
     1
 90
        2
 40
-0.6
 41
30.0
 62
     5
 63
     7
421
 16777215
 74
     1
 91
       10
 64
     7
 65
   257
 75
     2
175
     1
 42
1.0
 92
        8
 66
   257
 43
1.0
 76
     1
 77
     6
 78
     2
 67
     7
 79
     3
170
     0
171
     0
290
     0
174
     0
 93
        5
 44
0.0
173
     0
291
     0
 45
0.0
1001
ACAD
1000
AcDbSavedByObjectVersion
1070
     0
  0
VISUALSTYLE
  5
E7
102
{ACAD_XDICTIONARY
360
1E3
102
}
102
{ACAD_REACTORS
330
D6
102
}
330
D6
100
AcDbVisualStyle
  2
Shades of Gray
 70
    23
 71
     2
 72
     2
 73
     3
 90
        0
 40
-0.6
 41
-30.0
 62
     5
 63
     7
421
 16777215
 74
     2
 91
        2
 64
     7
 65
     7
 75
     1
175
     1
 42
40.0
 92
        8
 66
     7
 43
1.0
 76
     1
 77
     6
 78
     2
 67
     7
 79
     3
170
     0
171
     0
290
     0
174
     0
 93
        1
 44
0.0
173
     0
291
     0
 45
0.0
1001
ACAD
1000
AcDbSavedByObjectVersion
1070
     0
  0
VISUALSTYLE
  5
E8
102
{ACAD_XDICTIONARY
360
1E5
102
}
102
{ACAD_REACTORS
330
D6
102
}
330
D6
100
AcDbVisualStyle
  2
Sketchy
 70
    24
 71
     1
 72
     2
 73
     2
 90
        0
 40
-0.6
 41
-30.0
 62
     5
 63
     7
421
 16777215
 74
     2
 91
        2
 64
     7
 65
     7
 75
     1
175
     1
 42
40.0
 92
       11
 66
     7
 43
1.0
 76
     1
 77
     6
 78
     2
 67
     7
 79
     6
170
     0
171
     0
290
     0
174
     0
 93
        1
 44
0.0
173
     0
291
     0
 45
0.0
1001
ACAD
1000
AcDbSavedByObjectVersion
1070
     0
  0
VISUALSTYLE
  5
E3
102
{ACAD_XDICTIONARY
360
1DB
102
}
102
{ACAD_REACTORS
330
D6
102
}
330
D6
100
AcDbVisualStyle
  2
Thicken
 70
    13
 71
     2
 72
     2
 73
     0
 90
        0
 40
-0.6
 41
-30.0
 62
     5
 63
     7
421
 16777215
 74
     1
 91
        4
 64
     7
 65
   257
 75
     1
175
     1
 42
1.0
 92
       12
 66
     7
 43
1.0
 76
     1
 77
     6
 78
     2
 67
     7
 79
     5
170
     0
171
     0
290
     0
174
     0
 93
        1
 44
0.0
173
     0
291
     1
 45
0.0
1001
ACAD
1000
AcDbSavedByObjectVersion
1070
     0
  0
VISUALSTYLE
  5
DD
102
{ACAD_XDICTIONARY
360
1CF
102
}
102
{ACAD_REACTORS
330
D6
102
}
330
D6
100
AcDbVisualStyle
  2
Wireframe
 70
     5
 71
     0
 72
     2
 73
     0
 90
        0
 40
-0.6
 41
-30.0
 62
     5
 63
     7
421
 16777215
 74
     1
 91
        4
 64
     7
 65
   257
 75
     1
175
     1
 42
1.0
 92
        0
 66
   257
 43
1.0
 76
     1
 77
     6
 78
     2
 67
     7
 79
     3
170
     0
171
     0
290
     0
174
     0
 93
        1
 44
0.0
173
     0
291
     0
 45
0.0
1001
ACAD
1000
AcDbSavedByObjectVersion
1070
     0
  0
VISUALSTYLE
  5
E9
102
{ACAD_XDICTIONARY
360
1E7
102
}
102
{ACAD_REACTORS
330
D6
102
}
330
D6
100
AcDbVisualStyle
  2
X-Ray
 70
    25
 71
     2
 72
     2
 73
     1
 90
        1
 40
0.5
 41
-30.0
 62
     5
 63
     7
421
 16777215
 74
     1
 91
        0
 64
     7
 65
   257
 75
     1
175
     1
 42
1.0
 92
        8
 66
     7
 43
1.0
 76
     1
 77
     6
 78
     2
 67
     7
 79
     3
170
     0
171
     0
290
     0
174
     0
 93
       13
 44
0.0
173
     0
291
     0
 45
0.0
1001
ACAD
1000
AcDbSavedByObjectVersion
1070
     0
  0
DICTIONARYVAR
  5
1BB
102
{ACAD_REACTORS
330
1B8
102
}
330
1B8
100
DictionaryVariables
280
     0
  1
1:1
  0
DICTIONARYVAR
  5
1BA
102
{ACAD_REACTORS
330
1B8
102
}
330
1B8
100
DictionaryVariables
280
     0
  1
STANDARD
  0
DICTIONARYVAR
  5
1B9
102
{ACAD_REACTORS
330
1B8
102
}
330
1B8
100
DictionaryVariables
280
     0
  1
STANDARD
  0
DICTIONARYVAR
  5
1BC
102
{ACAD_REACTORS
330
1B8
102
}
330
1B8
100
DictionaryVariables
280
     0
  1
2
  0
DICTIONARY
  5
C7
330
C6
100
AcDbDictionary
280
     1
281
     1
  3
ACAD_XREC_ROUNDTRIP
360
1C1
  3
BUMPTILE
360
C9
  3
DIFFUSETILE
360
C8
  3
OPACITYTILE
360
CC
  3
REFLECTIONTILE
360
CB
  3
REFRACTIONTILE
360
CD
  3
SPECULARTILE
360
CA
  0
DICTIONARY
  5
BF
330
BE
100
AcDbDictionary
280
     1
281
     1
  3
ACAD_XREC_ROUNDTRIP
360
1C0
  3
BUMPTILE
360
C1
  3
DIFFUSETILE
360
C0
  3
OPACITYTILE
360
C4
  3
REFLECTIONTILE
360
C3
  3
REFRACTIONTILE
360
C5
  3
SPECULARTILE
360
C2
  0
DICTIONARY
  5
CF
330
CE
100
AcDbDictionary
280
     1
281
     1
  3
ACAD_XREC_ROUNDTRIP
360
1C2
  3
BUMPTILE
360
D1
  3
DIFFUSETILE
360
D0
  3
OPACITYTILE
360
D4
  3
REFLECTIONTILE
360
D3
  3
REFRACTIONTILE
360
D5
  3
SPECULARTILE
360
D2
  0
DICTIONARY
  5
1BD
330
F1
100
AcDbDictionary
280
     1
281
     1
  3
ACAD_ROUNDTRIP_2008_TABLESTYLE_CELLSTYLEMAP
360
1BE
  3
ACAD_XREC_ROUNDTRIP
360
1F3
  0
DICTIONARY
  5
1CD
330
DC
100
AcDbDictionary
280
     1
281
     1
  3
ACAD_XREC_ROUNDTRIP
360
1CE
  0
DICTIONARY
  5
1CB
330
DB
100
AcDbDictionary
280
     1
281
     1
  3
ACAD_XREC_ROUNDTRIP
360
1CC
  0
DICTIONARY
  5
1D9
330
E2
100
AcDbDictionary
280
     1
281
     1
  3
ACAD_XREC_ROUNDTRIP
360
1DA
  0
DICTIONARY
  5
1E1
330
E6
100
AcDbDictionary
280
     1
281
     1
  3
ACAD_XREC_ROUNDTRIP
360
1E2
  0
DICTIONARY
  5
1D3
330
DF
100
AcDbDictionary
280
     1
281
     1
  3
ACAD_XREC_ROUNDTRIP
360
1D4
  0
DICTIONARY
  5
1D7
330
E1
100
AcDbDictionary
280
     1
281
     1
  3
ACAD_XREC_ROUNDTRIP
360
1D8
  0
DICTIONARY
  5
1F1
330
EE
100
AcDbDictionary
280
     1
281
     1
  3
ACAD_XREC_ROUNDTRIP
360
1F2
  0
DICTIONARY
  5
1DF
330
E5
100
AcDbDictionary
280
     1
281
     1
  3
ACAD_XREC_ROUNDTRIP
360
1E0
  0
DICTIONARY
  5
1C3
330
D7
100
AcDbDictionary
280
     1
281
     1
  3
ACAD_XREC_ROUNDTRIP
360
1C4
  0
DICTIONARY
  5
1C5
330
D8
100
AcDbDictionary
280
     1
281
     1
  3
ACAD_XREC_ROUNDTRIP
360
1C6
  0
DICTIONARY
  5
1C7
330
D9
100
AcDbDictionary
280
     1
281
     1
  3
ACAD_XREC_ROUNDTRIP
360
1C8
  0
DICTIONARY
  5
1C9
330
DA
100
AcDbDictionary
280
     1
281
     1
  3
ACAD_XREC_ROUNDTRIP
360
1CA
  0
DICTIONARY
  5
1D1
330
DE
100
AcDbDictionary
280
     1
281
     1
  3
ACAD_XREC_ROUNDTRIP
360
1D2
  0
DICTIONARY
  5
1ED
330
EC
100
AcDbDictionary
280
     1
281
     1
  3
ACAD_XREC_ROUNDTRIP
360
1EE
  0
DICTIONARY
  5
1DD
330
E4
100
AcDbDictionary
280
     1
281
     1
  3
ACAD_XREC_ROUNDTRIP
360
1DE
  0
DICTIONARY
  5
1EF
330
ED
100
AcDbDictionary
280
     1
281
     1
  3
ACAD_XREC_ROUNDTRIP
360
1F0
  0
DICTIONARY
  5
1D5
330
E0
100
AcDbDictionary
280
     1
281
     1
  3
ACAD_XREC_ROUNDTRIP
360
1D6
  0
DICTIONARY
  5
1EB
330
EB
100
AcDbDictionary
280
     1
281
     1
  3
ACAD_XREC_ROUNDTRIP
360
1EC
  0
DICTIONARY
  5
1E9
330
EA
100
AcDbDictionary
280
     1
281
     1
  3
ACAD_XREC_ROUNDTRIP
360
1EA
  0
DICTIONARY
  5
1E3
330
E7
100
AcDbDictionary
280
     1
281
     1
  3
ACAD_XREC_ROUNDTRIP
360
1E4
  0
DICTIONARY
  5
1E5
330
E8
100
AcDbDictionary
280
     1
281
     1
  3
ACAD_XREC_ROUNDTRIP
360
1E6
  0
DICTIONARY
  5
1DB
330
E3
100
AcDbDictionary
280
     1
281
     1
  3
ACAD_XREC_ROUNDTRIP
360
1DC
  0
DICTIONARY
  5
1CF
330
DD
100
AcDbDictionary
280
     1
281
     1
  3
ACAD_XREC_ROUNDTRIP
360
1D0
  0
DICTIONARY
  5
1E7
330
E9
100
AcDbDictionary
280
     1
281
     1
  3
ACAD_XREC_ROUNDTRIP
360
1E8
  0
XRECORD
  5
1C1
102
{ACAD_REACTORS
330
C7
102
}
330
C7
100
AcDbXrecord
280
     1
102
MATERIAL
148
0.0
149
0.0
149
0.0
 93
        0
 94
      127
282
     0
 72
     0
 77
     0
171
     0
175
     0
179
     0
273
     0
  0
XRECORD
  5
C9
102
{ACAD_REACTORS
330
C7
102
}
330
C7
100
AcDbXrecord
280
     1
270
     1
271
     1
  0
XRECORD
  5
C8
102
{ACAD_REACTORS
330
C7
102
}
330
C7
100
AcDbXrecord
280
     1
270
     1
271
     1
  0
XRECORD
  5
CC
102
{ACAD_REACTORS
330
C7
102
}
330
C7
100
AcDbXrecord
280
     1
270
     1
271
     1
  0
XRECORD
  5
CB
102
{ACAD_REACTORS
330
C7
102
}
330
C7
100
AcDbXrecord
280
     1
270
     1
271
     1
  0
XRECORD
  5
CD
102
{ACAD_REACTORS
330
C7
102
}
330
C7
100
AcDbXrecord
280
     1
270
     1
271
     1
  0
XRECORD
  5
CA
102
{ACAD_REACTORS
330
C7
102
}
330
C7
100
AcDbXrecord
280
     1
270
     1
271
     1
  0
XRECORD
  5
1C0
102
{ACAD_REACTORS
330
BF
102
}
330
BF
100
AcDbXrecord
280
     1
102
MATERIAL
148
0.0
149
0.0
149
0.0
 93
        0
 94
      127
282
     0
 72
     0
 77
     0
171
     0
175
     0
179
     0
273
     0
  0
XRECORD
  5
C1
102
{ACAD_REACTORS
330
BF
102
}
330
BF
100
AcDbXrecord
280
     1
270
     1
271
     1
  0
XRECORD
  5
C0
102
{ACAD_REACTORS
330
BF
102
}
330
BF
100
AcDbXrecord
280
     1
270
     1
271
     1
  0
XRECORD
  5
C4
102
{ACAD_REACTORS
330
BF
102
}
330
BF
100
AcDbXrecord
280
     1
270
     1
271
     1
  0
XRECORD
  5
C3
102
{ACAD_REACTORS
330
BF
102
}
330
BF
100
AcDbXrecord
280
     1
270
     1
271
     1
  0
XRECORD
  5
C5
102
{ACAD_REACTORS
330
BF
102
}
330
BF
100
AcDbXrecord
280
     1
270
     1
271
     1
  0
XRECORD
  5
C2
102
{ACAD_REACTORS
330
BF
102
}
330
BF
100
AcDbXrecord
280
     1
270
     1
271
     1
  0
XRECORD
  5
1C2
102
{ACAD_REACTORS
330
CF
102
}
330
CF
100
AcDbXrecord
280
     1
102
MATERIAL
148
0.0
149
0.0
149
0.0
 93
        0
 94
      127
282
     0
 72
     0
 77
     0
171
     0
175
     0
179
     0
273
     0
  0
XRECORD
  5
D1
102
{ACAD_REACTORS
330
CF
102
}
330
CF
100
AcDbXrecord
280
     1
270
     1
271
     1
  0
XRECORD
  5
D0
102
{ACAD_REACTORS
330
CF
102
}
330
CF
100
AcDbXrecord
280
     1
270
     1
271
     1
  0
XRECORD
  5
D4
102
{ACAD_REACTORS
330
CF
102
}
330
CF
100
AcDbXrecord
280
     1
270
     1
271
     1
  0
XRECORD
  5
D3
102
{ACAD_REACTORS
330
CF
102
}
330
CF
100
AcDbXrecord
280
     1
270
     1
271
     1
  0
XRECORD
  5
D5
102
{ACAD_REACTORS
330
CF
102
}
330
CF
100
AcDbXrecord
280
     1
270
     1
271
     1
  0
XRECORD
  5
D2
102
{ACAD_REACTORS
330
CF
102
}
330
CF
100
AcDbXrecord
280
     1
270
     1
271
     1
  0
CELLSTYLEMAP
  5
1BE
102
{ACAD_REACTORS
330
1BD
102
}
330
1BD
100
AcDbCellStyleMap
 90
        3
300
CELLSTYLE
  1
TABLEFORMAT_BEGIN
 90
        5
170
     1
 91
        0
 92
    32768
 62
   257
 93
        1
300
CONTENTFORMAT
  1
CONTENTFORMAT_BEGIN
 90
        0
 91
        0
 92
      512
 93
        0
300

 40
0.0
140
1.0
 94
        5
 62
     0
340
11
144
0.25
309
CONTENTFORMAT_END
171
     0
 94
        0
309
TABLEFORMAT_END
  1
CELLSTYLE_BEGIN
 90
        1
 91
        1
300
_TITLE
309
CELLSTYLE_END
300
CELLSTYLE
  1
TABLEFORMAT_BEGIN
 90
        5
170
     1
 91
        0
 92
        0
 62
   257
 93
        1
300
CONTENTFORMAT
  1
CONTENTFORMAT_BEGIN
 90
        0
 91
        0
 92
      512
 93
        0
300

 40
0.0
140
1.0
 94
        5
 62
     0
340
11
144
0.18
309
CONTENTFORMAT_END
171
     0
 94
        0
309
TABLEFORMAT_END
  1
CELLSTYLE_BEGIN
 90
        2
 91
        1
300
_HEADER
309
CELLSTYLE_END
300
CELLSTYLE
  1
TABLEFORMAT_BEGIN
 90
        5
170
     1
 91
        0
 92
        0
 62
   257
 93
        1
300
CONTENTFORMAT
  1
CONTENTFORMAT_BEGIN
 90
        0
 91
        0
 92
      512
 93
        0
300

 40
0.0
140
1.0
 94
        2
 62
     0
340
11
144
0.18
309
CONTENTFORMAT_END
171
     0
 94
        0
309
TABLEFORMAT_END
  1
CELLSTYLE_BEGIN
 90
        3
 91
        2
300
_DATA
309
CELLSTYLE_END
  0
XRECORD
  5
1F3
102
{ACAD_REACTORS
330
1BD
102
}
330
1BD
100
AcDbXrecord
280
     1
102
ACAD_ROUNDTRIP_PRE2007_TABLESTYLE
 90
      512
 91
        0
  1

 92
      512
 93
        0
  2

 94
      512
 95
        0
  3

  0
XRECORD
  5
1CE
102
{ACAD_REACTORS
330
1CD
102
}
330
1CD
100
AcDbXrecord
280
     1
102
RTVSPropertyOp0
 70
     1
102
RTVSPropertyOp1
 70
     1
102
RTVSPropertyOp2
 70
     1
102
RTVSPropertyOp3
 70
     1
102
RTVSPropertyOp4
 70
     1
102
RTVSPropertyOp5
 70
     1
102
RTVSPropertyOp6
 70
     1
102
RTVSPropertyOp7
 70
     1
102
RTVSPropertyOp8
 70
     1
102
RTVSPropertyOp9
 70
     1
102
RTVSPropertyOp10
 70
     1
102
RTVSPropertyOp11
 70
     1
102
RTVSPropertyOp12
 70
     1
102
RTVSPropertyOp13
 70
     1
102
RTVSPropertyOp14
 70
     1
102
RTVSPropertyOp15
 70
     1
102
RTVSPropertyOp16
 70
     1
102
RTVSPropertyOp17
 70
     1
102
RTVSPropertyOp18
 70
     1
102
RTVSPropertyOp19
 70
     1
102
RTVSPropertyOp20
 70
     1
102
RTVSPropertyOp21
 70
     1
102
RTVSPropertyOp22
 70
     1
102
RTVSPropertyOp23
 70
     1
102
RTVSPropertyOp24
 70
     1
102
RTVSPropertyOp25
 70
     1
102
RTVSPropertyOp26
 70
     1
102
RTVSPropertyOp27
 70
     1
102
RTVSPropertyOp28
 70
     1
102
RTVSPropertyOp29
 70
     1
102
RTVSPropertyOp30
 70
     1
102
RTVSPropertyOp31
 70
     1
102
RTVSPropertyOp32
 70
     1
  0
XRECORD
  5
1CC
102
{ACAD_REACTORS
330
1CB
102
}
330
1CB
100
AcDbXrecord
280
     1
102
RTVSPropertyOp0
 70
     1
102
RTVSPropertyOp1
 70
     1
102
RTVSPropertyOp2
 70
     1
102
RTVSPropertyOp3
 70
     1
102
RTVSPropertyOp4
 70
     1
102
RTVSPropertyOp5
 70
     1
102
RTVSPropertyOp6
 70
     1
102
RTVSPropertyOp7
 70
     1
102
RTVSPropertyOp8
 70
     1
102
RTVSPropertyOp9
 70
     1
102
RTVSPropertyOp10
 70
     1
102
RTVSPropertyOp11
 70
     1
102
RTVSPropertyOp12
 70
     1
102
RTVSPropertyOp13
 70
     1
102
RTVSPropertyOp14
 70
     1
102
RTVSPropertyOp15
 70
     1
102
RTVSPropertyOp16
 70
     1
102
RTVSPropertyOp17
 70
     1
102
RTVSPropertyOp18
 70
     1
102
RTVSPropertyOp19
 70
     1
102
RTVSPropertyOp20
 70
     1
102
RTVSPropertyOp21
 70
     1
102
RTVSPropertyOp22
 70
     1
102
RTVSPropertyOp23
 70
     1
102
RTVSPropertyOp24
 70
     1
102
RTVSPropertyOp25
 70
     1
102
RTVSPropertyOp26
 70
     1
102
RTVSPropertyOp27
 70
     1
102
RTVSPropertyOp28
 70
     1
102
RTVSPropertyOp29
 70
     1
102
RTVSPropertyOp30
 70
     1
102
RTVSPropertyOp31
 70
     1
102
RTVSPropertyOp32
 70
     1
  0
XRECORD
  5
1DA
102
{ACAD_REACTORS
330
1D9
102
}
330
1D9
100
AcDbXrecord
280
     1
102
RTVSPropertyOp0
 70
     1
102
RTVSPropertyOp1
 70
     1
102
RTVSPropertyOp2
 70
     1
102
RTVSPropertyOp3
 70
     1
102
RTVSPropertyOp4
 70
     1
102
RTVSPropertyOp5
 70
     1
102
RTVSPropertyOp6
 70
     1
102
RTVSPropertyOp7
 70
     1
102
RTVSPropertyOp8
 70
     1
102
RTVSPropertyOp9
 70
     1
102
RTVSPropertyOp10
 70
     1
102
RTVSPropertyOp11
 70
     1
102
RTVSPropertyOp12
 70
     1
102
RTVSPropertyOp13
 70
     1
102
RTVSPropertyOp14
 70
     1
102
RTVSPropertyOp15
 70
     1
102
RTVSPropertyOp16
 70
     1
102
RTVSPropertyOp17
 70
     1
102
RTVSPropertyOp18
 70
     1
102
RTVSPropertyOp19
 70
     1
102
RTVSPropertyOp20
 70
     1
102
RTVSPropertyOp21
 70
     1
102
RTVSPropertyOp22
 70
     1
102
RTVSPropertyOp23
 70
     1
102
RTVSPropertyOp24
 70
     1
102
RTVSPropertyOp25
 70
     1
102
RTVSPropertyOp26
 70
     1
102
RTVSPropertyOp27
 70
     1
102
RTVSPropertyOp28
 70
     1
102
RTVSPropertyOp29
 70
     1
102
RTVSPropertyOp30
 70
     1
102
RTVSPropertyOp31
 70
     1
102
RTVSPropertyOp32
 70
     1
  0
XRECORD
  5
1E2
102
{ACAD_REACTORS
330
1E1
102
}
330
1E1
100
AcDbXrecord
280
     1
102
RTVSPropertyOp0
 70
     1
102
RTVSPropertyOp1
 70
     1
102
RTVSPropertyOp2
 70
     1
102
RTVSPropertyOp3
 70
     1
102
RTVSPropertyOp4
 70
     1
102
RTVSPropertyOp5
 70
     1
102
RTVSPropertyOp6
 70
     1
102
RTVSPropertyOp7
 70
     1
102
RTVSPropertyOp8
 70
     1
102
RTVSPropertyOp9
 70
     1
102
RTVSPropertyOp10
 70
     1
102
RTVSPropertyOp11
 70
     1
102
RTVSPropertyOp12
 70
     1
102
RTVSPropertyOp13
 70
     1
102
RTVSPropertyOp14
 70
     1
102
RTVSPropertyOp15
 70
     1
102
RTVSPropertyOp16
 70
     1
102
RTVSPropertyOp17
 70
     1
102
RTVSPropertyOp18
 70
     1
102
RTVSPropertyOp19
 70
     1
102
RTVSPropertyOp20
 70
     1
102
RTVSPropertyOp21
 70
     1
102
RTVSPropertyOp22
 70
     1
102
RTVSPropertyOp23
 70
     1
102
RTVSPropertyOp24
 70
     1
102
RTVSPropertyOp25
 70
     1
102
RTVSPropertyOp26
 70
     1
102
RTVSPropertyOp27
 70
     1
102
RTVSPropertyOp28
 70
     1
102
RTVSPropertyOp29
 70
     1
102
RTVSPropertyOp30
 70
     1
102
RTVSPropertyOp31
 70
     1
102
RTVSPropertyOp32
 70
     1
  0
XRECORD
  5
1D4
102
{ACAD_REACTORS
330
1D3
102
}
330
1D3
100
AcDbXrecord
280
     1
102
RTVSPropertyOp0
 70
     1
102
RTVSPropertyOp1
 70
     1
102
RTVSPropertyOp2
 70
     1
102
RTVSPropertyOp3
 70
     1
102
RTVSPropertyOp4
 70
     1
102
RTVSPropertyOp5
 70
     1
102
RTVSPropertyOp6
 70
     1
102
RTVSPropertyOp7
 70
     1
102
RTVSPropertyOp8
 70
     1
102
RTVSPropertyOp9
 70
     1
102
RTVSPropertyOp10
 70
     1
102
RTVSPropertyOp11
 70
     1
102
RTVSPropertyOp12
 70
     1
102
RTVSPropertyOp13
 70
     1
102
RTVSPropertyOp14
 70
     1
102
RTVSPropertyOp15
 70
     1
102
RTVSPropertyOp16
 70
     1
102
RTVSPropertyOp17
 70
     1
102
RTVSPropertyOp18
 70
     1
102
RTVSPropertyOp19
 70
     1
102
RTVSPropertyOp20
 70
     1
102
RTVSPropertyOp21
 70
     1
102
RTVSPropertyOp22
 70
     1
102
RTVSPropertyOp23
 70
     1
102
RTVSPropertyOp24
 70
     1
102
RTVSPropertyOp25
 70
     1
102
RTVSPropertyOp26
 70
     1
102
RTVSPropertyOp27
 70
     1
102
RTVSPropertyOp28
 70
     1
102
RTVSPropertyOp29
 70
     1
102
RTVSPropertyOp30
 70
     1
102
RTVSPropertyOp31
 70
     1
102
RTVSPropertyOp32
 70
     1
  0
XRECORD
  5
1D8
102
{ACAD_REACTORS
330
1D7
102
}
330
1D7
100
AcDbXrecord
280
     1
102
RTVSPropertyOp0
 70
     1
102
RTVSPropertyOp1
 70
     1
102
RTVSPropertyOp2
 70
     1
102
RTVSPropertyOp3
 70
     1
102
RTVSPropertyOp4
 70
     1
102
RTVSPropertyOp5
 70
     1
102
RTVSPropertyOp6
 70
     1
102
RTVSPropertyOp7
 70
     1
102
RTVSPropertyOp8
 70
     1
102
RTVSPropertyOp9
 70
     1
102
RTVSPropertyOp10
 70
     1
102
RTVSPropertyOp11
 70
     1
102
RTVSPropertyOp12
 70
     1
102
RTVSPropertyOp13
 70
     1
102
RTVSPropertyOp14
 70
     1
102
RTVSPropertyOp15
 70
     1
102
RTVSPropertyOp16
 70
     1
102
RTVSPropertyOp17
 70
     1
102
RTVSPropertyOp18
 70
     1
102
RTVSPropertyOp19
 70
     1
102
RTVSPropertyOp20
 70
     1
102
RTVSPropertyOp21
 70
     1
102
RTVSPropertyOp22
 70
     1
102
RTVSPropertyOp23
 70
     1
102
RTVSPropertyOp24
 70
     1
102
RTVSPropertyOp25
 70
     1
102
RTVSPropertyOp26
 70
     1
102
RTVSPropertyOp27
 70
     1
102
RTVSPropertyOp28
 70
     1
102
RTVSPropertyOp29
 70
     1
102
RTVSPropertyOp30
 70
     1
102
RTVSPropertyOp31
 70
     1
102
RTVSPropertyOp32
 70
     1
  0
XRECORD
  5
1F2
102
{ACAD_REACTORS
330
1F1
102
}
330
1F1
100
AcDbXrecord
280
     1
102
RTVSPropertyOp0
 70
     0
102
RTVSPropertyOp1
 70
     0
102
RTVSPropertyOp2
 70
     0
102
RTVSPropertyOp3
 70
     0
102
RTVSPropertyOp4
 70
     0
102
RTVSPropertyOp5
 70
     0
102
RTVSPropertyOp6
 70
     0
102
RTVSPropertyOp7
 70
     0
102
RTVSPropertyOp8
 70
     0
102
RTVSPropertyOp9
 70
     0
102
RTVSPropertyOp10
 70
     0
102
RTVSPropertyOp11
 70
     0
102
RTVSPropertyOp12
 70
     0
102
RTVSPropertyOp13
 70
     0
102
RTVSPropertyOp14
 70
     2
102
RTVSPropertyOp15
 70
     0
102
RTVSPropertyOp16
 70
     0
102
RTVSPropertyOp17
 70
     0
102
RTVSPropertyOp18
 70
     0
102
RTVSPropertyOp19
 70
     0
102
RTVSPropertyOp20
 70
     0
102
RTVSPropertyOp21
 70
     0
102
RTVSPropertyOp22
 70
     0
102
RTVSPropertyOp23
 70
     0
102
RTVSPropertyOp24
 70
     0
102
RTVSPropertyOp25
 70
     0
102
RTVSPropertyOp26
 70
     0
102
RTVSPropertyOp27
 70
     0
102
RTVSPropertyOp28
 70
     0
102
RTVSPropertyOp29
 70
     0
102
RTVSPropertyOp30
 70
     0
102
RTVSPropertyOp31
 70
     0
102
RTVSPropertyOp32
 70
     0
  0
XRECORD
  5
1E0
102
{ACAD_REACTORS
330
1DF
102
}
330
1DF
100
AcDbXrecord
280
     1
102
RTVSPropertyOp0
 70
     1
102
RTVSPropertyOp1
 70
     1
102
RTVSPropertyOp2
 70
     1
102
RTVSPropertyOp3
 70
     1
102
RTVSPropertyOp4
 70
     1
102
RTVSPropertyOp5
 70
     1
102
RTVSPropertyOp6
 70
     1
102
RTVSPropertyOp7
 70
     1
102
RTVSPropertyOp8
 70
     1
102
RTVSPropertyOp9
 70
     1
102
RTVSPropertyOp10
 70
     1
102
RTVSPropertyOp11
 70
     1
102
RTVSPropertyOp12
 70
     1
102
RTVSPropertyOp13
 70
     1
102
RTVSPropertyOp14
 70
     1
102
RTVSPropertyOp15
 70
     1
102
RTVSPropertyOp16
 70
     1
102
RTVSPropertyOp17
 70
     1
102
RTVSPropertyOp18
 70
     1
102
RTVSPropertyOp19
 70
     1
102
RTVSPropertyOp20
 70
     1
102
RTVSPropertyOp21
 70
     1
102
RTVSPropertyOp22
 70
     1
102
RTVSPropertyOp23
 70
     1
102
RTVSPropertyOp24
 70
     1
102
RTVSPropertyOp25
 70
     1
102
RTVSPropertyOp26
 70
     1
102
RTVSPropertyOp27
 70
     1
102
RTVSPropertyOp28
 70
     1
102
RTVSPropertyOp29
 70
     1
102
RTVSPropertyOp30
 70
     1
102
RTVSPropertyOp31
 70
     1
102
RTVSPropertyOp32
 70
     1
  0
XRECORD
  5
1C4
102
{ACAD_REACTORS
330
1C3
102
}
330
1C3
100
AcDbXrecord
280
     1
102
RTVSPropertyOp0
 70
     1
102
RTVSPropertyOp1
 70
     1
102
RTVSPropertyOp2
 70
     1
102
RTVSPropertyOp3
 70
     1
102
RTVSPropertyOp4
 70
     1
102
RTVSPropertyOp5
 70
     1
102
RTVSPropertyOp6
 70
     1
102
RTVSPropertyOp7
 70
     1
102
RTVSPropertyOp8
 70
     1
102
RTVSPropertyOp9
 70
     1
102
RTVSPropertyOp10
 70
     1
102
RTVSPropertyOp11
 70
     1
102
RTVSPropertyOp12
 70
     1
102
RTVSPropertyOp13
 70
     1
102
RTVSPropertyOp14
 70
     1
102
RTVSPropertyOp15
 70
     1
102
RTVSPropertyOp16
 70
     1
102
RTVSPropertyOp17
 70
     1
102
RTVSPropertyOp18
 70
     1
102
RTVSPropertyOp19
 70
     1
102
RTVSPropertyOp20
 70
     1
102
RTVSPropertyOp21
 70
     1
102
RTVSPropertyOp22
 70
     1
102
RTVSPropertyOp23
 70
     1
102
RTVSPropertyOp24
 70
     1
102
RTVSPropertyOp25
 70
     1
102
RTVSPropertyOp26
 70
     1
102
RTVSPropertyOp27
 70
     1
102
RTVSPropertyOp28
 70
     1
102
RTVSPropertyOp29
 70
     1
102
RTVSPropertyOp30
 70
     1
102
RTVSPropertyOp31
 70
     1
102
RTVSPropertyOp32
 70
     1
  0
XRECORD
  5
1C6
102
{ACAD_REACTORS
330
1C5
102
}
330
1C5
100
AcDbXrecord
280
     1
102
RTVSPropertyOp0
 70
     1
102
RTVSPropertyOp1
 70
     1
102
RTVSPropertyOp2
 70
     1
102
RTVSPropertyOp3
 70
     1
102
RTVSPropertyOp4
 70
     1
102
RTVSPropertyOp5
 70
     1
102
RTVSPropertyOp6
 70
     1
102
RTVSPropertyOp7
 70
     1
102
RTVSPropertyOp8
 70
     1
102
RTVSPropertyOp9
 70
     1
102
RTVSPropertyOp10
 70
     1
102
RTVSPropertyOp11
 70
     1
102
RTVSPropertyOp12
 70
     1
102
RTVSPropertyOp13
 70
     1
102
RTVSPropertyOp14
 70
     1
102
RTVSPropertyOp15
 70
     1
102
RTVSPropertyOp16
 70
     1
102
RTVSPropertyOp17
 70
     1
102
RTVSPropertyOp18
 70
     1
102
RTVSPropertyOp19
 70
     1
102
RTVSPropertyOp20
 70
     1
102
RTVSPropertyOp21
 70
     1
102
RTVSPropertyOp22
 70
     1
102
RTVSPropertyOp23
 70
     1
102
RTVSPropertyOp24
 70
     1
102
RTVSPropertyOp25
 70
     1
102
RTVSPropertyOp26
 70
     1
102
RTVSPropertyOp27
 70
     1
102
RTVSPropertyOp28
 70
     1
102
RTVSPropertyOp29
 70
     1
102
RTVSPropertyOp30
 70
     1
102
RTVSPropertyOp31
 70
     1
102
RTVSPropertyOp32
 70
     1
  0
XRECORD
  5
1C8
102
{ACAD_REACTORS
330
1C7
102
}
330
1C7
100
AcDbXrecord
280
     1
102
RTVSPropertyOp0
 70
     1
102
RTVSPropertyOp1
 70
     1
102
RTVSPropertyOp2
 70
     1
102
RTVSPropertyOp3
 70
     1
102
RTVSPropertyOp4
 70
     1
102
RTVSPropertyOp5
 70
     1
102
RTVSPropertyOp6
 70
     1
102
RTVSPropertyOp7
 70
     1
102
RTVSPropertyOp8
 70
     1
102
RTVSPropertyOp9
 70
     1
102
RTVSPropertyOp10
 70
     1
102
RTVSPropertyOp11
 70
     1
102
RTVSPropertyOp12
 70
     1
102
RTVSPropertyOp13
 70
     1
102
RTVSPropertyOp14
 70
     1
102
RTVSPropertyOp15
 70
     1
102
RTVSPropertyOp16
 70
     1
102
RTVSPropertyOp17
 70
     1
102
RTVSPropertyOp18
 70
     1
102
RTVSPropertyOp19
 70
     1
102
RTVSPropertyOp20
 70
     1
102
RTVSPropertyOp21
 70
     1
102
RTVSPropertyOp22
 70
     1
102
RTVSPropertyOp23
 70
     1
102
RTVSPropertyOp24
 70
     1
102
RTVSPropertyOp25
 70
     1
102
RTVSPropertyOp26
 70
     1
102
RTVSPropertyOp27
 70
     1
102
RTVSPropertyOp28
 70
     1
102
RTVSPropertyOp29
 70
     1
102
RTVSPropertyOp30
 70
     1
102
RTVSPropertyOp31
 70
     1
102
RTVSPropertyOp32
 70
     1
  0
XRECORD
  5
1CA
102
{ACAD_REACTORS
330
1C9
102
}
330
1C9
100
AcDbXrecord
280
     1
102
RTVSPropertyOp0
 70
     1
102
RTVSPropertyOp1
 70
     1
102
RTVSPropertyOp2
 70
     1
102
RTVSPropertyOp3
 70
     1
102
RTVSPropertyOp4
 70
     1
102
RTVSPropertyOp5
 70
     1
102
RTVSPropertyOp6
 70
     1
102
RTVSPropertyOp7
 70
     1
102
RTVSPropertyOp8
 70
     1
102
RTVSPropertyOp9
 70
     1
102
RTVSPropertyOp10
 70
     1
102
RTVSPropertyOp11
 70
     1
102
RTVSPropertyOp12
 70
     1
102
RTVSPropertyOp13
 70
     1
102
RTVSPropertyOp14
 70
     1
102
RTVSPropertyOp15
 70
     1
102
RTVSPropertyOp16
 70
     1
102
RTVSPropertyOp17
 70
     1
102
RTVSPropertyOp18
 70
     1
102
RTVSPropertyOp19
 70
     1
102
RTVSPropertyOp20
 70
     1
102
RTVSPropertyOp21
 70
     1
102
RTVSPropertyOp22
 70
     1
102
RTVSPropertyOp23
 70
     1
102
RTVSPropertyOp24
 70
     1
102
RTVSPropertyOp25
 70
     1
102
RTVSPropertyOp26
 70
     1
102
RTVSPropertyOp27
 70
     1
102
RTVSPropertyOp28
 70
     1
102
RTVSPropertyOp29
 70
     1
102
RTVSPropertyOp30
 70
     1
102
RTVSPropertyOp31
 70
     1
102
RTVSPropertyOp32
 70
     1
  0
XRECORD
  5
1D2
102
{ACAD_REACTORS
330
1D1
102
}
330
1D1
100
AcDbXrecord
280
     1
102
RTVSPropertyOp0
 70
     1
102
RTVSPropertyOp1
 70
     1
102
RTVSPropertyOp2
 70
     1
102
RTVSPropertyOp3
 70
     1
102
RTVSPropertyOp4
 70
     1
102
RTVSPropertyOp5
 70
     1
102
RTVSPropertyOp6
 70
     1
102
RTVSPropertyOp7
 70
     1
102
RTVSPropertyOp8
 70
     1
102
RTVSPropertyOp9
 70
     1
102
RTVSPropertyOp10
 70
     1
102
RTVSPropertyOp11
 70
     1
102
RTVSPropertyOp12
 70
     1
102
RTVSPropertyOp13
 70
     1
102
RTVSPropertyOp14
 70
     1
102
RTVSPropertyOp15
 70
     1
102
RTVSPropertyOp16
 70
     1
102
RTVSPropertyOp17
 70
     1
102
RTVSPropertyOp18
 70
     1
102
RTVSPropertyOp19
 70
     1
102
RTVSPropertyOp20
 70
     1
102
RTVSPropertyOp21
 70
     1
102
RTVSPropertyOp22
 70
     1
102
RTVSPropertyOp23
 70
     1
102
RTVSPropertyOp24
 70
     1
102
RTVSPropertyOp25
 70
     1
102
RTVSPropertyOp26
 70
     1
102
RTVSPropertyOp27
 70
     1
102
RTVSPropertyOp28
 70
     1
102
RTVSPropertyOp29
 70
     1
102
RTVSPropertyOp30
 70
     1
102
RTVSPropertyOp31
 70
     1
102
RTVSPropertyOp32
 70
     1
  0
XRECORD
  5
1EE
102
{ACAD_REACTORS
330
1ED
102
}
330
1ED
100
AcDbXrecord
280
     1
102
RTVSPropertyOp0
 70
     0
102
RTVSPropertyOp1
 70
     0
102
RTVSPropertyOp2
 70
     0
102
RTVSPropertyOp3
 70
     0
102
RTVSPropertyOp4
 70
     0
102
RTVSPropertyOp5
 70
     0
102
RTVSPropertyOp6
 70
     0
102
RTVSPropertyOp7
 70
     0
102
RTVSPropertyOp8
 70
     0
102
RTVSPropertyOp9
 70
     0
102
RTVSPropertyOp10
 70
     0
102
RTVSPropertyOp11
 70
     0
102
RTVSPropertyOp12
 70
     0
102
RTVSPropertyOp13
 70
     0
102
RTVSPropertyOp14
 70
     2
102
RTVSPropertyOp15
 70
     0
102
RTVSPropertyOp16
 70
     0
102
RTVSPropertyOp17
 70
     0
102
RTVSPropertyOp18
 70
     0
102
RTVSPropertyOp19
 70
     0
102
RTVSPropertyOp20
 70
     0
102
RTVSPropertyOp21
 70
     0
102
RTVSPropertyOp22
 70
     0
102
RTVSPropertyOp23
 70
     0
102
RTVSPropertyOp24
 70
     0
102
RTVSPropertyOp25
 70
     0
102
RTVSPropertyOp26
 70
     0
102
RTVSPropertyOp27
 70
     0
102
RTVSPropertyOp28
 70
     0
102
RTVSPropertyOp29
 70
     0
102
RTVSPropertyOp30
 70
     0
102
RTVSPropertyOp31
 70
     0
102
RTVSPropertyOp32
 70
     0
  0
XRECORD
  5
1DE
102
{ACAD_REACTORS
330
1DD
102
}
330
1DD
100
AcDbXrecord
280
     1
102
RTVSPropertyOp0
 70
     1
102
RTVSPropertyOp1
 70
     1
102
RTVSPropertyOp2
 70
     1
102
RTVSPropertyOp3
 70
     1
102
RTVSPropertyOp4
 70
     1
102
RTVSPropertyOp5
 70
     1
102
RTVSPropertyOp6
 70
     1
102
RTVSPropertyOp7
 70
     1
102
RTVSPropertyOp8
 70
     1
102
RTVSPropertyOp9
 70
     1
102
RTVSPropertyOp10
 70
     1
102
RTVSPropertyOp11
 70
     1
102
RTVSPropertyOp12
 70
     1
102
RTVSPropertyOp13
 70
     1
102
RTVSPropertyOp14
 70
     1
102
RTVSPropertyOp15
 70
     1
102
RTVSPropertyOp16
 70
     1
102
RTVSPropertyOp17
 70
     1
102
RTVSPropertyOp18
 70
     1
102
RTVSPropertyOp19
 70
     1
102
RTVSPropertyOp20
 70
     1
102
RTVSPropertyOp21
 70
     1
102
RTVSPropertyOp22
 70
     1
102
RTVSPropertyOp23
 70
     1
102
RTVSPropertyOp24
 70
     1
102
RTVSPropertyOp25
 70
     1
102
RTVSPropertyOp26
 70
     1
102
RTVSPropertyOp27
 70
     1
102
RTVSPropertyOp28
 70
     1
102
RTVSPropertyOp29
 70
     1
102
RTVSPropertyOp30
 70
     1
102
RTVSPropertyOp31
 70
     1
102
RTVSPropertyOp32
 70
     1
  0
XRECORD
  5
1F0
102
{ACAD_REACTORS
330
1EF
102
}
330
1EF
100
AcDbXrecord
280
     1
102
RTVSPropertyOp0
 70
     0
102
RTVSPropertyOp1
 70
     0
102
RTVSPropertyOp2
 70
     0
102
RTVSPropertyOp3
 70
     0
102
RTVSPropertyOp4
 70
     0
102
RTVSPropertyOp5
 70
     0
102
RTVSPropertyOp6
 70
     0
102
RTVSPropertyOp7
 70
     0
102
RTVSPropertyOp8
 70
     0
102
RTVSPropertyOp9
 70
     0
102
RTVSPropertyOp10
 70
     0
102
RTVSPropertyOp11
 70
     0
102
RTVSPropertyOp12
 70
     0
102
RTVSPropertyOp13
 70
     0
102
RTVSPropertyOp14
 70
     2
102
RTVSPropertyOp15
 70
     0
102
RTVSPropertyOp16
 70
     0
102
RTVSPropertyOp17
 70
     0
102
RTVSPropertyOp18
 70
     0
102
RTVSPropertyOp19
 70
     0
102
RTVSPropertyOp20
 70
     0
102
RTVSPropertyOp21
 70
     0
102
RTVSPropertyOp22
 70
     0
102
RTVSPropertyOp23
 70
     0
102
RTVSPropertyOp24
 70
     0
102
RTVSPropertyOp25
 70
     0
102
RTVSPropertyOp26
 70
     0
102
RTVSPropertyOp27
 70
     0
102
RTVSPropertyOp28
 70
     0
102
RTVSPropertyOp29
 70
     0
102
RTVSPropertyOp30
 70
     0
102
RTVSPropertyOp31
 70
     0
102
RTVSPropertyOp32
 70
     0
  0
XRECORD
  5
1D6
102
{ACAD_REACTORS
330
1D5
102
}
330
1D5
100
AcDbXrecord
280
     1
102
RTVSPropertyOp0
 70
     1
102
RTVSPropertyOp1
 70
     1
102
RTVSPropertyOp2
 70
     1
102
RTVSPropertyOp3
 70
     1
102
RTVSPropertyOp4
 70
     1
102
RTVSPropertyOp5
 70
     1
102
RTVSPropertyOp6
 70
     1
102
RTVSPropertyOp7
 70
     1
102
RTVSPropertyOp8
 70
     1
102
RTVSPropertyOp9
 70
     1
102
RTVSPropertyOp10
 70
     1
102
RTVSPropertyOp11
 70
     1
102
RTVSPropertyOp12
 70
     1
102
RTVSPropertyOp13
 70
     1
102
RTVSPropertyOp14
 70
     1
102
RTVSPropertyOp15
 70
     1
102
RTVSPropertyOp16
 70
     1
102
RTVSPropertyOp17
 70
     1
102
RTVSPropertyOp18
 70
     1
102
RTVSPropertyOp19
 70
     1
102
RTVSPropertyOp20
 70
     1
102
RTVSPropertyOp21
 70
     1
102
RTVSPropertyOp22
 70
     1
102
RTVSPropertyOp23
 70
     1
102
RTVSPropertyOp24
 70
     1
102
RTVSPropertyOp25
 70
     1
102
RTVSPropertyOp26
 70
     1
102
RTVSPropertyOp27
 70
     1
102
RTVSPropertyOp28
 70
     1
102
RTVSPropertyOp29
 70
     1
102
RTVSPropertyOp30
 70
     1
102
RTVSPropertyOp31
 70
     1
102
RTVSPropertyOp32
 70
     1
  0
XRECORD
  5
1EC
102
{ACAD_REACTORS
330
1EB
102
}
330
1EB
100
AcDbXrecord
280
     1
102
RTVSPropertyOp0
 70
     1
102
RTVSPropertyOp1
 70
     1
102
RTVSPropertyOp2
 70
     1
102
RTVSPropertyOp3
 70
     1
102
RTVSPropertyOp4
 70
     1
102
RTVSPropertyOp5
 70
     1
102
RTVSPropertyOp6
 70
     1
102
RTVSPropertyOp7
 70
     1
102
RTVSPropertyOp8
 70
     1
102
RTVSPropertyOp9
 70
     1
102
RTVSPropertyOp10
 70
     1
102
RTVSPropertyOp11
 70
     1
102
RTVSPropertyOp12
 70
     1
102
RTVSPropertyOp13
 70
     1
102
RTVSPropertyOp14
 70
     1
102
RTVSPropertyOp15
 70
     1
102
RTVSPropertyOp16
 70
     1
102
RTVSPropertyOp17
 70
     1
102
RTVSPropertyOp18
 70
     1
102
RTVSPropertyOp19
 70
     1
102
RTVSPropertyOp20
 70
     1
102
RTVSPropertyOp21
 70
     1
102
RTVSPropertyOp22
 70
     1
102
RTVSPropertyOp23
 70
     1
102
RTVSPropertyOp24
 70
     1
102
RTVSPropertyOp25
 70
     1
102
RTVSPropertyOp26
 70
     1
102
RTVSPropertyOp27
 70
     1
102
RTVSPropertyOp28
 70
     1
102
RTVSPropertyOp29
 70
     1
102
RTVSPropertyOp30
 70
     1
102
RTVSPropertyOp31
 70
     1
102
RTVSPropertyOp32
 70
     1
  0
XRECORD
  5
1EA
102
{ACAD_REACTORS
330
1E9
102
}
330
1E9
100
AcDbXrecord
280
     1
102
RTVSPropertyOp0
 70
     1
102
RTVSPropertyOp1
 70
     1
102
RTVSPropertyOp2
 70
     1
102
RTVSPropertyOp3
 70
     1
102
RTVSPropertyOp4
 70
     1
102
RTVSPropertyOp5
 70
     1
102
RTVSPropertyOp6
 70
     1
102
RTVSPropertyOp7
 70
     1
102
RTVSPropertyOp8
 70
     1
102
RTVSPropertyOp9
 70
     1
102
RTVSPropertyOp10
 70
     1
102
RTVSPropertyOp11
 70
     1
102
RTVSPropertyOp12
 70
     1
102
RTVSPropertyOp13
 70
     1
102
RTVSPropertyOp14
 70
     1
102
RTVSPropertyOp15
 70
     1
102
RTVSPropertyOp16
 70
     1
102
RTVSPropertyOp17
 70
     1
102
RTVSPropertyOp18
 70
     1
102
RTVSPropertyOp19
 70
     1
102
RTVSPropertyOp20
 70
     1
102
RTVSPropertyOp21
 70
     1
102
RTVSPropertyOp22
 70
     1
102
RTVSPropertyOp23
 70
     1
102
RTVSPropertyOp24
 70
     1
102
RTVSPropertyOp25
 70
     1
102
RTVSPropertyOp26
 70
     1
102
RTVSPropertyOp27
 70
     1
102
RTVSPropertyOp28
 70
     1
102
RTVSPropertyOp29
 70
     1
102
RTVSPropertyOp30
 70
     1
102
RTVSPropertyOp31
 70
     1
102
RTVSPropertyOp32
 70
     1
  0
XRECORD
  5
1E4
102
{ACAD_REACTORS
330
1E3
102
}
330
1E3
100
AcDbXrecord
280
     1
102
RTVSPropertyOp0
 70
     1
102
RTVSPropertyOp1
 70
     1
102
RTVSPropertyOp2
 70
     1
102
RTVSPropertyOp3
 70
     1
102
RTVSPropertyOp4
 70
     1
102
RTVSPropertyOp5
 70
     1
102
RTVSPropertyOp6
 70
     1
102
RTVSPropertyOp7
 70
     1
102
RTVSPropertyOp8
 70
     1
102
RTVSPropertyOp9
 70
     1
102
RTVSPropertyOp10
 70
     1
102
RTVSPropertyOp11
 70
     1
102
RTVSPropertyOp12
 70
     1
102
RTVSPropertyOp13
 70
     1
102
RTVSPropertyOp14
 70
     1
102
RTVSPropertyOp15
 70
     1
102
RTVSPropertyOp16
 70
     1
102
RTVSPropertyOp17
 70
     1
102
RTVSPropertyOp18
 70
     1
102
RTVSPropertyOp19
 70
     1
102
RTVSPropertyOp20
 70
     1
102
RTVSPropertyOp21
 70
     1
102
RTVSPropertyOp22
 70
     1
102
RTVSPropertyOp23
 70
     1
102
RTVSPropertyOp24
 70
     1
102
RTVSPropertyOp25
 70
     1
102
RTVSPropertyOp26
 70
     1
102
RTVSPropertyOp27
 70
     1
102
RTVSPropertyOp28
 70
     1
102
RTVSPropertyOp29
 70
     1
102
RTVSPropertyOp30
 70
     1
102
RTVSPropertyOp31
 70
     1
102
RTVSPropertyOp32
 70
     1
  0
XRECORD
  5
1E6
102
{ACAD_REACTORS
330
1E5
102
}
330
1E5
100
AcDbXrecord
280
     1
102
RTVSPropertyOp0
 70
     1
102
RTVSPropertyOp1
 70
     1
102
RTVSPropertyOp2
 70
     1
102
RTVSPropertyOp3
 70
     1
102
RTVSPropertyOp4
 70
     1
102
RTVSPropertyOp5
 70
     1
102
RTVSPropertyOp6
 70
     1
102
RTVSPropertyOp7
 70
     1
102
RTVSPropertyOp8
 70
     1
102
RTVSPropertyOp9
 70
     1
102
RTVSPropertyOp10
 70
     1
102
RTVSPropertyOp11
 70
     1
102
RTVSPropertyOp12
 70
     1
102
RTVSPropertyOp13
 70
     1
102
RTVSPropertyOp14
 70
     1
102
RTVSPropertyOp15
 70
     1
102
RTVSPropertyOp16
 70
     1
102
RTVSPropertyOp17
 70
     1
102
RTVSPropertyOp18
 70
     1
102
RTVSPropertyOp19
 70
     1
102
RTVSPropertyOp20
 70
     1
102
RTVSPropertyOp21
 70
     1
102
RTVSPropertyOp22
 70
     1
102
RTVSPropertyOp23
 70
     1
102
RTVSPropertyOp24
 70
     1
102
RTVSPropertyOp25
 70
     1
102
RTVSPropertyOp26
 70
     1
102
RTVSPropertyOp27
 70
     1
102
RTVSPropertyOp28
 70
     1
102
RTVSPropertyOp29
 70
     1
102
RTVSPropertyOp30
 70
     1
102
RTVSPropertyOp31
 70
     1
102
RTVSPropertyOp32
 70
     1
  0
XRECORD
  5
1DC
102
{ACAD_REACTORS
330
1DB
102
}
330
1DB
100
AcDbXrecord
280
     1
102
RTVSPropertyOp0
 70
     1
102
RTVSPropertyOp1
 70
     1
102
RTVSPropertyOp2
 70
     1
102
RTVSPropertyOp3
 70
     1
102
RTVSPropertyOp4
 70
     1
102
RTVSPropertyOp5
 70
     1
102
RTVSPropertyOp6
 70
     1
102
RTVSPropertyOp7
 70
     1
102
RTVSPropertyOp8
 70
     1
102
RTVSPropertyOp9
 70
     1
102
RTVSPropertyOp10
 70
     1
102
RTVSPropertyOp11
 70
     1
102
RTVSPropertyOp12
 70
     1
102
RTVSPropertyOp13
 70
     1
102
RTVSPropertyOp14
 70
     1
102
RTVSPropertyOp15
 70
     1
102
RTVSPropertyOp16
 70
     1
102
RTVSPropertyOp17
 70
     1
102
RTVSPropertyOp18
 70
     1
102
RTVSPropertyOp19
 70
     1
102
RTVSPropertyOp20
 70
     1
102
RTVSPropertyOp21
 70
     1
102
RTVSPropertyOp22
 70
     1
102
RTVSPropertyOp23
 70
     1
102
RTVSPropertyOp24
 70
     1
102
RTVSPropertyOp25
 70
     1
102
RTVSPropertyOp26
 70
     1
102
RTVSPropertyOp27
 70
     1
102
RTVSPropertyOp28
 70
     1
102
RTVSPropertyOp29
 70
     1
102
RTVSPropertyOp30
 70
     1
102
RTVSPropertyOp31
 70
     1
102
RTVSPropertyOp32
 70
     1
  0
XRECORD
  5
1D0
102
{ACAD_REACTORS
330
1CF
102
}
330
1CF
100
AcDbXrecord
280
     1
102
RTVSPropertyOp0
 70
     1
102
RTVSPropertyOp1
 70
     1
102
RTVSPropertyOp2
 70
     1
102
RTVSPropertyOp3
 70
     1
102
RTVSPropertyOp4
 70
     1
102
RTVSPropertyOp5
 70
     1
102
RTVSPropertyOp6
 70
     1
102
RTVSPropertyOp7
 70
     1
102
RTVSPropertyOp8
 70
     1
102
RTVSPropertyOp9
 70
     1
102
RTVSPropertyOp10
 70
     1
102
RTVSPropertyOp11
 70
     1
102
RTVSPropertyOp12
 70
     1
102
RTVSPropertyOp13
 70
     1
102
RTVSPropertyOp14
 70
     1
102
RTVSPropertyOp15
 70
     1
102
RTVSPropertyOp16
 70
     1
102
RTVSPropertyOp17
 70
     1
102
RTVSPropertyOp18
 70
     1
102
RTVSPropertyOp19
 70
     1
102
RTVSPropertyOp20
 70
     1
102
RTVSPropertyOp21
 70
     1
102
RTVSPropertyOp22
 70
     1
102
RTVSPropertyOp23
 70
     1
102
RTVSPropertyOp24
 70
     1
102
RTVSPropertyOp25
 70
     1
102
RTVSPropertyOp26
 70
     1
102
RTVSPropertyOp27
 70
     1
102
RTVSPropertyOp28
 70
     1
102
RTVSPropertyOp29
 70
     1
102
RTVSPropertyOp30
 70
     1
102
RTVSPropertyOp31
 70
     1
102
RTVSPropertyOp32
 70
     1
  0
XRECORD
  5
1E8
102
{ACAD_REACTORS
330
1E7
102
}
330
1E7
100
AcDbXrecord
280
     1
102
RTVSPropertyOp0
 70
     1
102
RTVSPropertyOp1
 70
     1
102
RTVSPropertyOp2
 70
     1
102
RTVSPropertyOp3
 70
     1
102
RTVSPropertyOp4
 70
     1
102
RTVSPropertyOp5
 70
     1
102
RTVSPropertyOp6
 70
     1
102
RTVSPropertyOp7
 70
     1
102
RTVSPropertyOp8
 70
     1
102
RTVSPropertyOp9
 70
     1
102
RTVSPropertyOp10
 70
     1
102
RTVSPropertyOp11
 70
     1
102
RTVSPropertyOp12
 70
     1
102
RTVSPropertyOp13
 70
     1
102
RTVSPropertyOp14
 70
     1
102
RTVSPropertyOp15
 70
     1
102
RTVSPropertyOp16
 70
     1
102
RTVSPropertyOp17
 70
     1
102
RTVSPropertyOp18
 70
     1
102
RTVSPropertyOp19
 70
     1
102
RTVSPropertyOp20
 70
     1
102
RTVSPropertyOp21
 70
     1
102
RTVSPropertyOp22
 70
     1
102
RTVSPropertyOp23
 70
     1
102
RTVSPropertyOp24
 70
     1
102
RTVSPropertyOp25
 70
     1
102
RTVSPropertyOp26
 70
     1
102
RTVSPropertyOp27
 70
     1
102
RTVSPropertyOp28
 70
     1
102
RTVSPropertyOp29
 70
     1
102
RTVSPropertyOp30
 70
     1
102
RTVSPropertyOp31
 70
     1
102
RTVSPropertyOp32
 70
     1
  0
ENDSEC
  0
EOF
